<svg id="icon-close" xmlns="http://www.w3.org/2000/svg" width="20" height="20" viewBox="0 0 20 20">
  <rect id="Rectangle_19" data-name="Rectangle 19" width="20" height="20" fill="#0288d1" opacity="0"/>
  <path id="Path_18" data-name="Path 18" d="M24.224,22.456,20.865,19.1l-7.071-7.071L10.435,8.667a.25.25,0,0,0-.353,0L8.667,10.082a.25.25,0,0,0,0,.353l3.359,3.359L19.1,20.865l3.359,3.359a.25.25,0,0,0,.354,0l1.414-1.414A.25.25,0,0,0,24.224,22.456Z" transform="translate(-6.446 -6.446)" fill="#0288d1"/>
  <path id="Path_19" data-name="Path 19" d="M10.435,24.224l3.359-3.359,7.071-7.071,3.359-3.359a.25.25,0,0,0,0-.353L22.81,8.667a.25.25,0,0,0-.354,0L19.1,12.026,12.026,19.1,8.667,22.456a.25.25,0,0,0,0,.354l1.414,1.414A.25.25,0,0,0,10.435,24.224Z" transform="translate(-6.446 -6.446)" fill="#0288d1"/>
</svg>
