<svg xmlns="http://www.w3.org/2000/svg" width="10.018" height="10" viewBox="0 0 10.018 10">
  <g id="icon-new_window" opacity="0.75">
    <rect id="Rectangle_21" data-name="Rectangle 21" width="10" height="10" fill="#000a1c" opacity="0"/>
    <path id="Path_21" data-name="Path 21" d="M26.39,2.5V6.125a.125.125,0,0,1-.125.125h-4.75a.125.125,0,0,1-.125-.125V1.375a.125.125,0,0,1,.125-.125h4.75a.125.125,0,0,1,.125.125Zm1-2.5h-7a.25.25,0,0,0-.25.25v7a.25.25,0,0,0,.25.25h7a.25.25,0,0,0,.25-.25v-7A.25.25,0,0,0,27.39,0Z" transform="translate(-17.622)" fill="#000a1c"/>
    <path id="Path_22" data-name="Path 22" d="M6.39,25.75v.375a.125.125,0,0,1-.125.125H1.515a.125.125,0,0,1-.125-.125v-4.75a.125.125,0,0,1,.125-.125H1.89a.125.125,0,0,0,.125-.125v-1A.125.125,0,0,0,1.89,20H.39a.25.25,0,0,0-.25.25v7a.25.25,0,0,0,.25.25h7a.25.25,0,0,0,.25-.25v-1.5a.125.125,0,0,0-.125-.125h-1A.125.125,0,0,0,6.39,25.75Z" transform="translate(-0.122 -17.5)" fill="#000a1c"/>
  </g>
</svg>
