<svg id="icon-entry" xmlns="http://www.w3.org/2000/svg" width="24" height="24" viewBox="0 0 24 24">
  <rect id="Rectangle_16" data-name="Rectangle 16" width="24" height="24" fill="#111" opacity="0"/>
  <path id="Path_12" data-name="Path 12" d="M35.485,27.985l-.848,2.546a.3.3,0,0,0,.379.379l2.546-.849a.3.3,0,0,0,.117-.072L48.022,19.645a.3.3,0,0,0,0-.424l-1.7-1.7a.3.3,0,0,0-.424,0L35.557,27.867A.3.3,0,0,0,35.485,27.985Z" transform="translate(-24.235 -12.205)" fill="#111"/>
  <path id="Path_13" data-name="Path 13" d="M25,16.35V20.7a.3.3,0,0,1-.3.3H13.3a.3.3,0,0,1-.3-.3V3.3a.3.3,0,0,1,.3-.3H24.7a.3.3,0,0,1,.3.3V5.26a.3.3,0,0,0,.512.212l2.4-2.4A.3.3,0,0,0,28,2.86V.6a.6.6,0,0,0-.6-.6H10.6a.6.6,0,0,0-.6.6V23.4a.6.6,0,0,0,.6.6H27.4a.6.6,0,0,0,.6-.6V13.95a.3.3,0,0,0-.512-.212l-2.4,2.4A.3.3,0,0,0,25,16.35Z" transform="translate(-7)" fill="#111"/>
</svg>
