<svg xmlns="http://www.w3.org/2000/svg" xmlns:xlink="http://www.w3.org/1999/xlink" width="260.118" height="146.98" viewBox="0 0 260.118 146.98">
  <defs>
    <clipPath id="clip-path">
      <rect id="Rectangle_17690" data-name="Rectangle 17690" width="144" height="143.936" fill="none"/>
    </clipPath>
  </defs>
  <g id="Group_58439" data-name="Group 58439" transform="translate(-509.903 -1810.956)">
    <path id="Path_72960" data-name="Path 72960" d="M10.848-9.924h-.816v4.968c0,.144-.06.192-.216.2-.192.012-.768.012-1.416-.012a2.546,2.546,0,0,1,.276.744A5.656,5.656,0,0,0,10.4-4.152c.348-.132.444-.348.444-.8Zm-2.736.348h-.8v4.008h.8ZM3.348-6.54h-2.1v2.232h.72V-5.94h1.38V-4h.768V-5.94H5.58v.852c0,.1-.024.132-.132.132s-.408.012-.8,0a2.662,2.662,0,0,1,.24.576,3.092,3.092,0,0,0,1.128-.108c.264-.1.3-.264.3-.6V-6.54h-2.2v-.636H6.672v-.648H4.116v-.744H6.252v-.624H4.116v-.852H3.348v.852h-1.1c.084-.216.18-.42.252-.636L1.788-10A5.323,5.323,0,0,1,.84-8.184a5.384,5.384,0,0,1,.636.348,5.135,5.135,0,0,0,.456-.732H3.348v.744H.66v.648H3.348Zm6.72,3.84a15.931,15.931,0,0,1-2.22,1.3A5.558,5.558,0,0,1,6.768-2.8H11.3V-3.54H6.444v-.708H5.556v.708H.708V-2.8H4.872A13.869,13.869,0,0,1,.5-1.248,2.865,2.865,0,0,1,1-.588a15.855,15.855,0,0,0,2.388-.72V-.1Q2.7.012,2.16.084L2.3.828,7.032.06,6.984-.66c-.936.144-1.884.3-2.748.432V-1.68a10.408,10.408,0,0,0,1.74-1.032A6.6,6.6,0,0,0,10.992.936a2.992,2.992,0,0,1,.5-.72A7.381,7.381,0,0,1,8.424-.96a15.261,15.261,0,0,0,2.292-1.272ZM19.68-7.764V-6.24h-3.4v.78H23.94v-.78H20.556V-7.764h2.868v-.78H20.556v-1.488H19.68v1.488H18.288a10.44,10.44,0,0,0,.48-1.14l-.84-.192a7.348,7.348,0,0,1-1.74,2.94,4.362,4.362,0,0,1,.768.432,8.329,8.329,0,0,0,.912-1.26ZM18.228-3.792h3.948v1.908H18.228Zm4.848,2.64V-4.524H17.352v3.372ZM16.1-7.9a9.131,9.131,0,0,0-2.088-1.848l-.66.528A8.306,8.306,0,0,1,15.4-7.308ZM15.768-5.34H13.224v.84h1.668v3.036A20.038,20.038,0,0,1,13.068-.1l.48.9C14.184.288,14.784-.228,15.36-.732a4.276,4.276,0,0,0,3.4,1.416c1.32.048,3.78.024,5.088-.024a4.06,4.06,0,0,1,.288-.912c-1.4.1-4.068.132-5.376.084a3.493,3.493,0,0,1-2.988-1.344Z" transform="translate(745 1843)" fill="#111"/>
    <path id="Path_72959" data-name="Path 72959" d="M9.288-.324H2.916V-1.956H9.288ZM3.744-5.772h4.62v1.38H3.744ZM9.228-3.7V-6.468H2.9V-3.7H5.352c-.072.312-.18.66-.264.96H2.076V.924h.84V.468H9.288V.912h.876V-2.736H5.94c.132-.3.264-.624.384-.96ZM9.12-8.148a18.576,18.576,0,0,0,1.164-1.476L9.36-9.936A11.567,11.567,0,0,1,8.136-8.148H5.952l.588-.228a7.967,7.967,0,0,0-.936-1.68l-.78.264a8.91,8.91,0,0,1,.888,1.644H3.372l.36-.168a7.457,7.457,0,0,0-1.116-1.56L1.86-9.54a9.775,9.775,0,0,1,.972,1.392H1.14v2.34h.828V-7.38h8.184v1.572H11v-2.34Zm11.268,1A10.97,10.97,0,0,1,19.776-5.9l.12.036h-2.82l.384-.084a4.663,4.663,0,0,0-.6-1.2Zm3.444,5.22v-.756H19.02v-.888h3.756V-4.26H19.02v-.876h4.344v-.732H20.64c.24-.36.5-.828.744-1.284h2.4V-7.92h-1.86A16.779,16.779,0,0,0,22.98-9.648l-.912-.24a13.614,13.614,0,0,1-.912,1.824l.444.144H20.148v-2.124h-.84V-7.92H17.88v-2.124h-.828V-7.92H15.576l.612-.228a8.271,8.271,0,0,0-1.02-1.764l-.756.252a9.354,9.354,0,0,1,.948,1.74H13.452v.768H16.38l-.42.084a5.039,5.039,0,0,1,.588,1.2H13.932v.732h4.212v.876H14.532v.684h3.612v.888H13.4v.756h3.924a11.565,11.565,0,0,1-4.236,1.9,3.821,3.821,0,0,1,.576.756,12.059,12.059,0,0,0,4.476-2.364V.912h.876V-1.7A11.328,11.328,0,0,0,23.532.756a3.209,3.209,0,0,1,.6-.792,10.979,10.979,0,0,1-4.284-1.9Z" transform="translate(510 1918)" fill="#111"/>
    <path id="Path_72958" data-name="Path 72958" d="M3.84-1.392H2.22v-3.54H3.84ZM.648-8.568h1.5A11.288,11.288,0,0,1,.432-3.936a4.711,4.711,0,0,1,.4.948,7.151,7.151,0,0,0,.636-.972V.372H2.22v-.96H4.632V-5.724H2.244a22.386,22.386,0,0,0,.744-2.844h1.86v-.816H.648ZM7.332-5.1V-8.544H9.276V-5.1Zm4.152,0H10.128V-8.544h1.116v-.84H5.5v.84H6.48V-5.1H5.16v.852H6.468A6.856,6.856,0,0,1,4.944.456a3.22,3.22,0,0,1,.672.516,7.516,7.516,0,0,0,1.7-5.22H9.276V.912h.852v-5.16h1.356Zm7.992-3.024v2.112c0,.876.24,1.116,1.284,1.116h1.68c.78,0,1.032-.276,1.128-1.368a2.467,2.467,0,0,1-.792-.336c-.024.792-.1.912-.42.912h-1.5c-.432,0-.5-.048-.5-.336v-2.1h2.46v1.236h.924V-8.94h-4.68v-1.1h-.9v1.1H13.572v2.148h.876V-8.124h2.244c-.216,1.6-.84,2.484-3.3,2.952a2.235,2.235,0,0,1,.456.708c2.748-.576,3.5-1.692,3.78-3.66Zm2.352,8.1c-.336,0-.384-.048-.384-.372V-3.768H18.3V-5.232h-.888v1.464H13.98v.828h3.336C17.064-1.824,16.14-.6,13.164.216a4.123,4.123,0,0,1,.6.732C17.088,0,18.024-1.512,18.24-2.94h2.28V-.4C20.52.588,20.784.84,21.7.84h1.248c.828,0,1.08-.456,1.164-2.268a2.554,2.554,0,0,1-.84-.384c-.036,1.56-.1,1.788-.42,1.788Zm7.98-8.82v.972H27.18v-.972ZM27.18-6.2V-7.236h2.628V-6.2Zm3.468.684V-9.528H26.3V.924h.876V-5.52Zm-.336,2.784v-1.3h1.68v1.3Zm4.1.756v-.756H32.784v-1.3h1.368v-.732H28.236v.732h1.3v1.3H28.008v.756h1.5a3.02,3.02,0,0,1-1.416,2.3,3.124,3.124,0,0,1,.588.528A3.849,3.849,0,0,0,30.288-1.98h1.7V.7h.792V-1.98Zm-1.86-4.212V-7.236H35.28v1.044ZM35.28-8.844v.972H32.556v-.972Zm.876-.684H31.7v4.02H35.28V-.252c0,.192-.06.264-.252.264S34.2.024,33.54,0a2.948,2.948,0,0,1,.288.888,5.573,5.573,0,0,0,1.86-.156c.348-.156.468-.444.468-.972ZM44.772-3.18H42.684V-4.968h2.088Zm2.3-1.788v-.456A7.634,7.634,0,0,0,48.792-4.38a4.128,4.128,0,0,1,.612-.744A7.8,7.8,0,0,1,47.16-6.516a17.794,17.794,0,0,0,1.884-1.56l-.672-.468A15.634,15.634,0,0,1,46.668-7a8.148,8.148,0,0,1-.78-.924A18.573,18.573,0,0,0,47.64-9.432l-.672-.48A14.029,14.029,0,0,1,45.492-8.5a8.783,8.783,0,0,1-.756-1.5l-.768.228A10.341,10.341,0,0,0,46.644-5.8H41a8.373,8.373,0,0,0,2.5-3.48l-.588-.288-.156.036h-3.42v.792h2.976A8.406,8.406,0,0,1,41.2-7.152a16.687,16.687,0,0,0-1.452-1.176l-.552.468a12.72,12.72,0,0,1,1.44,1.26A8.3,8.3,0,0,1,38.2-5.04a4.827,4.827,0,0,1,.552.672,9.833,9.833,0,0,0,1.788-1.056v.456H41.8V-3.18h-2.76v.828H41.7c-.216,1-.9,1.944-2.9,2.616a3.483,3.483,0,0,1,.564.708c2.352-.816,3.06-2.04,3.252-3.324h2.16v1.92c0,.984.264,1.248,1.272,1.248h1.572c.876,0,1.128-.42,1.212-1.944a2.459,2.459,0,0,1-.8-.372c-.048,1.284-.108,1.524-.48,1.524H46.176c-.408,0-.48-.072-.48-.444V-2.352H48.54V-3.18H45.7V-4.968Z" transform="translate(510 1878)" fill="#111"/>
    <path id="Path_72957" data-name="Path 72957" d="M4.02-9.624H1.068v.72H4.02Zm.336,1.572H.5v.732H4.356Zm-.312,1.62H1v.708H4.044ZM1-4.128H4.044v-.72H1Zm2.3,1.62v2H1.7v-2ZM4.044.216V-3.24H.984V.78H1.7V.216Zm2.244-5.88v.684H9.8v-.684H8.352V-6.816H9.624V-7.5H8.352V-8.532H7.62V-7.5H6.384v.684H7.62v1.152Zm2.58,2.292v1.716H7.14V-3.372Zm.684,2.4V-4.056h-3.1V-.5H7.14V-.972Zm1.56-8.568H4.956v4.272c0,1.764-.072,4.1-1.008,5.76a3.012,3.012,0,0,1,.7.492c1-1.752,1.128-4.392,1.128-6.252V-8.76H10.3V-.216c0,.2-.06.252-.24.252-.2.012-.828.024-1.464-.012A4.271,4.271,0,0,1,8.856.9,5.492,5.492,0,0,0,10.668.744c.336-.144.444-.432.444-.96ZM21.264-5.58H18.588l.42-.108a3.8,3.8,0,0,0-.564-1.188h2.988A10.519,10.519,0,0,1,20.9-5.688ZM17.652-6.744A4.5,4.5,0,0,1,18.18-5.58H16.392V-4.9h3.132v.8H16.848v.66h2.676v.888H16.248v.7h3.276V-.72h.888V-1.848h3.432v-.7H20.412v-.888h2.88v-.66h-2.88v-.8h3.36V-5.58H21.684c.2-.312.42-.732.648-1.152l-.516-.144H23.94V-7.56H20.412v-.9h2.7v-.672h-2.7v-.912h-.888v.912h-2.6v.672h2.6v.9h-3.4v.684H18.2ZM15.924-7.788a8.972,8.972,0,0,0-1.932-1.956l-.684.5a8.865,8.865,0,0,1,1.9,2Zm-.36,2.448H13.2v.84h1.524v3.072a19.752,19.752,0,0,1-1.656,1.38L13.536.8c.588-.516,1.14-1.02,1.668-1.536A4.188,4.188,0,0,0,18.6.684c1.344.06,3.876.036,5.22-.024a3.267,3.267,0,0,1,.288-.876c-1.44.1-4.2.132-5.52.072a3.473,3.473,0,0,1-3.024-1.344Zm14.364.78A1.265,1.265,0,0,0,31.2-3.288,1.265,1.265,0,0,0,32.472-4.56,1.265,1.265,0,0,0,31.2-5.832,1.265,1.265,0,0,0,29.928-4.56Zm17.16,2.976h-2.88v-.9h2.88Zm-2.88-2.448h2.88v.84h-2.88ZM40.74-6.156V-7.02h2.58v.864ZM46.9-7.02v.864H44.208V-7.02Zm2.316,3.828H47.976v-1.5H44.208v-.84h3.576V-7.644H44.208v-.7h4.776v-.732H44.208v-.96H43.32v.96H38.64v.732h4.68v.7H39.888v2.112H43.32v.84H39.552v.66H43.32v.84H38.412v.708H43.32v.9H39.444V-.9H43.32v.828c0,.2-.072.276-.3.288-.2,0-.924.012-1.644-.012a2.959,2.959,0,0,1,.312.756A7.165,7.165,0,0,0,43.68.816c.36-.132.528-.336.528-.888V-.9h2.88v.54h.888V-2.484h1.236ZM59.856-8.028A4.505,4.505,0,0,1,58.692-6.48a5.325,5.325,0,0,1-1.356-1.548Zm-4.8,5.208a10.39,10.39,0,0,0,.708-1.872,3.356,3.356,0,0,1,.324.468A9.379,9.379,0,0,0,58.7-5.448a8.614,8.614,0,0,0,2.724,1.272,3.957,3.957,0,0,1,.564-.768,7.958,7.958,0,0,1-2.6-1.044,5.572,5.572,0,0,0,1.44-2.04h.924v-.756H57.768a9.523,9.523,0,0,0,.552-1.032l-.852-.228a7.374,7.374,0,0,1-2.28,2.928,5.662,5.662,0,0,1,.732.516,9.574,9.574,0,0,0,.864-.852A6.843,6.843,0,0,0,58.02-5.988a7.951,7.951,0,0,1-2.148.924c.06-.216.12-.432.18-.636l-.54-.192-.132.048h-.888l.456-.516a6.893,6.893,0,0,0-1.008-.72A8.984,8.984,0,0,0,55.9-9.12l-.576-.36-.156.036H51.132v.78h3.4a8.441,8.441,0,0,1-1.26,1.188c-.384-.2-.792-.4-1.164-.552l-.552.576a12.247,12.247,0,0,1,2.664,1.608H51v.78h1.812A9.042,9.042,0,0,1,50.88-1.848a4.72,4.72,0,0,1,.468.828A9.611,9.611,0,0,0,53.1-3.972V-.12c0,.132-.048.168-.192.18s-.624,0-1.14-.012a3.277,3.277,0,0,1,.276.816,4.709,4.709,0,0,0,1.5-.132c.3-.156.4-.4.4-.852V-5.064h1.152a12.507,12.507,0,0,1-.648,1.932Zm3.624-.528c.072-.384.132-.78.168-1.188h-.9c-.036.408-.084.8-.156,1.188H55.728V-2.6H57.6A4.114,4.114,0,0,1,54.816.228a2.9,2.9,0,0,1,.528.684A4.868,4.868,0,0,0,58.524-2.6H60.54C60.36-.96,60.18-.288,59.952-.06a.508.508,0,0,1-.408.12c-.192,0-.672-.012-1.188-.06a2.333,2.333,0,0,1,.24.828A12.682,12.682,0,0,0,59.928.84a1.082,1.082,0,0,0,.744-.312c.348-.348.576-1.26.792-3.492.012-.144.024-.384.024-.384ZM66.228-10a13.528,13.528,0,0,1-2.964,4.764,6.224,6.224,0,0,1,.5.84,13.758,13.758,0,0,0,1.188-1.452V.9h.876V-7.212a18.816,18.816,0,0,0,1.212-2.532ZM69.66-.048c-.84,0-1-.156-1-.84V-5.112l1.752-.7V-1.74h.852v-4.4l1.872-.732a24.788,24.788,0,0,1-.132,3.456c-.072.312-.192.36-.408.36-.156,0-.588,0-.912-.024a2.7,2.7,0,0,1,.216.84,5.024,5.024,0,0,0,1.212-.084.937.937,0,0,0,.72-.876A36.564,36.564,0,0,0,73.98-7.6l.036-.156L73.4-8l-.156.132-.108.1-1.872.72V-10.02h-.852v3.288l-1.752.684V-8.856h-.876V-5.7l-1.512.588.348.78,1.164-.456v3.9c0,1.308.432,1.644,1.848,1.644h3.132c1.32,0,1.6-.528,1.752-2.172a2.581,2.581,0,0,1-.828-.372c-.108,1.416-.228,1.74-.96,1.74Z" transform="translate(510 1821)" fill="#111"/>
    <path id="Path_72956" data-name="Path 72956" d="M4.584-9.624H1.128v.72H4.584Zm.444,1.572H.5v.732H5.028Zm-1.2,5.544V-.492h-2V-2.508Zm.78-.732H1.044V.78h.78V.228H4.608Zm-3.54-.888H4.62v-.72H1.068Zm0-1.6H4.62v-.708H1.068ZM6.816-8.868H8.868v2.136c0,.852.216,1.08.948,1.08h.828c.636,0,.852-.348.924-1.752a1.981,1.981,0,0,1-.744-.324c-.024,1.152-.072,1.308-.288,1.308h-.6c-.192,0-.228-.048-.228-.312V-9.66H5.964v1.44A2.768,2.768,0,0,1,4.632-5.664a4.343,4.343,0,0,1,.648.588A3.517,3.517,0,0,0,6.816-8.208ZM10.272-4.92l-.156.036H5.184v.816H9.72a6.39,6.39,0,0,1-1.572,2.34A6.716,6.716,0,0,1,6.6-4.044l-.792.24a8.1,8.1,0,0,0,1.68,2.616A8.164,8.164,0,0,1,4.656.132a3.109,3.109,0,0,1,.48.78A9.184,9.184,0,0,0,8.148-.576,8.178,8.178,0,0,0,11,.9,3.821,3.821,0,0,1,11.58.144a7.619,7.619,0,0,1-2.76-1.3,7.787,7.787,0,0,0,2.028-3.54Zm7.116-4.7h-3.66v.72h3.66Zm.444,1.572H13.1v.732h4.728ZM16.548-2.508V-.492h-2.1V-2.508Zm.8-.732h-3.7V.78h.792V.228h2.9Zm-3.684-.888h3.72v-.72h-3.72Zm0-1.6h3.72v-.708h-3.72ZM24.2-5.964H21.516v-4.044h-.888v4.044H17.82v.876h2.808v6h.888v-6H24.2Z" transform="translate(745 1938)" fill="#111"/>
    <path id="Path_19139" data-name="Path 19139" d="M578,2013.968H519.9" transform="translate(-10 -128)" fill="none" stroke="#0288d1" stroke-width="1"/>
    <path id="Path_19143" data-name="Path 19143" d="M617,2013.968H519.9" transform="translate(-10 -184.969)" fill="none" stroke="#0288d1" stroke-width="1"/>
    <path id="Path_19142" data-name="Path 19142" d="M600,2013.968H519.9" transform="translate(-10 -88)" fill="none" stroke="#0288d1" stroke-width="1"/>
    <path id="Path_19140" data-name="Path 19140" d="M607.021,2013.968H519.9" transform="translate(163 -163)" fill="none" stroke="#0288d1" stroke-width="1"/>
    <path id="Path_19141" data-name="Path 19141" d="M623.021,2013.968H519.9" transform="translate(146.979 -67.969)" fill="none" stroke="#0288d1" stroke-width="1"/>
    <g id="Group_17996" data-name="Group 17996" transform="translate(568 1814)">
      <g id="Group_17996-2" data-name="Group 17996" clip-path="url(#clip-path)">
        <path id="Path_19134" data-name="Path 19134" d="M72.041,71.958,3.6,49.722C13.429,19.484,40.248,0,72.041,0Z" fill="#57b1e4"/>
        <path id="Path_19135" data-name="Path 19135" d="M72.041,71.958,2.534,90.582A70.05,70.05,0,0,1,3.6,49.722Z" fill="#00a299"/>
        <path id="Path_19136" data-name="Path 19136" d="M72.041,71.958,26.756,127.88a68.95,68.95,0,0,1-24.222-37.3Z" fill="#badd7a"/>
        <path id="Path_19137" data-name="Path 19137" d="M72.041,71.958,139.22,97.746a71.959,71.959,0,0,1-92.967,41.391,68.4,68.4,0,0,1-19.5-11.257Z" fill="#607c93"/>
        <path id="Path_19138" data-name="Path 19138" d="M72.041,71.958V0A71.959,71.959,0,0,1,144,71.958a66.613,66.613,0,0,1-4.78,25.788Z" fill="#0088d6"/>
      </g>
    </g>
    <g id="Group_58444" data-name="Group 58444">
      <path id="Path_72970" data-name="Path 72970" d="M-4.424-4.56C-2.68-4.56-1.4-5.984-1.4-8.368s-1.28-3.76-3.024-3.76-3.008,1.376-3.008,3.76S-6.168-4.56-4.424-4.56Zm0-1.568c-.56,0-1.04-.576-1.04-2.24s.48-2.192,1.04-2.192,1.04.528,1.04,2.192S-3.864-6.128-4.424-6.128ZM-4.008.224h1.616L4.04-12.128H2.408Zm8.448,0C6.168.224,7.448-1.2,7.448-3.584S6.168-7.36,4.44-7.36,1.432-5.968,1.432-3.584,2.712.224,4.44.224Zm0-1.584c-.56,0-1.056-.56-1.056-2.224,0-1.68.5-2.192,1.056-2.192s1.024.512,1.024,2.192C5.464-1.92,5-1.36,4.44-1.36Z" transform="translate(670.411 1935)" fill="#fff"/>
      <path id="Path_72969" data-name="Path 72969" d="M-10.093-12.554h2.007a1.875,1.875,0,0,0,1.677-.8,3.775,3.775,0,0,0,.535-2.131,3.177,3.177,0,0,0-.549-1.985,1.766,1.766,0,0,0-1.472-.71,1.741,1.741,0,0,0-1.414.674,2.6,2.6,0,0,0-.549,1.7H-14a5.86,5.86,0,0,1,.769-3,5.4,5.4,0,0,1,2.153-2.073,6.357,6.357,0,0,1,3.069-.747A6.334,6.334,0,0,1-3.4-20a5.928,5.928,0,0,1,1.67,4.453,5.071,5.071,0,0,1-.754,2.688,5.137,5.137,0,0,1-1.985,1.9A4.562,4.562,0,0,1-2.219-9.023a6.018,6.018,0,0,1,.74,3.047A5.981,5.981,0,0,1-3.289-1.421,6.628,6.628,0,0,1-8.042.293,6.042,6.042,0,0,1-12.488-1.4a5.983,5.983,0,0,1-1.707-4.446h4.146a3.042,3.042,0,0,0,.6,1.919,1.848,1.848,0,0,0,1.523.776A2.038,2.038,0,0,0-6.233-3.94,3.317,3.317,0,0,0-5.61-6.05q0-3.149-2.446-3.164h-2.036ZM13.784-8.818q0,4.424-1.6,6.768A5.217,5.217,0,0,1,7.6.293,5.235,5.235,0,0,1,3.054-1.985,11.537,11.537,0,0,1,1.392-8.511v-4.028q0-4.409,1.6-6.746a5.217,5.217,0,0,1,4.585-2.336,5.232,5.232,0,0,1,4.585,2.314A11.71,11.71,0,0,1,13.784-12.7ZM9.624-13.14a10.856,10.856,0,0,0-.5-3.779,1.66,1.66,0,0,0-1.553-1.26q-1.978,0-2.051,4.614v5.317a10.933,10.933,0,0,0,.505,3.838A1.68,1.68,0,0,0,7.6-3.149,1.607,1.607,0,0,0,9.1-4.329a10.288,10.288,0,0,0,.52-3.611Z" transform="translate(645.194 1938)" fill="#fff"/>
    </g>
    <g id="Group_58443" data-name="Group 58443">
      <path id="Path_72967" data-name="Path 72967" d="M-4.424-4.56C-2.68-4.56-1.4-5.984-1.4-8.368s-1.28-3.76-3.024-3.76-3.008,1.376-3.008,3.76S-6.168-4.56-4.424-4.56Zm0-1.568c-.56,0-1.04-.576-1.04-2.24s.48-2.192,1.04-2.192,1.04.528,1.04,2.192S-3.864-6.128-4.424-6.128ZM-4.008.224h1.616L4.04-12.128H2.408Zm8.448,0C6.168.224,7.448-1.2,7.448-3.584S6.168-7.36,4.44-7.36,1.432-5.968,1.432-3.584,2.712.224,4.44.224Zm0-1.584c-.56,0-1.056-.56-1.056-2.224,0-1.68.5-2.192,1.056-2.192s1.024.512,1.024,2.192C5.464-1.92,5-1.36,4.44-1.36Z" transform="translate(694.144 1870)" fill="#fff"/>
      <path id="Path_72968" data-name="Path 72968" d="M-10.093-12.554h2.007a1.875,1.875,0,0,0,1.677-.8,3.775,3.775,0,0,0,.535-2.131,3.177,3.177,0,0,0-.549-1.985,1.766,1.766,0,0,0-1.472-.71,1.741,1.741,0,0,0-1.414.674,2.6,2.6,0,0,0-.549,1.7H-14a5.86,5.86,0,0,1,.769-3,5.4,5.4,0,0,1,2.153-2.073,6.357,6.357,0,0,1,3.069-.747A6.334,6.334,0,0,1-3.4-20a5.928,5.928,0,0,1,1.67,4.453,5.071,5.071,0,0,1-.754,2.688,5.137,5.137,0,0,1-1.985,1.9A4.562,4.562,0,0,1-2.219-9.023a6.018,6.018,0,0,1,.74,3.047A5.981,5.981,0,0,1-3.289-1.421,6.628,6.628,0,0,1-8.042.293,6.042,6.042,0,0,1-12.488-1.4a5.983,5.983,0,0,1-1.707-4.446h4.146a3.042,3.042,0,0,0,.6,1.919,1.848,1.848,0,0,0,1.523.776A2.038,2.038,0,0,0-6.233-3.94,3.317,3.317,0,0,0-5.61-6.05q0-3.149-2.446-3.164h-2.036ZM10.518,0H6.357V-16.289L2.3-14.722v-3.457l7.778-3.179h.439Z" transform="translate(669.194 1873)" fill="#fff"/>
    </g>
    <g id="Group_58442" data-name="Group 58442">
      <path id="Path_72966" data-name="Path 72966" d="M-4.424-4.56C-2.68-4.56-1.4-5.984-1.4-8.368s-1.28-3.76-3.024-3.76-3.008,1.376-3.008,3.76S-6.168-4.56-4.424-4.56Zm0-1.568c-.56,0-1.04-.576-1.04-2.24s.48-2.192,1.04-2.192,1.04.528,1.04,2.192S-3.864-6.128-4.424-6.128ZM-4.008.224h1.616L4.04-12.128H2.408Zm8.448,0C6.168.224,7.448-1.2,7.448-3.584S6.168-7.36,4.44-7.36,1.432-5.968,1.432-3.584,2.712.224,4.44.224Zm0-1.584c-.56,0-1.056-.56-1.056-2.224,0-1.68.5-2.192,1.056-2.192s1.024.512,1.024,2.192C5.464-1.92,5-1.36,4.44-1.36Z" transform="translate(619.092 1919)" fill="#fff"/>
      <path id="Path_72965" data-name="Path 72965" d="M-4.658,0h-4.16V-16.289l-4.058,1.567v-3.457L-5.1-21.357h.439ZM13.784-8.818q0,4.424-1.6,6.768A5.217,5.217,0,0,1,7.6.293,5.235,5.235,0,0,1,3.054-1.985,11.537,11.537,0,0,1,1.392-8.511v-4.028q0-4.409,1.6-6.746a5.217,5.217,0,0,1,4.585-2.336,5.232,5.232,0,0,1,4.585,2.314A11.71,11.71,0,0,1,13.784-12.7ZM9.624-13.14a10.856,10.856,0,0,0-.5-3.779,1.66,1.66,0,0,0-1.553-1.26q-1.978,0-2.051,4.614v5.317a10.933,10.933,0,0,0,.505,3.838A1.68,1.68,0,0,0,7.6-3.149,1.607,1.607,0,0,0,9.1-4.329a10.288,10.288,0,0,0,.52-3.611Z" transform="translate(593.876 1923)" fill="#fff"/>
    </g>
    <g id="Group_58441" data-name="Group 58441">
      <path id="Path_72964" data-name="Path 72964" d="M-4.424-4.56C-2.68-4.56-1.4-5.984-1.4-8.368s-1.28-3.76-3.024-3.76-3.008,1.376-3.008,3.76S-6.168-4.56-4.424-4.56Zm0-1.568c-.56,0-1.04-.576-1.04-2.24s.48-2.192,1.04-2.192,1.04.528,1.04,2.192S-3.864-6.128-4.424-6.128ZM-4.008.224h1.616L4.04-12.128H2.408Zm8.448,0C6.168.224,7.448-1.2,7.448-3.584S6.168-7.36,4.44-7.36,1.432-5.968,1.432-3.584,2.712.224,4.44.224Zm0-1.584c-.56,0-1.056-.56-1.056-2.224,0-1.68.5-2.192,1.056-2.192s1.024.512,1.024,2.192C5.464-1.92,5-1.36,4.44-1.36Z" transform="translate(598.751 1892)" fill="#fff"/>
      <path id="Path_72963" data-name="Path 72963" d="M1.846-8.247A3.979,3.979,0,0,1-1.04-6.9,4.459,4.459,0,0,1-4.871-8.855a8.8,8.8,0,0,1-1.4-5.222,9.265,9.265,0,0,1,.791-3.86,6.381,6.381,0,0,1,2.2-2.717,5.466,5.466,0,0,1,3.157-.967,5.16,5.16,0,0,1,3.208,1.069,6.852,6.852,0,0,1,2.183,3.069,12.494,12.494,0,0,1,.776,4.548v1.509q0,5.449-2.4,8.518A8.261,8.261,0,0,1-3.135.22H-3.56V-3.354h.278A4.953,4.953,0,0,0,.374-4.614,5.892,5.892,0,0,0,1.846-8.247Zm-1.831-1.9q1.2,0,1.89-1.641v-1.9a7.752,7.752,0,0,0-.571-3.289Q.762-18.179-.146-18.179T-1.589-17a6.787,6.787,0,0,0-.549,2.878,6.184,6.184,0,0,0,.571,2.908A1.747,1.747,0,0,0,.015-10.151Z" transform="translate(581.27 1895)" fill="#fff"/>
    </g>
    <g id="Group_58440" data-name="Group 58440">
      <path id="Path_72962" data-name="Path 72962" d="M-4.424-4.56C-2.68-4.56-1.4-5.984-1.4-8.368s-1.28-3.76-3.024-3.76-3.008,1.376-3.008,3.76S-6.168-4.56-4.424-4.56Zm0-1.568c-.56,0-1.04-.576-1.04-2.24s.48-2.192,1.04-2.192,1.04.528,1.04,2.192S-3.864-6.128-4.424-6.128ZM-4.008.224h1.616L4.04-12.128H2.408Zm8.448,0C6.168.224,7.448-1.2,7.448-3.584S6.168-7.36,4.44-7.36,1.432-5.968,1.432-3.584,2.712.224,4.44.224Zm0-1.584c-.56,0-1.056-.56-1.056-2.224,0-1.68.5-2.192,1.056-2.192s1.024.512,1.024,2.192C5.464-1.92,5-1.36,4.44-1.36Z" transform="translate(630.352 1855)" fill="#fff"/>
      <path id="Path_72961" data-name="Path 72961" d="M-1.216,0H-13.784V-2.93l5.771-7.339a16.077,16.077,0,0,0,1.619-2.673,5.346,5.346,0,0,0,.52-2.2,4.278,4.278,0,0,0-.491-2.227,1.562,1.562,0,0,0-1.414-.806,1.818,1.818,0,0,0-1.6.938A4.928,4.928,0,0,0-9.976-14.6h-4.16a7.911,7.911,0,0,1,.813-3.589,6.071,6.071,0,0,1,2.285-2.527,6.256,6.256,0,0,1,3.333-.9,5.991,5.991,0,0,1,4.431,1.575A6.053,6.053,0,0,1-1.7-15.571a8.539,8.539,0,0,1-.872,3.655A22.472,22.472,0,0,1-5.728-7.354L-8.467-3.442h7.251Zm15-8.818q0,4.424-1.6,6.768A5.217,5.217,0,0,1,7.6.293,5.235,5.235,0,0,1,3.054-1.985,11.537,11.537,0,0,1,1.392-8.511v-4.028q0-4.409,1.6-6.746a5.217,5.217,0,0,1,4.585-2.336,5.232,5.232,0,0,1,4.585,2.314A11.71,11.71,0,0,1,13.784-12.7ZM9.624-13.14a10.856,10.856,0,0,0-.5-3.779,1.66,1.66,0,0,0-1.553-1.26q-1.978,0-2.051,4.614v5.317a10.933,10.933,0,0,0,.505,3.838A1.68,1.68,0,0,0,7.6-3.149,1.607,1.607,0,0,0,9.1-4.329a10.288,10.288,0,0,0,.52-3.611Z" transform="translate(605.136 1858)" fill="#fff"/>
    </g>
  </g>
</svg>
