<svg xmlns="http://www.w3.org/2000/svg" xmlns:xlink="http://www.w3.org/1999/xlink" width="550" height="318.925" viewBox="0 0 550 318.925">
  <defs>
    <clipPath id="clip-path">
      <rect id="Rectangle_17690" data-name="Rectangle 17690" width="317.882" height="312.048" fill="none"/>
    </clipPath>
  </defs>
  <g id="Group_58302" data-name="Group 58302" transform="translate(-99.893 -3882.223)">
    <path id="Path_72981" data-name="Path 72981" d="M22.6-20.675H20.9v10.35c0,.3-.125.4-.45.425-.4.025-1.6.025-2.95-.025a5.3,5.3,0,0,1,.575,1.55,11.784,11.784,0,0,0,3.6-.275c.725-.275.925-.725.925-1.675Zm-5.7.725H15.225v8.35H16.9ZM6.975-13.625H2.6v4.65H4.1v-3.4H6.975v4.05h1.6v-4.05h3.05V-10.6c0,.2-.05.275-.275.275-.225.025-.85.025-1.675,0a5.546,5.546,0,0,1,.5,1.2,6.442,6.442,0,0,0,2.35-.225c.55-.2.625-.55.625-1.25v-3.025H8.575V-14.95H13.9V-16.3H8.575v-1.55h4.45v-1.3H8.575v-1.775h-1.6v1.775h-2.3c.175-.45.375-.875.525-1.325l-1.475-.35A11.09,11.09,0,0,1,1.75-17.05a11.217,11.217,0,0,1,1.325.725,10.7,10.7,0,0,0,.95-1.525h2.95v1.55h-5.6v1.35h5.6Zm14,8a33.19,33.19,0,0,1-4.625,2.7,11.58,11.58,0,0,1-2.25-2.9h9.45v-1.55H13.425V-8.85h-1.85v1.475H1.475v1.55H10.15A28.893,28.893,0,0,1,1.05-2.6,5.969,5.969,0,0,1,2.075-1.225a33.031,33.031,0,0,0,4.975-1.5V-.2Q5.625.025,4.5.175l.3,1.55,9.85-1.6-.1-1.5c-1.95.3-3.925.625-5.725.9V-3.5A21.684,21.684,0,0,0,12.45-5.65c1.9,4.025,5.375,6.575,10.45,7.6A6.234,6.234,0,0,1,23.95.45,15.378,15.378,0,0,1,17.55-2a31.8,31.8,0,0,0,4.775-2.65ZM41-16.175V-13H33.925v1.625h15.95V-13h-7.05v-3.175H48.8V-17.8H42.825v-3.1H41v3.1H38.1a21.749,21.749,0,0,0,1-2.375l-1.75-.4a15.309,15.309,0,0,1-3.625,6.125,9.087,9.087,0,0,1,1.6.9,17.353,17.353,0,0,0,1.9-2.625ZM37.975-7.9H46.2v3.975H37.975Zm10.1,5.5V-9.425H36.15V-2.4ZM33.55-16.45A19.024,19.024,0,0,0,29.2-20.3l-1.375,1.1a17.3,17.3,0,0,1,4.25,3.975Zm-.7,5.325h-5.3v1.75h3.475V-3.05a41.746,41.746,0,0,1-3.8,2.85l1,1.875C29.55.6,30.8-.475,32-1.525,33.6.4,35.825,1.3,39.075,1.425c2.75.1,7.875.05,10.6-.05a8.459,8.459,0,0,1,.6-1.9c-2.925.2-8.475.275-11.2.175-2.875-.125-5.05-.975-6.225-2.8Z" transform="translate(596.893 3950.148)" fill="#111"/>
    <path id="Path_72980" data-name="Path 72980" d="M19.35-.675H6.075v-3.4H19.35ZM7.8-12.025h9.625V-9.15H7.8ZM19.225-7.7v-5.775H6.05V-7.7h5.1c-.15.65-.375,1.375-.55,2H4.325V1.925h1.75V.975H19.35V1.9h1.825V-5.7h-8.8c.275-.625.55-1.3.8-2ZM19-16.975a38.7,38.7,0,0,0,2.425-3.075L19.5-20.7a24.1,24.1,0,0,1-2.55,3.725H12.4l1.225-.475a16.6,16.6,0,0,0-1.95-3.5l-1.625.55a18.563,18.563,0,0,1,1.85,3.425H7.025l.75-.35a15.535,15.535,0,0,0-2.325-3.25l-1.575.7a20.365,20.365,0,0,1,2.025,2.9H2.375V-12.1H4.1v-3.275H21.15V-12.1h1.775v-4.875ZM42.475-14.9A22.854,22.854,0,0,1,41.2-12.3l.25.075H35.575l.8-.175a9.714,9.714,0,0,0-1.25-2.5ZM49.65-4.025V-5.6H39.625V-7.45H47.45V-8.875H39.625V-10.7h9.05v-1.525H43c.5-.75,1.05-1.725,1.55-2.675h5v-1.6H45.675a34.958,34.958,0,0,0,2.2-3.6l-1.9-.5a28.363,28.363,0,0,1-1.9,3.8l.925.3H41.975v-4.425h-1.75V-16.5H37.25v-4.425H35.525V-16.5H32.45l1.275-.475A17.232,17.232,0,0,0,31.6-20.65l-1.575.525A19.487,19.487,0,0,1,32-16.5H28.025v1.6h6.1l-.875.175a10.5,10.5,0,0,1,1.225,2.5h-5.45V-10.7H37.8v1.825H30.275V-7.45H37.8V-5.6H27.925v1.575H36.1a24.094,24.094,0,0,1-8.825,3.95,7.961,7.961,0,0,1,1.2,1.575A25.123,25.123,0,0,0,37.8-3.425V1.9h1.825V-3.55a23.6,23.6,0,0,0,9.4,5.125,6.685,6.685,0,0,1,1.25-1.65,22.873,22.873,0,0,1-8.925-3.95Z" transform="translate(100.077 4113.147)" fill="#111"/>
    <path id="Path_72979" data-name="Path 72979" d="M8-2.9H4.625v-7.375H8ZM1.35-17.85H4.475C3.8-14.05,2.65-10.55.9-8.2a9.815,9.815,0,0,1,.825,1.975A14.9,14.9,0,0,0,3.05-8.25V.775H4.625v-2H9.65v-10.7H4.675a46.638,46.638,0,0,0,1.55-5.925H10.1v-1.7H1.35Zm13.925,7.225V-17.8h4.05v7.175Zm8.65,0H21.1V-17.8h2.325v-1.75H11.45v1.75H13.5v7.175H10.75V-8.85h2.725C13.4-5.5,12.85-1.725,10.3.95a6.709,6.709,0,0,1,1.4,1.075C14.525-.9,15.175-5.05,15.25-8.85h4.075V1.9H21.1V-8.85h2.825Zm16.65-6.3v4.4c0,1.825.5,2.325,2.675,2.325h3.5c1.625,0,2.15-.575,2.35-2.85a5.139,5.139,0,0,1-1.65-.7c-.05,1.65-.2,1.9-.875,1.9H43.45c-.9,0-1.05-.1-1.05-.7v-4.375h5.125v2.575H49.45v-4.275H39.7v-2.3H37.825v2.3h-9.55v4.475H30.1v-2.775h4.675c-.45,3.325-1.75,5.175-6.875,6.15A4.657,4.657,0,0,1,28.85-9.3c5.725-1.2,7.3-3.525,7.875-7.625ZM45.475-.05c-.7,0-.8-.1-.8-.775V-7.85h-6.55V-10.9h-1.85v3.05h-7.15v1.725h6.95C35.55-3.8,33.625-1.25,27.425.45a8.59,8.59,0,0,1,1.25,1.525C35.6,0,37.55-3.15,38-6.125h4.75v5.3c0,2.05.55,2.575,2.45,2.575h2.6c1.725,0,2.25-.95,2.425-4.725a5.32,5.32,0,0,1-1.75-.8C48.4-.525,48.275-.05,47.6-.05ZM62.1-18.425V-16.4H56.625v-2.025Zm-5.475,5.5v-2.15H62.1v2.15ZM63.85-11.5v-8.35H54.8V1.925h1.825V-11.5Zm-.7,5.8V-8.4h3.5v2.7ZM71.7-4.125V-5.7H68.3V-8.4h2.85V-9.925H58.825V-8.4h2.7v2.7H58.35v1.575h3.125a6.292,6.292,0,0,1-2.95,4.8,6.509,6.509,0,0,1,1.225,1.1,8.018,8.018,0,0,0,3.35-5.9h3.55V1.45H68.3V-4.125ZM67.825-12.9v-2.175H73.5V-12.9ZM73.5-18.425V-16.4H67.825v-2.025Zm1.825-1.425H66.05v8.375H73.5V-.525c0,.4-.125.55-.525.55C72.6.05,71.25.05,69.875,0a6.142,6.142,0,0,1,.6,1.85,11.61,11.61,0,0,0,3.875-.325c.725-.325.975-.925.975-2.025ZM93.275-6.625h-4.35V-10.35h4.35Zm4.8-3.725v-.95a15.9,15.9,0,0,0,3.575,2.175,8.6,8.6,0,0,1,1.275-1.55,16.245,16.245,0,0,1-4.675-2.9,37.072,37.072,0,0,0,3.925-3.25l-1.4-.975a32.572,32.572,0,0,1-3.55,3.225A16.975,16.975,0,0,1,95.6-16.5a38.694,38.694,0,0,0,3.65-3.15l-1.4-1a29.229,29.229,0,0,1-3.075,2.95A18.3,18.3,0,0,1,93.2-20.825l-1.6.475a21.544,21.544,0,0,0,5.575,8.275H85.425a17.444,17.444,0,0,0,5.2-7.25l-1.225-.6-.325.075H81.95v1.65h6.2a17.512,17.512,0,0,1-2.325,3.3A34.763,34.763,0,0,0,82.8-17.35l-1.15.975a26.5,26.5,0,0,1,3,2.625,17.29,17.29,0,0,1-5.075,3.25,10.056,10.056,0,0,1,1.15,1.4,20.484,20.484,0,0,0,3.725-2.2v.95h2.625v3.725h-5.75V-4.9h5.55C86.425-2.825,85-.85,80.825.55A7.255,7.255,0,0,1,82,2.025c4.9-1.7,6.375-4.25,6.775-6.925h4.5v4c0,2.05.55,2.6,2.65,2.6H99.2c1.825,0,2.35-.875,2.525-4.05a5.122,5.122,0,0,1-1.675-.775C99.95-.45,99.825.05,99.05.05H96.2c-.85,0-1-.15-1-.925V-4.9h5.925V-6.625H95.2V-10.35Z" transform="translate(100.077 4026.148)" fill="#111"/>
    <path id="Path_72978" data-name="Path 72978" d="M8.375-20.05H2.225v1.5h6.15Zm.7,3.275H1.05v1.525H9.075ZM8.425-13.4H2.075v1.475h6.35ZM2.075-8.6h6.35v-1.5H2.075Zm4.8,3.375V-1.05H3.55V-5.225ZM8.425.45v-7.2H2.05V1.625h1.5V.45ZM13.1-11.8v1.425h7.325V-11.8H17.4v-2.4h2.65v-1.425H17.4v-2.15H15.875v2.15H13.3V-14.2h2.575v2.4Zm5.375,4.775V-3.45h-3.6V-7.025Zm1.425,5V-8.45H13.45v7.4h1.425v-.975Zm3.25-17.85H10.325v8.9c0,3.675-.15,8.55-2.1,12A6.274,6.274,0,0,1,9.675,2.05c2.075-3.65,2.35-9.15,2.35-13.025V-18.25H21.45V-.45c0,.425-.125.525-.5.525C20.525.1,19.225.125,17.9.05a8.9,8.9,0,0,1,.55,1.825,11.441,11.441,0,0,0,3.775-.325c.7-.3.925-.9.925-2Zm21.15,8.25H38.725l.875-.225a7.92,7.92,0,0,0-1.175-2.475H44.65a21.914,21.914,0,0,1-1.1,2.475ZM36.775-14.05a9.385,9.385,0,0,1,1.1,2.425H34.15V-10.2h6.525v1.675H35.1V-7.15h5.575V-5.3H33.85v1.45h6.825V-1.5h1.85V-3.85h7.15V-5.3h-7.15V-7.15h6V-8.525h-6V-10.2h7v-1.425h-4.35c.425-.65.875-1.525,1.35-2.4l-1.075-.3h4.425V-15.75h-7.35v-1.875H48.15v-1.4H42.525v-1.9h-1.85v1.9H35.25v1.4h5.425v1.875H33.6v1.425h4.325Zm-3.6-2.175A18.691,18.691,0,0,0,29.15-20.3l-1.425,1.05a18.469,18.469,0,0,1,3.95,4.175Zm-.75,5.1H27.5v1.75h3.175v6.4A41.149,41.149,0,0,1,27.225-.1L28.2,1.675C29.425.6,30.575-.45,31.675-1.525c1.55,1.95,3.8,2.825,7.075,2.95,2.8.125,8.075.075,10.875-.05a6.805,6.805,0,0,1,.6-1.825c-3,.2-8.75.275-11.5.15-2.925-.1-5.125-.95-6.3-2.8ZM62.35-9.5A2.635,2.635,0,0,0,65-6.85,2.635,2.635,0,0,0,67.65-9.5,2.635,2.635,0,0,0,65-12.15,2.635,2.635,0,0,0,62.35-9.5ZM98.1-3.3h-6V-5.175h6Zm-6-5.1h6v1.75h-6Zm-7.225-4.425v-1.8H90.25v1.8Zm12.825-1.8v1.8H92.1v-1.8Zm4.825,7.975H99.95V-9.775H92.1v-1.75h7.45v-4.4H92.1v-1.45h9.95V-18.9H92.1v-2H90.25v2H80.5v1.525h9.75v1.45H83.1v4.4h7.15v1.75H82.4V-8.4h7.85v1.75H80.025v1.475H90.25V-3.3H82.175v1.425H90.25V-.15c0,.425-.15.575-.625.6C89.2.45,87.7.475,86.2.425A6.165,6.165,0,0,1,86.85,2,14.927,14.927,0,0,0,91,1.7c.75-.275,1.1-.7,1.1-1.85V-1.875h6V-.75h1.85V-5.175h2.575ZM124.7-16.725a9.386,9.386,0,0,1-2.425,3.225,11.094,11.094,0,0,1-2.825-3.225Zm-10,10.85a21.647,21.647,0,0,0,1.475-3.9,6.993,6.993,0,0,1,.675.975,19.539,19.539,0,0,0,5.45-2.55,17.945,17.945,0,0,0,5.675,2.65,8.243,8.243,0,0,1,1.175-1.6,16.58,16.58,0,0,1-5.425-2.175,11.608,11.608,0,0,0,3-4.25h1.925V-18.3h-8.3a19.839,19.839,0,0,0,1.15-2.15l-1.775-.475a15.363,15.363,0,0,1-4.75,6.1A11.8,11.8,0,0,1,116.5-13.75a19.946,19.946,0,0,0,1.8-1.775,14.256,14.256,0,0,0,2.575,3.05A16.564,16.564,0,0,1,116.4-10.55c.125-.45.25-.9.375-1.325l-1.125-.4-.275.1h-1.85l.95-1.075a14.361,14.361,0,0,0-2.1-1.5A18.716,18.716,0,0,0,116.45-19l-1.2-.75-.325.075h-8.4v1.625H113.6a17.585,17.585,0,0,1-2.625,2.475c-.8-.425-1.65-.825-2.425-1.15l-1.15,1.2a25.514,25.514,0,0,1,5.55,3.35h-6.7v1.625h3.775A18.837,18.837,0,0,1,106-3.85a9.834,9.834,0,0,1,.975,1.725,20.022,20.022,0,0,0,3.65-6.15V-.25c0,.275-.1.35-.4.375-.325,0-1.3,0-2.375-.025a6.827,6.827,0,0,1,.575,1.7,9.81,9.81,0,0,0,3.125-.275c.625-.325.825-.825.825-1.775v-10.3h2.4a26.057,26.057,0,0,1-1.35,4.025Zm7.55-1.1c.15-.8.275-1.625.35-2.475h-1.875c-.075.85-.175,1.675-.325,2.475h-4.3v1.55H120a8.57,8.57,0,0,1-5.8,5.9A6.04,6.04,0,0,1,115.3,1.9a10.143,10.143,0,0,0,6.625-7.325h4.2C125.75-2,125.375-.6,124.9-.125a1.058,1.058,0,0,1-.85.25c-.4,0-1.4-.025-2.475-.125a4.861,4.861,0,0,1,.5,1.725,26.421,26.421,0,0,0,2.775.025,2.255,2.255,0,0,0,1.55-.65c.725-.725,1.2-2.625,1.65-7.275.025-.3.05-.8.05-.8Zm15.725-13.85A28.184,28.184,0,0,1,131.8-10.9a12.967,12.967,0,0,1,1.05,1.75,28.663,28.663,0,0,0,2.475-3.025V1.875h1.825v-16.9a39.2,39.2,0,0,0,2.525-5.275ZM145.125-.1c-1.75,0-2.075-.325-2.075-1.75v-8.8l3.65-1.45v8.475h1.775V-12.8l3.9-1.525a51.641,51.641,0,0,1-.275,7.2c-.15.65-.4.75-.85.75-.325,0-1.225,0-1.9-.05a5.633,5.633,0,0,1,.45,1.75,10.467,10.467,0,0,0,2.525-.175,1.953,1.953,0,0,0,1.5-1.825,76.176,76.176,0,0,0,.3-9.15l.075-.325-1.275-.525-.325.275-.225.2-3.9,1.5v-6.175H146.7v6.85L143.05-12.6v-5.85h-1.825v6.575l-3.15,1.225.725,1.625,2.425-.95V-1.85c0,2.725.9,3.425,3.85,3.425H151.6c2.75,0,3.325-1.1,3.65-4.525a5.378,5.378,0,0,1-1.725-.775c-.225,2.95-.475,3.625-2,3.625Z" transform="translate(100.077 3903.148)" fill="#111"/>
    <path id="Path_72977" data-name="Path 72977" d="M9.55-20.05H2.35v1.5h7.2Zm.925,3.275H1.05v1.525h9.425Zm-2.5,11.55v4.2H3.8v-4.2ZM9.6-6.75H2.175V1.625H3.8V.475H9.6ZM2.225-8.6h7.4v-1.5h-7.4Zm0-3.325h7.4V-13.4h-7.4ZM14.2-18.475h4.275v4.45c0,1.775.45,2.25,1.975,2.25h1.725c1.325,0,1.775-.725,1.925-3.65a4.127,4.127,0,0,1-1.55-.675c-.05,2.4-.15,2.725-.6,2.725H20.7c-.4,0-.475-.1-.475-.65v-6.1h-7.8v3A5.766,5.766,0,0,1,9.65-11.8,9.047,9.047,0,0,1,11-10.575,7.327,7.327,0,0,0,14.2-17.1Zm7.2,8.225-.325.075H10.8v1.7h9.45A13.313,13.313,0,0,1,16.975-3.6,13.991,13.991,0,0,1,13.75-8.425l-1.65.5a16.868,16.868,0,0,0,3.5,5.45A17.007,17.007,0,0,1,9.7.275a6.478,6.478,0,0,1,1,1.625,19.133,19.133,0,0,0,6.275-3.1,17.038,17.038,0,0,0,5.95,3.075A7.961,7.961,0,0,1,24.125.3a15.873,15.873,0,0,1-5.75-2.7A16.223,16.223,0,0,0,22.6-9.775Zm14.825-9.8H28.6v1.5h7.625Zm.925,3.275H27.3v1.525h9.85ZM34.475-5.225v4.2H30.1v-4.2ZM36.15-6.75h-7.7V1.625H30.1V.475h6.05ZM28.475-8.6h7.75v-1.5h-7.75Zm0-3.325h7.75V-13.4h-7.75Zm21.95-.5h-5.6V-20.85h-1.85v8.425h-5.85V-10.6h5.85V1.9h1.85V-10.6h5.6Z" transform="translate(596.893 4157.147)" fill="#111"/>
    <path id="Path_65558" data-name="Path 65558" d="M648.153,2013.968H519.9" transform="translate(-420.01 2031.153)" fill="none" stroke="#0288d1" stroke-width="1"/>
    <path id="Path_65559" data-name="Path 65559" d="M734.245,2013.968H519.9" transform="translate(-420.01 1907.663)" fill="none" stroke="#0288d1" stroke-width="1"/>
    <path id="Path_65560" data-name="Path 65560" d="M696.718,2013.968H519.9" transform="translate(-420.01 2117.873)" fill="none" stroke="#0288d1" stroke-width="1"/>
    <path id="Path_65561" data-name="Path 65561" d="M712.218,2013.968H519.9" transform="translate(-62.645 1955.273)" fill="none" stroke="#0288d1" stroke-width="1"/>
    <path id="Path_65562" data-name="Path 65562" d="M747.538,2013.968H519.9" transform="translate(-97.645 2161.294)" fill="none" stroke="#0288d1" stroke-width="1"/>
    <g id="Group_58296" data-name="Group 58296" transform="translate(216.074 3889.099)">
      <g id="Group_17996" data-name="Group 17996" clip-path="url(#clip-path)">
        <path id="Path_19134" data-name="Path 19134" d="M154.68,156,3.6,107.8C25.293,42.242,84.5,0,154.68,0Z" transform="translate(4.352 -0.001)" fill="#57b1e4"/>
        <path id="Path_19135" data-name="Path 19135" d="M159.032,97.929,5.595,138.305A149.269,149.269,0,0,1,7.957,49.722Z" transform="translate(-0.001 58.074)" fill="#00a299"/>
        <path id="Path_19136" data-name="Path 19136" d="M155.972,71.958,56,193.195c-27.272-21.688-44.386-47.572-53.47-80.861Z" transform="translate(3.06 84.044)" fill="#badd7a"/>
        <path id="Path_19137" data-name="Path 19137" d="M126.723,71.958l148.3,55.908C243.582,208.3,151.7,248.476,69.8,217.6a151.691,151.691,0,0,1-43.04-24.4Z" transform="translate(32.308 84.044)" fill="#607c93"/>
        <path id="Path_19138" data-name="Path 19138" d="M72.041,156V0c87.731,0,158.85,69.845,158.85,156,0,20.678-3.007,36.6-10.552,55.908Z" transform="translate(86.99 -0.001)" fill="#0088d6"/>
      </g>
    </g>
    <g id="Group_58451" data-name="Group 58451">
      <path id="Path_72991" data-name="Path 72991" d="M-9.677-9.975c3.815,0,6.615-3.115,6.615-8.33s-2.8-8.225-6.615-8.225-6.58,3.01-6.58,8.225S-13.492-9.975-9.677-9.975Zm0-3.43c-1.225,0-2.275-1.26-2.275-4.9s1.05-4.8,2.275-4.8,2.275,1.155,2.275,4.8S-8.452-13.405-9.677-13.405Zm.91,13.9h3.535L8.838-26.53H5.268Zm18.48,0c3.78,0,6.58-3.115,6.58-8.33s-2.8-8.26-6.58-8.26-6.58,3.045-6.58,8.26S5.933.49,9.713.49Zm0-3.465C8.488-2.975,7.4-4.2,7.4-7.84c0-3.675,1.085-4.8,2.31-4.8s2.24,1.12,2.24,4.8C11.953-4.2,10.938-2.975,9.713-2.975Z" transform="translate(435.946 4151.037)" fill="#fff"/>
      <path id="Path_72990" data-name="Path 72990" d="M-21.531-26.781h4.281a4,4,0,0,0,3.578-1.7,8.053,8.053,0,0,0,1.141-4.547A6.778,6.778,0,0,0-13.7-37.266a3.767,3.767,0,0,0-3.141-1.516,3.715,3.715,0,0,0-3.016,1.438,5.55,5.55,0,0,0-1.172,3.625h-8.844a12.5,12.5,0,0,1,1.641-6.391,11.521,11.521,0,0,1,4.594-4.422,13.561,13.561,0,0,1,6.547-1.594q6.281,0,9.844,3.469t3.563,9.5A10.817,10.817,0,0,1-5.3-27.422a10.959,10.959,0,0,1-4.234,4.047,9.732,9.732,0,0,1,4.8,4.125,12.839,12.839,0,0,1,1.578,6.5A12.76,12.76,0,0,1-7.016-3.031,14.139,14.139,0,0,1-17.156.625a12.89,12.89,0,0,1-9.484-3.609,12.764,12.764,0,0,1-3.641-9.484h8.844a6.49,6.49,0,0,0,1.281,4.094,3.943,3.943,0,0,0,3.25,1.656A4.348,4.348,0,0,0-13.3-8.406a7.075,7.075,0,0,0,1.328-4.5q0-6.719-5.219-6.75h-4.344Zm50.938,7.969q0,9.438-3.422,14.438a11.129,11.129,0,0,1-9.766,5,11.168,11.168,0,0,1-9.7-4.859Q3.094-9.094,2.969-18.156V-26.75q0-9.406,3.406-14.391a11.13,11.13,0,0,1,9.781-4.984,11.162,11.162,0,0,1,9.781,4.938q3.406,4.938,3.469,14.094Zm-8.875-9.219a23.159,23.159,0,0,0-1.062-8.062q-1.063-2.687-3.312-2.687-4.219,0-4.375,9.844v11.344a23.323,23.323,0,0,0,1.078,8.188q1.078,2.688,3.359,2.688,2.156,0,3.2-2.516a21.947,21.947,0,0,0,1.109-7.7Z" transform="translate(385.282 4158.037)" fill="#fff"/>
    </g>
    <g id="Group_58450" data-name="Group 58450">
      <path id="Path_72989" data-name="Path 72989" d="M-9.677-9.975c3.815,0,6.615-3.115,6.615-8.33s-2.8-8.225-6.615-8.225-6.58,3.01-6.58,8.225S-13.492-9.975-9.677-9.975Zm0-3.43c-1.225,0-2.275-1.26-2.275-4.9s1.05-4.8,2.275-4.8,2.275,1.155,2.275,4.8S-8.452-13.405-9.677-13.405Zm.91,13.9h3.535L8.838-26.53H5.268Zm18.48,0c3.78,0,6.58-3.115,6.58-8.33s-2.8-8.26-6.58-8.26-6.58,3.045-6.58,8.26S5.933.49,9.713.49Zm0-3.465C8.488-2.975,7.4-4.2,7.4-7.84c0-3.675,1.085-4.8,2.31-4.8s2.24,1.12,2.24,4.8C11.953-4.2,10.938-2.975,9.713-2.975Z" transform="translate(488.961 4010.113)" fill="#fff"/>
      <path id="Path_72988" data-name="Path 72988" d="M-21.531-26.781h4.281a4,4,0,0,0,3.578-1.7,8.053,8.053,0,0,0,1.141-4.547A6.778,6.778,0,0,0-13.7-37.266a3.767,3.767,0,0,0-3.141-1.516,3.715,3.715,0,0,0-3.016,1.438,5.55,5.55,0,0,0-1.172,3.625h-8.844a12.5,12.5,0,0,1,1.641-6.391,11.521,11.521,0,0,1,4.594-4.422,13.561,13.561,0,0,1,6.547-1.594q6.281,0,9.844,3.469t3.563,9.5A10.817,10.817,0,0,1-5.3-27.422a10.959,10.959,0,0,1-4.234,4.047,9.732,9.732,0,0,1,4.8,4.125,12.839,12.839,0,0,1,1.578,6.5A12.76,12.76,0,0,1-7.016-3.031,14.139,14.139,0,0,1-17.156.625a12.89,12.89,0,0,1-9.484-3.609,12.764,12.764,0,0,1-3.641-9.484h8.844a6.49,6.49,0,0,0,1.281,4.094,3.943,3.943,0,0,0,3.25,1.656A4.348,4.348,0,0,0-13.3-8.406a7.075,7.075,0,0,0,1.328-4.5q0-6.719-5.219-6.75h-4.344ZM22.438,0H13.563V-34.75L4.906-31.406v-7.375L21.5-45.562h.938Z" transform="translate(438.266 4017.113)" fill="#fff"/>
    </g>
    <g id="Group_58449" data-name="Group 58449">
      <path id="Path_72987" data-name="Path 72987" d="M-9.677-9.975c3.815,0,6.615-3.115,6.615-8.33s-2.8-8.225-6.615-8.225-6.58,3.01-6.58,8.225S-13.492-9.975-9.677-9.975Zm0-3.43c-1.225,0-2.275-1.26-2.275-4.9s1.05-4.8,2.275-4.8,2.275,1.155,2.275,4.8S-8.452-13.405-9.677-13.405Zm.91,13.9h3.535L8.838-26.53H5.268Zm18.48,0c3.78,0,6.58-3.115,6.58-8.33s-2.8-8.26-6.58-8.26-6.58,3.045-6.58,8.26S5.933.49,9.713.49Zm0-3.465C8.488-2.975,7.4-4.2,7.4-7.84c0-3.675,1.085-4.8,2.31-4.8s2.24,1.12,2.24,4.8C11.953-4.2,10.938-2.975,9.713-2.975Z" transform="translate(323.167 4116.064)" fill="#fff"/>
      <path id="Path_72986" data-name="Path 72986" d="M-9.937,0h-8.875V-34.75l-8.656,3.344v-7.375l16.594-6.781h.938ZM29.406-18.812q0,9.438-3.422,14.438a11.129,11.129,0,0,1-9.766,5,11.168,11.168,0,0,1-9.7-4.859Q3.094-9.094,2.969-18.156V-26.75q0-9.406,3.406-14.391a11.13,11.13,0,0,1,9.781-4.984,11.162,11.162,0,0,1,9.781,4.938q3.406,4.938,3.469,14.094Zm-8.875-9.219a23.159,23.159,0,0,0-1.062-8.062q-1.063-2.687-3.312-2.687-4.219,0-4.375,9.844v11.344a23.323,23.323,0,0,0,1.078,8.188q1.078,2.688,3.359,2.688,2.156,0,3.2-2.516a21.947,21.947,0,0,0,1.109-7.7Z" transform="translate(271.503 4125.064)" fill="#fff"/>
    </g>
    <g id="Group_58448" data-name="Group 58448">
      <path id="Path_72984" data-name="Path 72984" d="M-9.677-9.975c3.815,0,6.615-3.115,6.615-8.33s-2.8-8.225-6.615-8.225-6.58,3.01-6.58,8.225S-13.492-9.975-9.677-9.975Zm0-3.43c-1.225,0-2.275-1.26-2.275-4.9s1.05-4.8,2.275-4.8,2.275,1.155,2.275,4.8S-8.452-13.405-9.677-13.405Zm.91,13.9h3.535L8.838-26.53H5.268Zm18.48,0c3.78,0,6.58-3.115,6.58-8.33s-2.8-8.26-6.58-8.26-6.58,3.045-6.58,8.26S5.933.49,9.713.49Zm0-3.465C8.488-2.975,7.4-4.2,7.4-7.84c0-3.675,1.085-4.8,2.31-4.8s2.24,1.12,2.24,4.8C11.953-4.2,10.938-2.975,9.713-2.975Z" transform="translate(278.58 4058.092)" fill="#fff"/>
      <path id="Path_72985" data-name="Path 72985" d="M3.938-17.594a8.489,8.489,0,0,1-6.156,2.875,9.512,9.512,0,0,1-8.172-4.172q-2.984-4.172-2.984-11.141a19.766,19.766,0,0,1,1.688-8.234,13.613,13.613,0,0,1,4.7-5.8A11.66,11.66,0,0,1-.25-46.125a11.007,11.007,0,0,1,6.844,2.281A14.617,14.617,0,0,1,11.25-37.3a26.654,26.654,0,0,1,1.656,9.7v3.219Q12.906-12.75,7.8-6.2T-6.687.469h-.906V-7.156H-7Q-1.812-7.187.8-9.844T3.938-17.594ZM.031-21.656q2.562,0,4.031-3.5v-4.062a16.538,16.538,0,0,0-1.219-7.016Q1.625-38.781-.312-38.781q-1.906,0-3.078,2.516a14.48,14.48,0,0,0-1.172,6.141,13.193,13.193,0,0,0,1.219,6.2A3.727,3.727,0,0,0,.031-21.656Z" transform="translate(243.417 4064.092)" fill="#fff"/>
    </g>
    <g id="Group_58447" data-name="Group 58447">
      <path id="Path_72983" data-name="Path 72983" d="M-9.677-9.975c3.815,0,6.615-3.115,6.615-8.33s-2.8-8.225-6.615-8.225-6.58,3.01-6.58,8.225S-13.492-9.975-9.677-9.975Zm0-3.43c-1.225,0-2.275-1.26-2.275-4.9s1.05-4.8,2.275-4.8,2.275,1.155,2.275,4.8S-8.452-13.405-9.677-13.405Zm.91,13.9h3.535L8.838-26.53H5.268Zm18.48,0c3.78,0,6.58-3.115,6.58-8.33s-2.8-8.26-6.58-8.26-6.58,3.045-6.58,8.26S5.933.49,9.713.49Zm0-3.465C8.488-2.975,7.4-4.2,7.4-7.84c0-3.675,1.085-4.8,2.31-4.8s2.24,1.12,2.24,4.8C11.953-4.2,10.938-2.975,9.713-2.975Z" transform="translate(347.847 3978.146)" fill="#fff"/>
      <path id="Path_72982" data-name="Path 72982" d="M-2.594,0H-29.406V-6.25l12.313-15.656a34.3,34.3,0,0,0,3.453-5.7,11.406,11.406,0,0,0,1.109-4.7,9.126,9.126,0,0,0-1.047-4.75,3.333,3.333,0,0,0-3.016-1.719,3.879,3.879,0,0,0-3.422,2,10.514,10.514,0,0,0-1.266,5.625h-8.875a16.878,16.878,0,0,1,1.734-7.656A12.952,12.952,0,0,1-23.547-44.2a13.346,13.346,0,0,1,7.109-1.922q6.094,0,9.453,3.359t3.359,9.547a18.217,18.217,0,0,1-1.859,7.8,47.94,47.94,0,0,1-6.734,9.734l-5.844,8.344H-2.594Zm32-18.812q0,9.438-3.422,14.438a11.129,11.129,0,0,1-9.766,5,11.168,11.168,0,0,1-9.7-4.859Q3.094-9.094,2.969-18.156V-26.75q0-9.406,3.406-14.391a11.13,11.13,0,0,1,9.781-4.984,11.162,11.162,0,0,1,9.781,4.938q3.406,4.938,3.469,14.094Zm-8.875-9.219a23.159,23.159,0,0,0-1.062-8.062q-1.063-2.687-3.312-2.687-4.219,0-4.375,9.844v11.344a23.323,23.323,0,0,0,1.078,8.188q1.078,2.688,3.359,2.688,2.156,0,3.2-2.516a21.947,21.947,0,0,0,1.109-7.7Z" transform="translate(297.184 3984.146)" fill="#fff"/>
    </g>
  </g>
</svg>
