<svg id="Group_41708" data-name="Group 41708" xmlns="http://www.w3.org/2000/svg" xmlns:xlink="http://www.w3.org/1999/xlink" width="174.532" height="219.197" viewBox="0 0 174.532 219.197">
  <defs>
    <clipPath id="clip-path">
      <rect id="Rectangle_29408" data-name="Rectangle 29408" width="174.532" height="219.197" fill="none"/>
    </clipPath>
    <clipPath id="clip-path-3">
      <rect id="Rectangle_29404" data-name="Rectangle 29404" width="64.611" height="35.819" fill="none"/>
    </clipPath>
  </defs>
  <g id="Group_41707" data-name="Group 41707" clip-path="url(#clip-path)">
    <g id="Group_41706" data-name="Group 41706">
      <g id="Group_41705" data-name="Group 41705" clip-path="url(#clip-path)">
        <path id="Path_46982" data-name="Path 46982" d="M73.557,20.987c-3.688,1.073-7.382,12.577-10.234,21.04s-3.549,9.549-3.7,11.817,4.037,8.9,7.113,8.74l1.19-2.063s8.567-2.043,9.622-5.944,3.5-17.552,4.4-21.911-.547-13.964-8.4-11.68" transform="translate(49.733 15.592)" fill="#52b6c5"/>
        <path id="Path_46983" data-name="Path 46983" d="M71.925,57.792c3.23-3.284-.647-14.745-3.355-23.266s.372-2.73-1.016-4.606-2.641-1.929-2.641-1.929l-2.124-2.837s-5.638.472-8.833,2.635l.127,2.4a9.284,9.284,0,0,0,.514,6.4c1.528,3.757,1.92,8.482,3.92,12.5s6.535,15.691,13.409,8.7" transform="translate(44.836 19.001)" fill="#52b6c5"/>
        <path id="Path_46984" data-name="Path 46984" d="M31.746,56.086c-3.206-2.747-2.825-4.959.393-11.593S45.5,35.35,45.5,35.35l1.913-1.194s7.766,1.373,10.763,3.769Z" transform="translate(24.628 25.801)" fill="#d1edff"/>
        <g id="Group_41698" data-name="Group 41698" transform="translate(5.57 183.379)" opacity="0.3" style="mix-blend-mode: multiply;isolation: isolate">
          <g id="Group_41697" data-name="Group 41697">
            <g id="Group_41696" data-name="Group 41696" clip-path="url(#clip-path-3)">
              <g id="Group_41695" data-name="Group 41695" opacity="0.2" style="mix-blend-mode: multiply;isolation: isolate">
                <g id="Group_41694" data-name="Group 41694">
                  <g id="Group_41693" data-name="Group 41693" clip-path="url(#clip-path-3)">
                    <path id="Path_46985" data-name="Path 46985" d="M58.116,109.725c12.65,6.99,12.718,18.3.149,25.29-12.624,7.022-33.023,7.022-45.675.032s-12.773-18.332-.149-25.353c12.567-6.99,33.023-6.958,45.675.032" transform="translate(-3.037 -104.466)" fill="#00275e"/>
                  </g>
                </g>
              </g>
            </g>
          </g>
        </g>
        <path id="Path_46986" data-name="Path 46986" d="M43.884,33.035s2.383.337,2.839.351,3.58-.934,4.58-.781a3.321,3.321,0,0,1,1.77,1.1,19.518,19.518,0,0,1,2.652.679c.438.242.044,1.689.145,1.875s.86,1.3.449,1.868A17.481,17.481,0,0,1,54.705,40.5c-.321.167-7.733-1.02-13.321-2.861s2.5-4.606,2.5-4.606" transform="translate(32.878 24.617)" fill="#ffc49a"/>
        <path id="Path_46987" data-name="Path 46987" d="M11.507,110.526s-1.823.218-2.164.892-.528,6.439-.493,7.227a46.689,46.689,0,0,0,9.3,6.725c4.492,2.207,8.375,3.167,10.11,1.717s.664-3.119-3.034-5.995-7.265-10.573-7.265-10.566-6.451,0-6.451,0" transform="translate(7.378 83.49)" fill="#003452"/>
        <path id="Path_46988" data-name="Path 46988" d="M24.386,105.345s-1.823.218-2.164.892-.526,6.439-.493,7.227a46.752,46.752,0,0,0,9.3,6.725c4.492,2.207,8.375,3.167,10.11,1.717s.664-3.121-3.034-5.995-7.263-10.573-7.265-10.566-6.451,0-6.451,0" transform="translate(18.121 79.577)" fill="#003452"/>
        <path id="Path_46989" data-name="Path 46989" d="M28.608,20.2c4.3.119,5.765,5.594,7.777,12.649s7.261,17,7.261,17l-.657,2.092s-4.958,3.081-8.862,3.1L27.139,44.116Z" transform="translate(22.637 15.255)" fill="#d1edff"/>
        <path id="Path_46990" data-name="Path 46990" d="M8.945,62.894l-.334,90.088a12.011,12.011,0,0,0,11.245-.235S30.512,74.924,30.692,73.075c.167-1.7,1.5,71.051,1.5,71.051s6.6,3.621,11.627-1.3l5.928-86.19Z" transform="translate(7.183 42.784)" fill="#0088d6"/>
        <path id="Path_46991" data-name="Path 46991" d="M19.933,23.352A52.918,52.918,0,0,0,6.68,30.716l3.876,59.952s8.1,5.673,24.667,1.525c13.494-3.377,17.037-8.816,17.037-8.816s1.233-29.461-.033-41.919a54.014,54.014,0,0,0-6.553-21.017c-2.944-.855-9.438-.5-9.438-.5Z" transform="translate(5.572 15.01)" fill="#eaf7ff"/>
        <path id="Path_46992" data-name="Path 46992" d="M32.742,1.407A18.31,18.31,0,0,0,24.294.743c-5.917.6-10.9,3.355-11.889,9.428-.746,4.573,1.04,9.251,2.931,13.373,2.5,5.466,4.244,3.479,4.244,3.479l14.506-5.6c1.337-.514,3.353-.9,4.466-1.829,1.772-1.489,1.19-4.03,1.513-6.023.433-2.661.862-4.919-.671-7.4a11.494,11.494,0,0,0-5.42-4.3c-.422-.177-.831-.335-1.233-.472" transform="translate(10.202 0.417)" fill="#42210b"/>
        <path id="Path_46993" data-name="Path 46993" d="M16.778,32.5l-.372-12a2.847,2.847,0,0,1-2.615-3.537c.543-3.307,3.776-1.132,4.347-.16,0,0,.726-11.389,7.03-12.484s12.415.2,12.577,3.139.365,13.208,0,17.024S34.258,29.854,28.5,29.7l.393,6.174S26,37.9,17.936,36.019Z" transform="translate(11.451 2.966)" fill="#ffc49a"/>
        <path id="Path_46994" data-name="Path 46994" d="M19.4,25.182l2.7,1.8s-1.157,26.457-2.847,42.786c-.193,1.862,5.457,5.366,5.457,5.366s4.866-5.47,4.765-7.706c-.607-13.464-5.875-40.8-5.875-40.8l1.6-2.412-3.1-1.891Z" transform="translate(16.056 16.863)" fill="#0088d6"/>
        <path id="Path_46995" data-name="Path 46995" d="M28.43,19.335a4.557,4.557,0,0,1,1.535.214c.429.23,2.737,2.444,2.79,4.875a16.766,16.766,0,0,1-.974,5.219l-5.225-4.506-3.285,6.07a13.662,13.662,0,0,1-4.86-2.412,17.685,17.685,0,0,1-4.5-5.038c.9-2.2,1.515-3.5,1.515-3.5.213-.5,1.209-.739,1.209-.739s5.563,4.829,9.926,5.066c0,0,1.557-.7,1.874-5.247" transform="translate(11.599 14.605)" fill="#fff"/>
        <path id="Path_46996" data-name="Path 46996" d="M20.129,42.462s2.362-.406,2.8-.546,3.215-2.444,4.211-2.6A2.714,2.714,0,0,1,29.1,40.1a14.454,14.454,0,0,1,2.7-.065c.479.156.437,2.14.578,2.338s1.128,1.355.868,2.226a29.585,29.585,0,0,1-.994,3.588c-.27.325-7.654,1.408-13.446,1.016s1.322-6.744,1.322-6.744" transform="translate(13.793 29.686)" fill="#ffc49a"/>
        <path id="Path_46997" data-name="Path 46997" d="M14.037,25.067C10.348,26.139,6.654,37.644,3.8,46.107S.253,55.656.107,57.924s-.1,8.747-.1,8.747l.471-2.347s3.665,2.5,6.74,2.34L8.41,64.6s8.567-2.043,9.622-5.944,3.5-17.552,4.4-21.911-.547-13.964-8.4-11.68" transform="translate(0 18.674)" fill="#d1edff"/>
        <path id="Path_46998" data-name="Path 46998" d="M34.873,10.469a4.1,4.1,0,0,0-.341-4.209A8.317,8.317,0,0,0,31,3.493C27.551,1.9,17.9.153,17.628,5.884,17.5,8.747,20.073,13.5,23.642,12.9c1.533-.255,2.436-1.627,4.121-1.173.846.228,3.127,2.286,3.232.09a3.2,3.2,0,0,0,3.877-1.352" transform="translate(14.7 1.462)" fill="#42210b"/>
        <path id="Path_46999" data-name="Path 46999" d="M15.08,14.445A8.667,8.667,0,0,1,18.3,20.154l1.2.026c-.059-1.52.057-2.872,0-4.392a10.171,10.171,0,0,0,2.555-9c-.29-1.292-1.1-2.723-2.472-2.84s-2.441,1.169-3.03,2.38a14.581,14.581,0,0,0-1.473,8.119" transform="translate(12.495 2.975)" fill="#42210b"/>
        <g id="Group_41704" data-name="Group 41704" transform="translate(102.885 183.379)" opacity="0.3" style="mix-blend-mode: multiply;isolation: isolate">
          <g id="Group_41703" data-name="Group 41703">
            <g id="Group_41702" data-name="Group 41702" clip-path="url(#clip-path-3)">
              <g id="Group_41701" data-name="Group 41701" opacity="0.2" style="mix-blend-mode: multiply;isolation: isolate">
                <g id="Group_41700" data-name="Group 41700">
                  <g id="Group_41699" data-name="Group 41699" clip-path="url(#clip-path-3)">
                    <path id="Path_47000" data-name="Path 47000" d="M65.627,109.725c-12.65,6.99-12.718,18.3-.149,25.29,12.624,7.022,33.023,7.022,45.675.032s12.773-18.332.149-25.353c-12.567-6.99-33.023-6.958-45.675.032" transform="translate(-56.095 -104.466)" fill="#00275e"/>
                  </g>
                </g>
              </g>
            </g>
          </g>
        </g>
        <path id="Path_47001" data-name="Path 47001" d="M92.049,110.526s1.823.218,2.164.892.528,6.439.493,7.227a46.69,46.69,0,0,1-9.3,6.725c-4.492,2.207-8.375,3.167-10.11,1.717s-.664-3.119,3.034-5.995S85.6,110.519,85.6,110.526s6.451,0,6.451,0" transform="translate(62.133 83.49)" fill="#003452"/>
        <path id="Path_47002" data-name="Path 47002" d="M79.169,105.345s1.823.218,2.164.892.526,6.439.493,7.227a46.752,46.752,0,0,1-9.3,6.725c-4.492,2.207-8.375,3.167-10.11,1.717s-.664-3.121,3.034-5.995,7.263-10.573,7.265-10.566,6.451,0,6.451,0" transform="translate(51.389 79.577)" fill="#003452"/>
        <path id="Path_47003" data-name="Path 47003" d="M104.124,62.894l.334,90.088a12.011,12.011,0,0,1-11.245-.235S82.556,74.924,82.376,73.075c-.167-1.7-1.5,71.051-1.5,71.051s-6.6,3.621-11.626-1.3l-5.928-86.19Z" transform="translate(52.815 42.784)" fill="#52b6c5"/>
        <path id="Path_47004" data-name="Path 47004" d="M95.4,23.352a52.918,52.918,0,0,1,13.253,7.364l-3.876,59.952s-8.1,5.673-24.667,1.525c-13.494-3.377-17.037-8.816-17.037-8.816s-1.233-29.461.033-41.919a54,54,0,0,1,6.555-21.017c2.942-.855,9.437-.5,9.437-.5Z" transform="translate(52.162 15.01)" fill="#5ed3e5"/>
        <path id="Path_47005" data-name="Path 47005" d="M74.46,1.407A18.31,18.31,0,0,1,82.908.743c5.917.6,10.9,3.355,11.889,9.428.746,4.573-1.04,9.251-2.931,13.373-2.5,5.466-4.244,3.479-4.244,3.479l-14.506-5.6c-1.337-.514-3.353-.9-4.466-1.829-1.772-1.489-1.19-4.03-1.513-6.023-.433-2.661-.862-4.919.671-7.4a11.494,11.494,0,0,1,5.42-4.3c.422-.177.831-.335,1.233-.472" transform="translate(55.662 0.417)" fill="#003452"/>
        <path id="Path_47006" data-name="Path 47006" d="M88.6,32.5l.372-12a2.847,2.847,0,0,0,2.615-3.537c-.543-3.307-3.776-1.132-4.347-.16,0,0-.726-11.389-7.03-12.484s-12.415.2-12.577,3.139-.365,13.208,0,17.024,3.487,5.38,9.246,5.228l-.393,6.174s2.889,2.029,10.955.144Z" transform="translate(56.241 2.966)" fill="#ffc49a"/>
        <path id="Path_47007" data-name="Path 47007" d="M78.915,25.182l-1.354,2.766s0,48.831-.717,60.935c-.112,1.869-6.7.439-6.467-1.789,1.005-9.49,2.874-60.521,2.874-60.521l-.141-2.359,3.1-1.891Z" transform="translate(58.698 16.863)" fill="#52b6c5"/>
        <path id="Path_47008" data-name="Path 47008" d="M74.5,19.335a4.557,4.557,0,0,0-1.535.214c-.429.23-2.737,2.444-2.79,4.875a16.766,16.766,0,0,0,.974,5.219l5.225-4.506,3.285,6.07a13.662,13.662,0,0,0,4.86-2.412,17.685,17.685,0,0,0,4.5-5.038c-.9-2.2-1.515-3.5-1.515-3.5-.213-.5-1.209-.739-1.209-.739s-5.563,4.829-9.926,5.066c0,0-1.557-.7-1.874-5.247" transform="translate(58.535 14.605)" fill="#52b6c5"/>
        <path id="Path_47009" data-name="Path 47009" d="M67.529,10.469A4.1,4.1,0,0,1,67.87,6.26,8.317,8.317,0,0,1,71.4,3.493c3.446-1.6,13.1-3.341,13.369,2.391.132,2.863-2.445,7.613-6.014,7.02-1.533-.255-2.436-1.627-4.121-1.173-.846.228-3.127,2.286-3.232.09a3.2,3.2,0,0,1-3.877-1.352" transform="translate(55.964 1.462)" fill="#003452"/>
        <path id="Path_47010" data-name="Path 47010" d="M82.6,14.445a8.667,8.667,0,0,0-3.223,5.709l-1.2.026c.059-1.52-.057-2.872,0-4.392a10.171,10.171,0,0,1-2.555-9c.29-1.292,1.1-2.723,2.472-2.84s2.441,1.169,3.03,2.38A14.58,14.58,0,0,1,82.6,14.445" transform="translate(62.893 2.975)" fill="#003452"/>
        <path id="Path_47011" data-name="Path 47011" d="M66.512,11s1.049-6.663,1.145-7.12S78.722.046,78.722.046L82.346,0S93.5,3.014,94.27,4.292s2.575,7.85,2.1,11.045-1.144,4.016-1.144,4.016l-12.687-6.39" transform="translate(55.479)" fill="#5ed3e5"/>
        <path id="Path_47012" data-name="Path 47012" d="M64.328,11.211S77.4,8.564,83.5,11.941l3.052-2.556-6.2-3.742L69,6.054Z" transform="translate(53.658 4.263)" fill="#52b6c5"/>
        <path id="Path_47013" data-name="Path 47013" d="M1.7,55.754c2.909,2.421,15.054-.7,24.062-2.881s2.724.248,4.809-.839,2.307-2.042,2.307-2.042l3.16-1.661s.264-4.3-1.511-6.707l-2.456.13a12.53,12.53,0,0,0-6.568.479c-4.013,1.218-8.864,1.583-13.2,3.163S-4.493,50.6,1.7,55.754" transform="translate(0.004 31.373)" fill="#d1edff"/>
        <path id="Path_47014" data-name="Path 47014" d="M81.168,55.753s-1.52,1.778-1.863,2.078-3.8,1.5-4.422,2.254a2.448,2.448,0,0,0-.235,2.017,13.2,13.2,0,0,0-1.376,2.229c-.09.474,1.741,1.406,1.854,1.62s.686,1.6,1.607,1.81a33.493,33.493,0,0,0,3.76.916c.427-.068,5.011-5.714,7.474-10.746s-6.8-2.178-6.8-2.178" transform="translate(61.116 41.506)" fill="#ffc49a"/>
        <path id="Path_47015" data-name="Path 47015" d="M91.488,25.942c3.688,1.073,7.382,12.577,10.234,21.04s3.549,9.549,3.7,11.817-4.037,8.9-7.113,8.74l-1.19-2.063s-8.567-2.043-9.622-5.944-3.5-17.552-4.4-21.911.547-13.964,8.4-11.68" transform="translate(69.11 19.335)" fill="#52b6c5"/>
        <path id="Path_47016" data-name="Path 47016" d="M109.268,47.538c.97,4.413-8.578,12.265-15.528,18.188s-1.166,2.517-3.373,3.425-3.3.33-3.3.33l-3.358,1.364S79.15,67.63,77.6,64.191L79.016,62.2a9.655,9.655,0,0,1,3.923-5.21c3.347-2.444,6.256-6.283,10.146-8.716s14.119-10.136,16.182-.741" transform="translate(64.728 32.478)" fill="#52b6c5"/>
        <path id="Path_47017" data-name="Path 47017" d="M61.087,30.681s-.438-2.231-.468-2.663.923-3.476.726-4.411a21.955,21.955,0,0,0-.748-2.415s-1.06-1.234-1.339-1.631a10.054,10.054,0,0,0-2.3-1.329,13.076,13.076,0,0,0-2.614,1.58,10.038,10.038,0,0,0-1.786,1.236c-.172.319,1.346,7.25,3.534,12.395s4.992-2.761,4.992-2.761" transform="translate(43.831 13.769)" fill="#ffc49a"/>
        <path id="Path_47018" data-name="Path 47018" d="M57.364,27.1l4.2-5.682a4.175,4.175,0,0,0-1.816-.212c-1.231.06-3.512,2.914-3.512,2.914Z" transform="translate(46.911 16.013)" fill="#ffc49a"/>
        <path id="Path_47019" data-name="Path 47019" d="M41.269,34.646l5.114-3.534s1.126.472.748,1.473S43.619,35.5,43.619,35.5Z" transform="translate(34.423 23.502)" fill="#ffc49a"/>
      </g>
    </g>
  </g>
</svg>
