<svg id="Group_18092" data-name="Group 18092" xmlns="http://www.w3.org/2000/svg" xmlns:xlink="http://www.w3.org/1999/xlink" width="80.177" height="93" viewBox="0 0 80.177 93">
  <defs>
    <clipPath id="clip-path">
      <rect id="Rectangle_17733" data-name="Rectangle 17733" width="80.177" height="93" fill="none"/>
    </clipPath>
    <clipPath id="clip-path-3">
      <rect id="Rectangle_17718" data-name="Rectangle 17718" width="32.247" height="18.618" fill="none"/>
    </clipPath>
    <clipPath id="clip-path-4">
      <rect id="Rectangle_17719" data-name="Rectangle 17719" width="13.193" height="21.195" fill="none"/>
    </clipPath>
    <clipPath id="clip-path-5">
      <rect id="Rectangle_17720" data-name="Rectangle 17720" width="13.628" height="20.338" fill="none"/>
    </clipPath>
    <clipPath id="clip-path-6">
      <rect id="Rectangle_17721" data-name="Rectangle 17721" width="4.588" height="5.715" fill="none"/>
    </clipPath>
    <clipPath id="clip-path-7">
      <rect id="Rectangle_17722" data-name="Rectangle 17722" width="3.788" height="3.969" fill="none"/>
    </clipPath>
    <clipPath id="clip-path-8">
      <rect id="Rectangle_17723" data-name="Rectangle 17723" width="3.216" height="1.622" fill="none"/>
    </clipPath>
    <clipPath id="clip-path-9">
      <rect id="Rectangle_17724" data-name="Rectangle 17724" width="3.773" height="1.66" fill="none"/>
    </clipPath>
    <clipPath id="clip-path-10">
      <rect id="Rectangle_17725" data-name="Rectangle 17725" width="3.614" height="1.535" fill="none"/>
    </clipPath>
    <clipPath id="clip-path-11">
      <rect id="Rectangle_17726" data-name="Rectangle 17726" width="6.868" height="3.085" fill="none"/>
    </clipPath>
    <clipPath id="clip-path-12">
      <rect id="Rectangle_17727" data-name="Rectangle 17727" width="1.184" height="1.019" fill="none"/>
    </clipPath>
    <clipPath id="clip-path-13">
      <rect id="Rectangle_17728" data-name="Rectangle 17728" width="0.54" height="0.416" fill="none"/>
    </clipPath>
    <clipPath id="clip-path-14">
      <rect id="Rectangle_17729" data-name="Rectangle 17729" width="2.821" height="1.081" fill="none"/>
    </clipPath>
    <clipPath id="clip-path-15">
      <rect id="Rectangle_17730" data-name="Rectangle 17730" width="2.977" height="1.642" fill="none"/>
    </clipPath>
    <clipPath id="clip-path-16">
      <rect id="Rectangle_17731" data-name="Rectangle 17731" width="16.848" height="9.727" fill="none"/>
    </clipPath>
  </defs>
  <g id="Group_18091" data-name="Group 18091" clip-path="url(#clip-path)">
    <g id="Group_18090" data-name="Group 18090">
      <g id="Group_18089" data-name="Group 18089" clip-path="url(#clip-path)">
        <g id="Group_18049" data-name="Group 18049" transform="translate(19.283 59.144)" style="mix-blend-mode: multiply;isolation: isolate">
          <g id="Group_18048" data-name="Group 18048">
            <g id="Group_18047" data-name="Group 18047" clip-path="url(#clip-path-3)">
              <path id="Path_19533" data-name="Path 19533" d="M52.216,91.539c-6.277,3.624-16.486,3.605-22.8-.041s-6.348-9.54-.071-13.164,16.486-3.606,22.8.041,6.348,9.541.071,13.165" transform="translate(-24.656 -75.627)" fill="#b9b9b9"/>
            </g>
          </g>
        </g>
        <path id="Path_19534" data-name="Path 19534" d="M53.91,84.032a8.723,8.723,0,0,1,1.283,1.688c.119.434-.236.675-.394.969a2.125,2.125,0,0,1-2.23.649A11.935,11.935,0,0,1,49.133,85.5c-.355-.316-1.638-1.993-2.151-2.368A16.9,16.9,0,0,0,44.4,81.713c-.257-.039-1.776-.612-1.934-1.381a3.8,3.8,0,0,1,.414-1.914l2.289.1Z" transform="translate(-9.249 -17.091)" fill="#f3f3e8"/>
        <path id="Path_19535" data-name="Path 19535" d="M45.972,76.587c-1.777,2.191-1.421,1.237-1.421,1.237s-.8,2.049-.03,2.463a9.569,9.569,0,0,1,2.724,1.48c.829.829,2.191,2.9,2.754,3.256s2.457,1.865,3.938,1.57,1.509-.948,1.509-1.214a8.531,8.531,0,0,0-.859-2.606c-.5-.888-3-2.963-3.286-3.346a15.326,15.326,0,0,1-.917-1.895Z" transform="translate(-9.631 -16.692)" fill="#f3f3e8"/>
        <path id="Path_19536" data-name="Path 19536" d="M37.871,50.994c.519.474,1.023.855,1.365,1.114,1.215.916,3.879,2.338,6.224,3.7a16.661,16.661,0,0,1,3.664,2.814s.564.651.386.917-4.531,7.52-4.738,7.875a19.568,19.568,0,0,0-1.6,3.252c.016.23.156.422.55.72.251.189.611.424,1.108.737a4.321,4.321,0,0,0,4,.059A9.146,9.146,0,0,0,50.959,69.4c.77-1.274,6.632-9.149,7.018-10.54A5.135,5.135,0,0,0,56.762,54.3c-1.213-1.48-8.792-9.209-8.792-9.209a18.34,18.34,0,0,0-2.783-1.331s-7.461-.446-8.972,2.25c-1.085,1.937.325,3.768,1.656,4.986" transform="translate(-7.809 -9.531)" fill="#b8c9e1"/>
        <path id="Path_19537" data-name="Path 19537" d="M46.033,74l-.588-.4c1.6-2.365,4.057-6.071,4.264-6.587a20.3,20.3,0,0,1,1.078-1.891,20.811,20.811,0,0,0,1.66-3.034c.178-.766.013-1.274-.7-2.173a34.928,34.928,0,0,0-5.881-5.375,32.872,32.872,0,0,0-7.336-3.185l.165-.691a33.131,33.131,0,0,1,7.538,3.27,35.5,35.5,0,0,1,6.07,5.538,2.948,2.948,0,0,1,.838,2.777A17.656,17.656,0,0,1,51.4,65.494c-.472.779-.917,1.515-1.026,1.787-.3.753-3.924,6.113-4.336,6.722" transform="translate(-8.397 -11.043)" fill="#cfdced"/>
        <g id="Group_18052" data-name="Group 18052" transform="translate(30.062 40.658)" style="mix-blend-mode: multiply;isolation: isolate">
          <g id="Group_18051" data-name="Group 18051">
            <g id="Group_18050" data-name="Group 18050" clip-path="url(#clip-path-4)">
              <path id="Path_19538" data-name="Path 19538" d="M49.693,60.42s.564.651.386.917-4.531,7.52-4.738,7.875a19.538,19.538,0,0,0-1.6,3.252c.016.23.156.422.55.72.116-.216.242-.429.374-.635.509-.793,1.144-1.5,1.637-2.3a27.789,27.789,0,0,0,1.615-3.7A28.615,28.615,0,0,1,49.435,63.6a1.962,1.962,0,0,1,.6-.729c.32-.2.755-.225.985-.524.286-.369.17-1.061.615-1.2-2-1.421-4.083-2.935-5.147-5.147a1.923,1.923,0,0,0-.39-.623,1.727,1.727,0,0,0-.654-.318q-1.045-.33-2.09-.663a7.952,7.952,0,0,1-2.162-.928c-.592-.41-1.106-1.757-1.949-1.428a1.7,1.7,0,0,0-.8.753c.519.474,1.023.855,1.365,1.113,1.215.917,3.879,2.338,6.224,3.7a16.633,16.633,0,0,1,3.664,2.814" transform="translate(-38.44 -51.989)" fill="#e7e8ec"/>
            </g>
          </g>
        </g>
        <path id="Path_19539" data-name="Path 19539" d="M50.742,47.166a13,13,0,0,1,1.774,1.94c.859.989,1.9,1.81,2.779,2.779.472.518.9,1.076,1.323,1.634l1.316,1.726a5.161,5.161,0,0,1,.891,1.49,1.752,1.752,0,0,1-.23,1.655,3.513,3.513,0,0,1-1.576.787,3.574,3.574,0,0,1-1.239.346,2.44,2.44,0,0,1-1.459-.716,15.333,15.333,0,0,1-1.875-1.889,9.872,9.872,0,0,0-1.68-1.8c-.54-.39-1.175-.629-1.737-.986A22.656,22.656,0,0,1,47,52.435c-.852-.694-1.833-1.211-2.737-1.836-.158-.109-.334-.29-.251-.464a.41.41,0,0,1,.209-.17,8.014,8.014,0,0,0,2.409-1.432,8.816,8.816,0,0,0,.748-.989c.289-.4.992-1.54,1.544-1.546.293,0,.574.333.793.489.335.236.7.429,1.024.678" transform="translate(-9.588 -10.025)" fill="#cbd9ee"/>
        <path id="Path_19540" data-name="Path 19540" d="M49.337,74.54A40.61,40.61,0,0,0,51.909,71a7.77,7.77,0,0,0,.461-1.209,12.31,12.31,0,0,1,1.053-1.78c.188-.3.422-.6.6-.907.06-.108.219-.722.329-.742a.731.731,0,0,0,.421-.344c.747-1.05,1.22-2.279,2-3.3a3.569,3.569,0,0,1,3.291-1.62.615.615,0,0,1,.264.1c.21.163.173.488.092.741a9.136,9.136,0,0,1-.613,1.381L58.41,66.038a9.64,9.64,0,0,1-1.158,1.893c-.458.541-1.03.975-1.5,1.5a14.254,14.254,0,0,0-1.385,2.043,23.468,23.468,0,0,1-1.993,2.745,2.76,2.76,0,0,1-1.48,1.078,1.49,1.49,0,0,1-1.556-.761" transform="translate(-10.753 -13.305)" fill="#cbd9ee"/>
        <path id="Path_19541" data-name="Path 19541" d="M43.268,90a15.154,15.154,0,0,1,.947,2.653c.059.671-.809,1.441-3,1.4a7.221,7.221,0,0,1-4.579-2.427c-.316-.435-1.125-1.954-1.125-1.954l-.219-.951-1.1-.944a13.922,13.922,0,0,1-.75-1.618,2.53,2.53,0,0,1,.158-1.678c.217-.394,3.378.909,3.378.909Z" transform="translate(-7.271 -18.396)" fill="#f3f3e8"/>
        <path id="Path_19542" data-name="Path 19542" d="M40.813,83.832l1.036,2.606a28.718,28.718,0,0,1,2.043,4.47c.089.859-.059,1.747-1.688,2.013s-4.382-1.451-5.062-2.368-1.125-2.636-1.51-3.183-1.806-2.265-1.806-2.857,1.393-2.109,1.567-2.487,5.42,1.806,5.42,1.806" transform="translate(-7.372 -17.868)" fill="#f3f3e8"/>
        <path id="Path_19543" data-name="Path 19543" d="M37.415,47.025a7.644,7.644,0,0,1,.681,2.931L37.919,51.2a16.562,16.562,0,0,0,.74,1.688c.178.237,5.093,4.648,5.566,6.128a6.8,6.8,0,0,1-.148,4.234c-.414,1.154-3.435,7.668-3.82,8.852s-.71,3.493-1.154,4.2-3.079,1.214-4.352.3-1.455-1.391-1.512-2.131,2.133-7.58,2.341-8.556.74-3.79.8-4.085-5.329-4.115-6.395-4.885-4.234-3.109-5.151-4.974a5.874,5.874,0,0,1-.414-5.388C25.247,44.539,33.8,44.6,33.8,44.6Z" transform="translate(-5.218 -9.72)" fill="#b8c9e1"/>
        <path id="Path_19544" data-name="Path 19544" d="M34.936,77l-.7-.147c.2-.923.411-2.238.638-3.631.358-2.187.727-4.449,1.11-5.793.2-.7.432-1.43.653-2.122a13.466,13.466,0,0,0,.816-3.222c-.241-.527-4.419-4.163-7.184-6.569-4.456-3.877-4.887-4.3-4.941-4.594l-.031-.163a8,8,0,0,1-.095-3.237l.694.156a7.359,7.359,0,0,0,.1,2.944l.033.17c.178.246,2.585,2.339,4.708,4.187,5.915,5.147,7.372,6.527,7.425,7.032a12.171,12.171,0,0,1-.845,3.511c-.219.685-.45,1.4-.647,2.1-.371,1.305-.754,3.647-1.092,5.714-.229,1.4-.446,2.724-.644,3.663" transform="translate(-5.465 -10.358)" fill="#cfdced"/>
        <path id="Path_19545" data-name="Path 19545" d="M31.923,55.072c.941.877,1.778,1.858,2.682,2.773,1.036,1.051,2.158,2.016,3.181,3.081a6.811,6.811,0,0,0,1.592,1.39,4.019,4.019,0,0,0,2.739.273,3.789,3.789,0,0,0,1.2-.457,2.732,2.732,0,0,0,.858-.845A1.375,1.375,0,0,0,44,59.437a7.306,7.306,0,0,0-.932-.787c-1.681-1.331-2.8-3.257-4.4-4.68a13.519,13.519,0,0,1-1.509-1.38,13.105,13.105,0,0,0-1.176-1.505A4.458,4.458,0,0,0,33.4,50.19a19.743,19.743,0,0,0-2.489-.091,6.835,6.835,0,0,0-2.4.261c-1.624.717.719,2.4,1.35,2.936.691.59,1.4,1.156,2.068,1.776" transform="translate(-6.09 -10.918)" fill="#cbd9ee"/>
        <path id="Path_19546" data-name="Path 19546" d="M42.413,64.915a3.89,3.89,0,0,1,2.328-1.074,5.775,5.775,0,0,1,1.68.24.949.949,0,0,1,.468.211.774.774,0,0,1,.184.44,4.291,4.291,0,0,1-.545,2.323q-.716,1.6-1.43,3.2a16.115,16.115,0,0,1-1.369,2.847,6.445,6.445,0,0,0-.915,2.415L42,78.834a.987.987,0,0,1-.151.379.911.911,0,0,1-.4.259c-1.254.513-3.328.744-3.409-1.154a4.466,4.466,0,0,1,.289-1.508L39.22,74a22.178,22.178,0,0,0,.659-2.407c.267-1.376.384-2.753.759-4.11a5.733,5.733,0,0,1,1.775-2.563" transform="translate(-8.291 -13.913)" fill="#cbd9ee"/>
        <path id="Path_19547" data-name="Path 19547" d="M23.567,39.376a8.753,8.753,0,0,0,.493.759c.247.335.532.648.73.64.418-.017,2.01-.372,2.01-.372s5.324-.838,6.2-1.149,5.536-1,7.074-1.643a8.569,8.569,0,0,0,3.454-3.619,53.071,53.071,0,0,1,1.676-5.1c.543-1.124,1.024-4.706,1.539-6.8s.872-7.321.469-8.089a9.237,9.237,0,0,0-4.537-3.464,28.3,28.3,0,0,0-6.483-.216,16.953,16.953,0,0,0-3.356,1.224c-.528.4-4.433,3.05-4.433,3.05s-1.76,1.229-2.026,1.912l-.263.86s-.64,3.551-1.218,7.243a60.727,60.727,0,0,0-.914,7.726,58.488,58.488,0,0,1-.414,7.034" transform="translate(-5.136 -2.23)" fill="#b8c9e1"/>
        <path id="Path_19548" data-name="Path 19548" d="M49.792,20.182c.55-.339,1.121-.859,1.053-1.5A7.375,7.375,0,0,1,50.919,23c-.563,2.759-1.412,5.453-1.965,8.214a5.3,5.3,0,0,1-.936,2.5c-.05.057-.116.117-.19.1s-.124-.113-.143-.2a6.337,6.337,0,0,1,.066-2.288,37.516,37.516,0,0,0,.352-4.229,1.732,1.732,0,0,0-.246-1.147c-.127-.16-.308-.271-.44-.426a1.749,1.749,0,0,1-.317-.709,9.4,9.4,0,0,1-.287-1.756,3.527,3.527,0,0,1,.041-1.566c.2-.343.956-.393,1.314-.526a9.329,9.329,0,0,0,1.627-.8" transform="translate(-10.187 -4.071)" fill="#cbd9ee"/>
        <path id="Path_19549" data-name="Path 19549" d="M45.317,40.262l-.677-.212a36.586,36.586,0,0,0,1.6-8.969,68.318,68.318,0,0,0-.557-8.37l.7-.1a69.01,69.01,0,0,1,.565,8.463,36.495,36.495,0,0,1-1.631,9.192" transform="translate(-9.729 -4.927)" fill="#cfdced"/>
        <path id="Path_19550" data-name="Path 19550" d="M36.523,9.433c.5-.214,1.233-1.312,1.233-1.312s-.033-4.24,1.9-6.163A8.081,8.081,0,0,1,45.871.083c.8.244,6.275,3.745,6.873,5.622a6.016,6.016,0,0,1-.353,3.889s-2.715,3.544-3.863,4.992-4.738,2.052-5.891,1.844A6.846,6.846,0,0,1,39.485,14.7a26.321,26.321,0,0,1-2.292-2.948,6.161,6.161,0,0,1-.67-2.315" transform="translate(-7.96 0)" fill="#b8c9e1"/>
        <g id="Group_18055" data-name="Group 18055" transform="translate(18.431 17.567)" style="mix-blend-mode: multiply;isolation: isolate">
          <g id="Group_18054" data-name="Group 18054">
            <g id="Group_18053" data-name="Group 18053" clip-path="url(#clip-path-5)">
              <path id="Path_19551" data-name="Path 19551" d="M23.567,42.042a8.753,8.753,0,0,0,.493.759,2.389,2.389,0,0,1,.292-1.2c.206-.361.522-.651.733-1.013a1.029,1.029,0,0,0,.007-1.169c.78-.091,1.482.511,2.265.572a3,3,0,0,0,1.012-.139,20.707,20.707,0,0,0,8.068-4.9c.41-.362.851-.841.742-1.378-.841-.174-1.758.393-2.546.05s-.966-1.374-1.026-2.235Q33.5,29.9,33.4,28.4a6.758,6.758,0,0,0-.321-1.9,6.719,6.719,0,0,0-1.408-2.022c-.513-.57-1.01-1.157-1.528-1.719-.448-.483-.932-.311-1.474.04a5.039,5.039,0,0,0-1.189,1.227l-.608.787c-.642.834-1.285,1.669-1.971,2.468a60.727,60.727,0,0,0-.914,7.726,58.488,58.488,0,0,1-.414,7.034" transform="translate(-23.567 -22.462)" fill="#e7e8ec"/>
            </g>
          </g>
        </g>
        <path id="Path_19552" data-name="Path 19552" d="M52.217,12.826a21.377,21.377,0,0,1-3.927.993,2.764,2.764,0,0,0-1.628.638l-.887,3.988s.994,1.141,1.809.99a5.321,5.321,0,0,0,2.176-1.1c.441-.383,3.1-3.728,3.1-3.728l.809-1.6Z" transform="translate(-9.976 -2.795)" fill="#ffaa8c"/>
        <path id="Path_19553" data-name="Path 19553" d="M51.381,17.92a4.393,4.393,0,0,0-2.628.83c-.54.441-1.4.722-1.523,1.095a.69.69,0,0,0-.02.539s-.078.285,1.067.232a4.553,4.553,0,0,0,2.467-.605,1.613,1.613,0,0,0,.638-2.09" transform="translate(-10.281 -3.9)" fill="#e7ecf5"/>
        <path id="Path_19554" data-name="Path 19554" d="M45.971,18.963s.853.9,1.331.848-.136.562-.136.562a1.4,1.4,0,0,1-.757-.262,2.96,2.96,0,0,1-.569-.564Z" transform="translate(-9.991 -4.133)" fill="#e7ecf5"/>
        <path id="Path_19555" data-name="Path 19555" d="M48.585,18.966a11.23,11.23,0,0,1-2.31-1.447l-.145.61a11.735,11.735,0,0,0,1.756,1.288c.353.1.7-.451.7-.451" transform="translate(-10.054 -3.818)" fill="#e7ecf5"/>
        <path id="Path_19556" data-name="Path 19556" d="M20.653,107.184V76.478L.908,65.079V95.785Z" transform="translate(-0.198 -14.184)" fill="#b9bccc"/>
        <path id="Path_19557" data-name="Path 19557" d="M28.05,108.962V78.256L26.155,79.35v30.706Z" transform="translate(-5.7 -17.056)" fill="#d9dae2"/>
        <path id="Path_19558" data-name="Path 19558" d="M19.744,77.338v-2.06L0,63.879v2.06Z" transform="translate(0 -13.922)" fill="#abab94"/>
        <path id="Path_19559" data-name="Path 19559" d="M100.922,65.824V35.118l-2.479.691V66.515Z" transform="translate(-21.455 -7.654)" fill="#d9dae2"/>
        <path id="Path_19560" data-name="Path 19560" d="M92.941,63.531V32.825L73.2,21.426V52.131Z" transform="translate(-15.953 -4.67)" fill="#afaeac"/>
        <path id="Path_19561" data-name="Path 19561" d="M25.247,70.57V68.51L85.68,32.828v2.06Z" transform="translate(-5.502 -7.155)" fill="#929285"/>
        <path id="Path_19562" data-name="Path 19562" d="M19.744,65.333,80.177,29.65l-19.744-11.4L0,53.934Z" transform="translate(0 -3.978)" fill="#a6a8ac"/>
        <path id="Path_19563" data-name="Path 19563" d="M49.307,44.219l14.118-8.151v-.386l-22.5,3.31v.386Z" transform="translate(-8.919 -7.777)" fill="#2f3a1e"/>
        <path id="Path_19564" data-name="Path 19564" d="M40.924,37.644l2.565,1.48.127.074,5.691,3.284,2.478-1.43.124-.071,11.515-6.648-8.383-4.84-1.828,1.056-.127.073h0Z" transform="translate(-8.919 -6.428)" fill="#487c3e"/>
        <path id="Path_19565" data-name="Path 19565" d="M41.633,37.79l7.709,4.451a.245.245,0,0,0,.221,0L63,34.481c.061-.035.062-.092,0-.127L55.294,29.9a.245.245,0,0,0-.221,0l-13.439,7.76c-.061.035-.062.092,0,.127" transform="translate(-9.064 -6.511)" fill="#acd4e3"/>
        <path id="Path_19566" data-name="Path 19566" d="M60.6,22.377a8.366,8.366,0,0,1-.716,2,1.712,1.712,0,0,1-2.342.7h0c-1.724-.606-1.895-.675-1.895-.675v0l-2.693-.379c.063-.3.127-.592.194-.858a27,27,0,0,0,.526-3.8,26.491,26.491,0,0,0,.092-3.432c.384-.476.654-.817.654-.817a5.2,5.2,0,0,0,1.189.443l1.743,1.1,1.191,1s1.437.327,1.881.431c.03.007.061.012.095.022a.279.279,0,0,0,.033.009,10.046,10.046,0,0,1,.05,4.256" transform="translate(-11.541 -3.293)" fill="#cfdced"/>
        <g id="Group_18058" data-name="Group 18058" transform="translate(41.411 16.066)" style="mix-blend-mode: multiply;isolation: isolate">
          <g id="Group_18057" data-name="Group 18057">
            <g id="Group_18056" data-name="Group 18056" clip-path="url(#clip-path-6)">
              <path id="Path_19567" data-name="Path 19567" d="M55.645,25.581v0L52.952,25.2c.064-.3.128-.592.195-.857a27.127,27.127,0,0,0,.526-3.8,2.5,2.5,0,0,0,.277.448,1.26,1.26,0,0,0,.853.509.08.08,0,0,0,.023,0c.3.019.6-.112.9-.081s.606.374.426.618c-.052.071-.138.126-.154.211v.007c-.014.111.095.2.194.253a4.908,4.908,0,0,0,.837.379,2.566,2.566,0,0,0-.159.68,7.328,7.328,0,0,0,.291,2.144c.014.028.029.056.045.085l.045.081c.05.081.109.163.173.246.031.038.062.078.1.116a.1.1,0,0,1,.014.016c-1.724-.606-1.895-.675-1.895-.677" transform="translate(-52.952 -20.543)" fill="#e7e8ec"/>
            </g>
          </g>
        </g>
        <path id="Path_19568" data-name="Path 19568" d="M58.258,25.353a2.035,2.035,0,0,0,1.414,1.132,6.334,6.334,0,0,0,2.083-.386c.247-.08.411-.136.411-.136s1.408-.743,1.682-1.646a3.725,3.725,0,0,0-.194-2.778c-.41-.48-.4-1.278-1.307-2.176a1.592,1.592,0,0,0-1.95-.239l-.151.8a2.617,2.617,0,0,0-.619,1.01c-1.733.179-1.4,1.324-1.4,1.324s-.048.115-.1.272a2.559,2.559,0,0,0-.158.68,7.268,7.268,0,0,0,.291,2.143" transform="translate(-12.634 -4.117)" fill="#cfdced"/>
        <g id="Group_18061" data-name="Group 18061" transform="translate(45.333 18.413)" style="mix-blend-mode: multiply;isolation: isolate">
          <g id="Group_18060" data-name="Group 18060">
            <g id="Group_18059" data-name="Group 18059" clip-path="url(#clip-path-7)">
              <path id="Path_19569" data-name="Path 19569" d="M58.258,26.367A2.035,2.035,0,0,0,59.672,27.5a6.334,6.334,0,0,0,2.083-.386,8.039,8.039,0,0,0-2.25-2.028.576.576,0,0,1-.235-.251c-.1-.3.314-.646.133-.906a.518.518,0,0,0-.368-.159,4.942,4.942,0,0,1-.91-.226,2.559,2.559,0,0,0-.158.68,7.268,7.268,0,0,0,.291,2.143" transform="translate(-57.966 -23.545)" fill="#e7e8ec"/>
            </g>
          </g>
        </g>
        <path id="Path_19570" data-name="Path 19570" d="M58.21,18.973c-.293.083-1.836.088-1.979.148s-1.544.965-1.544.965a5.144,5.144,0,0,0-.673.967c.014.136.417.362.637.332a2.986,2.986,0,0,0,.746-.406l.642-.41a3.887,3.887,0,0,0,1.369.289c.408-.08,1.5-.135,1.747-.518s-.123-.955-.123-.955Z" transform="translate(-11.772 -4.135)" fill="#ffc527"/>
        <path id="Path_19571" data-name="Path 19571" d="M51.516,19.051c-.342-.336-1.387.017-1.891.917s-.335,1.2-.3,1.269,2.3,2.17,2.3,2.17l2.378-1.919Z" transform="translate(-10.738 -4.125)" fill="#3d252a"/>
        <path id="Path_19572" data-name="Path 19572" d="M54.715,17.483c-.342-.336-1.387.017-1.891.918s-.336,1.195-.3,1.268,2.3,2.17,2.3,2.17l2.378-1.919Z" transform="translate(-11.436 -3.783)" fill="#3d252a"/>
        <path id="Path_19573" data-name="Path 19573" d="M60.4,24.306l-5.416,3.115s-3.87-2.668-3.916-3a6.211,6.211,0,0,1,.637-2.47.7.7,0,0,1,.175-.2c.5-.346,4.089-2.835,4.493-2.565s3.96,3.956,3.96,3.956Z" transform="translate(-11.129 -4.178)" fill="#d4d9e6"/>
        <path id="Path_19574" data-name="Path 19574" d="M55.12,27.135,54.982,28.2s-3.87-2.667-3.915-3A6.211,6.211,0,0,1,51.7,22.73Z" transform="translate(-11.129 -4.954)" fill="#bec4d5"/>
        <path id="Path_19575" data-name="Path 19575" d="M61.426,24.256l-5.35,3.053v1.22l5.415-3.114Z" transform="translate(-12.222 -5.287)" fill="#979fb8"/>
        <path id="Path_19576" data-name="Path 19576" d="M32,31.2a18.746,18.746,0,0,0,.2-3.752s-.827-5.309-1.733-6.74-1.606-2.363-2.688-2.571-1.321-.061-1.53.352a39.263,39.263,0,0,0-1.416,6.918c-.219,2.481-.638,6.466-.4,7.11s.556,3.231,1.038,3.8S32,31.2,32,31.2" transform="translate(-5.31 -3.933)" fill="#cfdced"/>
        <path id="Path_19577" data-name="Path 19577" d="M42.8,28.994c.572.9.167,1.194-.551,1.706a16.6,16.6,0,0,0-2.478,1.644,8.435,8.435,0,0,1-1.4,1.922c-.721.652-5.494,3.675-5.494,3.675s-4.187,1.6-5.032,1.721-1.768-.906-1.93-1.172a12.45,12.45,0,0,1-.829-2.807c-.081-.791.995-2.72,2.549-3.625a7.4,7.4,0,0,1,3.316-.9s2.506-1.609,2.723-1.721,2.34-1.45,2.34-1.45,1.376-.357,1.577-.363a22.214,22.214,0,0,0,2.046-.876s1.23-.334,1.452-.162,1.71,2.412,1.71,2.412" transform="translate(-5.466 -5.783)" fill="#cfdced"/>
        <path id="Path_19578" data-name="Path 19578" d="M44.573,27.5a2.609,2.609,0,0,0,2.133,1.416c.048.005.1.009.151.011a1.718,1.718,0,0,0,.913-.3s1.162-.7,1.412-.87,2.66-.9,2.66-.9a12.556,12.556,0,0,0,1.637-.795.377.377,0,0,0,.1-.217.3.3,0,0,0-.176-.327,14.107,14.107,0,0,0-2.135.575l-.565-.02.059-.192.068-.224,2.653-1.072a.988.988,0,0,0,.249-.233.33.33,0,0,0,.041-.379.445.445,0,0,0-.552-.164l-1.431.31-1.589.608-.155.06.014-.2s2.018-.877,2.1-.945a11.409,11.409,0,0,1,1.252-.15.26.26,0,0,0,.188-.188.3.3,0,0,0-.055-.234,2.232,2.232,0,0,0-.434-.47l-.505-.012s-1.218.19-1.379.235-1.776.751-2.065.877l-.044.019.041-.21,2.184-.917,1.178-.174a.711.711,0,0,0,.09-.171.284.284,0,0,0-.2-.393,5.487,5.487,0,0,0-2.274-.063,19.587,19.587,0,0,0-2.4,1.34c-.314.335-.619.686-.919,1.035a2.3,2.3,0,0,1-.468.482,5.465,5.465,0,0,0-.769.623c-.15.142-.3.285-.447.429-.211.2-.651.507-.684.806a1.853,1.853,0,0,0,.128.992" transform="translate(-9.683 -4.729)" fill="#ffc527"/>
        <g id="Group_18064" data-name="Group 18064" transform="translate(40.828 19.619)" style="mix-blend-mode: multiply;isolation: isolate">
          <g id="Group_18063" data-name="Group 18063">
            <g id="Group_18062" data-name="Group 18062" clip-path="url(#clip-path-8)">
              <path id="Path_19579" data-name="Path 19579" d="M52.521,26.392l2.653-1.072a.984.984,0,0,0,.249-.233c-.93.295-1.83.665-2.732,1.039a1.128,1.128,0,0,0-.358.2.367.367,0,0,0-.108.379c.076-.032.15-.063.228-.093Z" transform="translate(-52.206 -25.087)" fill="#ebe5b0"/>
            </g>
          </g>
        </g>
        <g id="Group_18067" data-name="Group 18067" transform="translate(40.137 18.563)" style="mix-blend-mode: multiply;isolation: isolate">
          <g id="Group_18066" data-name="Group 18066">
            <g id="Group_18065" data-name="Group 18065" clip-path="url(#clip-path-9)">
              <path id="Path_19580" data-name="Path 19580" d="M54.908,23.933a.259.259,0,0,0,.188-.187.408.408,0,0,1-.2.023,2.767,2.767,0,0,0-.754-.009c-.209.046-.383.188-.6.227a1.549,1.549,0,0,0-.58.177,12.874,12.874,0,0,1-1.186.6c-.311.133-.529.222-.429.632-.007-.028.158-.125.35-.229l-.154.059.014-.2s2.018-.877,2.1-.945a11.826,11.826,0,0,1,1.252-.15" transform="translate(-51.323 -23.736)" fill="#ebe5b0"/>
            </g>
          </g>
        </g>
        <g id="Group_18070" data-name="Group 18070" transform="translate(39.309 17.491)" style="mix-blend-mode: multiply;isolation: isolate">
          <g id="Group_18069" data-name="Group 18069">
            <g id="Group_18068" data-name="Group 18068" clip-path="url(#clip-path-10)">
              <path id="Path_19581" data-name="Path 19581" d="M53.787,22.561a.744.744,0,0,0,.09-.171c-.377-.022-.754-.028-1.13-.024a3.158,3.158,0,0,0-.621.058,2.825,2.825,0,0,0-.67.264c-.4.206-1.556.563-1.078,1.212.016-.019.033-.039.051-.057l-.044.019.041-.21,2.183-.917Z" transform="translate(-50.263 -22.365)" fill="#ebe5b0"/>
            </g>
          </g>
        </g>
        <g id="Group_18073" data-name="Group 18073" transform="translate(37.023 21.111)" style="mix-blend-mode: multiply;isolation: isolate">
          <g id="Group_18072" data-name="Group 18072">
            <g id="Group_18071" data-name="Group 18071" clip-path="url(#clip-path-11)">
              <path id="Path_19582" data-name="Path 19582" d="M47.341,30.067c.048.005.1.009.151.011a1.718,1.718,0,0,0,.913-.3s1.162-.7,1.412-.87,2.66-.9,2.66-.9a12.5,12.5,0,0,0,1.636-.795.368.368,0,0,0,.1-.217,1.063,1.063,0,0,0-.133.091.049.049,0,0,0-.021.042c-.444.2-.889.414-1.335.615a10.331,10.331,0,0,1-1.368.412,12.055,12.055,0,0,0-1.494.493c-.314.137-.622.3-.924.465-.544.3-1.084.606-1.593.953" transform="translate(-47.341 -26.994)" fill="#ebe5b0"/>
            </g>
          </g>
        </g>
        <path id="Path_19583" data-name="Path 19583" d="M57.867,21.891a.31.31,0,0,0,.052.156c.149.2.932-.1.932-.1l.386-.031-.817.361s-.008.018-.021.045a1.817,1.817,0,0,0-.1.256c-.045.16-.066.339.041.413.213.147.629-.045.629-.045s1.064-.231,1.117-.227c-.045.024-.514.3-.514.3s-.023.014-.058.041a.968.968,0,0,0-.325.375.1.1,0,0,0-.01.039c-.045.214.207.417.207.417l.327-.041a7.071,7.071,0,0,0,.931-.16c.248-.085,1.1-.918,1.111-1.147a7.664,7.664,0,0,0-.188-1.024l-.269-.586a3.7,3.7,0,0,0-.2-1.13c-.178-.35-.454-.538-.52-.691a1.546,1.546,0,0,0-.56-.706.7.7,0,0,0-.827.067c-.217.2-1.349,1.333-1.349,1.333a.818.818,0,0,0,.166.58l0,0a.546.546,0,0,0,.142.109c.283.153.836-.231,1.078-.418l0,0,.069-.052c.016-.011.026-.022.033-.027l.229-.134.222.056-.676.6-.231.2-.9.537a1.84,1.84,0,0,0-.113.629" transform="translate(-12.606 -3.991)" fill="#ffc527"/>
        <g id="Group_18076" data-name="Group 18076" transform="translate(46.508 15.513)" style="mix-blend-mode: multiply;isolation: isolate">
          <g id="Group_18075" data-name="Group 18075">
            <g id="Group_18074" data-name="Group 18074" clip-path="url(#clip-path-12)">
              <path id="Path_19584" data-name="Path 19584" d="M60.653,19.838a1.631,1.631,0,0,0-1.061.578l.069-.052c.015-.011.026-.022.033-.027l.228-.134.223.056-.676.6c.084-.042.167-.084.25-.131a2.146,2.146,0,0,0,.934-.886" transform="translate(-59.469 -19.836)" fill="#ebe5b0"/>
            </g>
          </g>
        </g>
        <g id="Group_18079" data-name="Group 18079" transform="translate(46.565 19.49)" style="mix-blend-mode: multiply;isolation: isolate">
          <g id="Group_18078" data-name="Group 18078">
            <g id="Group_18077" data-name="Group 18077" clip-path="url(#clip-path-13)">
              <path id="Path_19585" data-name="Path 19585" d="M59.548,24.922c-.045.214.208.416.208.416l.327-.041a.939.939,0,0,1-.295-.11.587.587,0,0,1-.24-.265" transform="translate(-59.542 -24.922)" fill="#ebe5b0"/>
            </g>
          </g>
        </g>
        <g id="Group_18082" data-name="Group 18082" transform="translate(45.653 17.995)" style="mix-blend-mode: multiply;isolation: isolate">
          <g id="Group_18081" data-name="Group 18081">
            <g id="Group_18080" data-name="Group 18080" clip-path="url(#clip-path-14)">
              <path id="Path_19586" data-name="Path 19586" d="M58.413,23.607c-.045.16-.067.338.041.412.214.147.629-.044.629-.044s1.064-.231,1.118-.227c-.045.023-.514.3-.514.3s-.023.014-.058.041a4.914,4.914,0,0,0,.83-.282,1.324,1.324,0,0,0,.738-.8,3.551,3.551,0,0,1-1.931.913,1.06,1.06,0,0,1-.578.008.428.428,0,0,1-.274-.324" transform="translate(-58.376 -23.01)" fill="#ebe5b0"/>
            </g>
          </g>
        </g>
        <g id="Group_18085" data-name="Group 18085" transform="translate(45.261 16.693)" style="mix-blend-mode: multiply;isolation: isolate">
          <g id="Group_18084" data-name="Group 18084">
            <g id="Group_18083" data-name="Group 18083" clip-path="url(#clip-path-15)">
              <path id="Path_19587" data-name="Path 19587" d="M57.874,22.552a.31.31,0,0,0,.052.156c.149.2.932-.1.932-.1l.386-.031-.817.361s-.008.018-.021.045a.866.866,0,0,1,.254-.141,10.868,10.868,0,0,0,1.267-.523,1.947,1.947,0,0,0,.924-.978A6.563,6.563,0,0,1,58.73,22.58a1.3,1.3,0,0,1-.547.1.606.606,0,0,1-.308-.125" transform="translate(-57.874 -21.346)" fill="#ebe5b0"/>
            </g>
          </g>
        </g>
        <g id="Group_18088" data-name="Group 18088" transform="translate(45.523 28.949)" style="mix-blend-mode: multiply;isolation: isolate">
          <g id="Group_18087" data-name="Group 18087">
            <g id="Group_18086" data-name="Group 18086" clip-path="url(#clip-path-16)">
              <path id="Path_19588" data-name="Path 19588" d="M67.351,37.275l-8.693,5.019c-.663.382-.58,1.051.186,1.494l4.487,2.59a5.511,5.511,0,0,0,3.633.107l7.647-5.019c.663-.382.579-1.051-.186-1.493l-4.487-2.591c-.414-.239.31-.365.31-.365H68.44a2.27,2.27,0,0,0-1.089.258" transform="translate(-58.21 -37.017)" fill="#c3c3c3"/>
            </g>
          </g>
        </g>
        <path id="Path_19589" data-name="Path 19589" d="M60.353,42.088l8.336-4.813a2.877,2.877,0,0,1,2.587.107l4.487,2.591.092.056L76.4,40v.813a.768.768,0,0,1-.448.653l-8.692,5.018a2.875,2.875,0,0,1-2.587-.107l-4.487-2.59a1.065,1.065,0,0,1-.633-.842V42.13Z" transform="translate(-12.978 -8.068)" fill="#b9bccc"/>
        <path id="Path_19590" data-name="Path 19590" d="M67.255,45.432l8.693-5.019c.663-.382.58-1.051-.186-1.494l-4.487-2.59a2.875,2.875,0,0,0-2.587-.107L60,41.241c-.663.382-.579,1.051.186,1.493l4.487,2.591a2.875,2.875,0,0,0,2.587.107" transform="translate(-12.978 -7.838)" fill="#e7e7e7"/>
        <path id="Path_19591" data-name="Path 19591" d="M55.557,28.173v1.943l5.533,5.139L61.082,39.3,65.573,41.9v-7.1Z" transform="translate(-12.109 -6.14)" fill="#bec4d5"/>
        <path id="Path_19592" data-name="Path 19592" d="M61.715,23.627l-6.158,3.555L65.573,33.8l6.158-3.555Z" transform="translate(-12.109 -5.149)" fill="#e3e5f0"/>
        <path id="Path_19593" data-name="Path 19593" d="M68.365,42.75l6.158-3.555v-7.1l-6.158,3.555Z" transform="translate(-14.9 -6.994)" fill="#d9dae2"/>
      </g>
    </g>
  </g>
</svg>
