<svg xmlns="http://www.w3.org/2000/svg" xmlns:xlink="http://www.w3.org/1999/xlink" width="144" height="143.988" viewBox="0 0 144 143.988">
  <defs>
    <clipPath id="clip-path">
      <rect id="Rectangle_17689" data-name="Rectangle 17689" width="144" height="143.988" fill="none"/>
    </clipPath>
  </defs>
  <g id="Group_18001" data-name="Group 18001" transform="translate(-908 -1942)">
    <g id="Group_17992" data-name="Group 17992" transform="translate(908 1942)">
      <g id="Group_17992-2" data-name="Group 17992" clip-path="url(#clip-path)">
        <path id="Path_19132" data-name="Path 19132" d="M72.006,71.994l-12.5,70.9A71.994,71.994,0,0,1,72.006,0Z" fill="#57b1e4"/>
        <path id="Path_19133" data-name="Path 19133" d="M72.006,71.994V0a71.994,71.994,0,0,1,0,143.988,63.246,63.246,0,0,1-12.5-1.094Z" fill="#0088d6"/>
      </g>
    </g>
    <path id="Path_72972" data-name="Path 72972" d="M6.732-4.1v-2.58H9.444V-4.1ZM2.52-4.1v-2.58h2.7V-4.1ZM6.732-8.088v-2.076H5.22v2.076H1.08V-2.04H2.52V-2.7h2.7V1.044H6.732V-2.7H9.444v.6h1.5V-8.088Zm11.592.816A8.692,8.692,0,0,0,20.04-8.916a9.206,9.206,0,0,0,1.788,1.644ZM17.9-6.12h1.524v.66h-2.9v1.176h2.9v2.052c0,.132-.048.18-.2.18-.12,0-.588,0-1-.024a4.792,4.792,0,0,1,.372,1.2,4.161,4.161,0,0,0,1.692-.2c.408-.192.5-.516.5-1.128V-4.284h3.048V-5.46H20.8v-.66h1.548v-.792a10.225,10.225,0,0,0,1.092.612,8.98,8.98,0,0,1,.828-1.32,8.408,8.408,0,0,1-3.576-2.532h-1.4a8.169,8.169,0,0,1-3.372,2.64,6.348,6.348,0,0,1,.744,1.248A11.82,11.82,0,0,0,17.9-6.972ZM21.24-3.54a12.428,12.428,0,0,1,1.44,2.2l1.2-.588a13.041,13.041,0,0,0-1.512-2.136Zm-3.708-.468a4.8,4.8,0,0,1-1.44,1.968,7.365,7.365,0,0,1,1.056.708,7,7,0,0,0,1.62-2.376ZM16.188-8.052a9.655,9.655,0,0,0-1.956-1.836l-1.068.852a9.109,9.109,0,0,1,1.884,1.92Zm-.312,2.544H13.164V-4.2h1.32v2.532A15.95,15.95,0,0,1,12.9-.564L13.6.924c.636-.5,1.152-.972,1.668-1.44A4.027,4.027,0,0,0,18.528.816c1.44.06,3.852.036,5.3-.036a6.1,6.1,0,0,1,.444-1.44c-1.6.12-4.32.156-5.724.1A3.021,3.021,0,0,1,15.876-1.74Z" transform="translate(933 1992)" fill="#fff"/>
    <path id="Path_72971" data-name="Path 72971" d="M4.212-7.812a8.97,8.97,0,0,1-.444,1.32l.792.168H2.208l.6-.168A4.732,4.732,0,0,0,2.4-7.812ZM4.056-3.024h1.98v-1.2H4.056v-.924H6.144V-6.324H4.932c.168-.36.36-.84.576-1.356l-.7-.132H6.048V-8.976H4.056v-1.092H2.676v1.092H.66v1.164H2l-.732.168a5.41,5.41,0,0,1,.36,1.32H.528v1.176H2.676v.924H.564v1.2H2.388A7.873,7.873,0,0,1,.228-.708,5.274,5.274,0,0,1,1.152.3,8.476,8.476,0,0,0,2.676-1.392V1.02h1.38V-1.536A11.23,11.23,0,0,1,4.932-.6L5.76-1.62c-.276-.216-1.272-1.008-1.7-1.308Zm7.536-3.192H7.848V-7.9A19.446,19.446,0,0,0,11.532-9l-1.14-1.044A14,14,0,0,1,7.344-8.988l-.84-.24v4.164C6.5-3.408,6.36-1.368,4.98.1A3.288,3.288,0,0,1,6,1.068C7.584-.576,7.836-3.108,7.848-4.9H9.072V.972h1.38V-4.9h1.14ZM24-2.952H19.284v-.672A7.06,7.06,0,0,0,20.628-4.9,17.361,17.361,0,0,1,22.7-3.24l1.008-1.08A18.768,18.768,0,0,0,21.36-6.012a8.281,8.281,0,0,0,.48-1.152l-1.272-.264h3.084V-8.784H19.284v-1.368H17.808v1.368h-4.26v1.356h2.244A5.953,5.953,0,0,1,13.26-4.14a9.7,9.7,0,0,1,1.188.972,7.806,7.806,0,0,0,1.788-1.908,9.735,9.735,0,0,1,1.14.936l.852-1a11.865,11.865,0,0,0-1.38-1.008,7.588,7.588,0,0,0,.42-1.02l-1.14-.264h4.26A5.113,5.113,0,0,1,17.832-4.38a6.822,6.822,0,0,1,.84.672h-.864v.756H13.224v1.368h4.584V1.032h1.476V-1.584H24Z" transform="translate(1005 1992)" fill="#fff"/>
    <g id="Group_58445" data-name="Group 58445">
      <path id="Path_72974" data-name="Path 72974" d="M-4.424-4.56C-2.68-4.56-1.4-5.984-1.4-8.368s-1.28-3.76-3.024-3.76-3.008,1.376-3.008,3.76S-6.168-4.56-4.424-4.56Zm0-1.568c-.56,0-1.04-.576-1.04-2.24s.48-2.192,1.04-2.192,1.04.528,1.04,2.192S-3.864-6.128-4.424-6.128ZM-4.008.224h1.616L4.04-12.128H2.408Zm8.448,0C6.168.224,7.448-1.2,7.448-3.584S6.168-7.36,4.44-7.36,1.432-5.968,1.432-3.584,2.712.224,4.44.224Zm0-1.584c-.56,0-1.056-.56-1.056-2.224,0-1.68.5-2.192,1.056-2.192s1.024.512,1.024,2.192C5.464-1.92,5-1.36,4.44-1.36Z" transform="translate(960.932 2022)" fill="#fff"/>
      <path id="Path_72973" data-name="Path 72973" d="M-2.856-8.057H-1.04v3.442H-2.856V0H-7V-4.614h-7.061l-.19-2.681,7.236-14.033h4.16Zm-7.368,0H-7V-15.19l-.088.161ZM13.9-18.94,7.163,0H2.783L9.551-17.886H1v-3.442H13.9Z" transform="translate(936.253 2025)" fill="#fff"/>
    </g>
    <g id="Group_58446" data-name="Group 58446">
      <path id="Path_72976" data-name="Path 72976" d="M-4.424-4.56C-2.68-4.56-1.4-5.984-1.4-8.368s-1.28-3.76-3.024-3.76-3.008,1.376-3.008,3.76S-6.168-4.56-4.424-4.56Zm0-1.568c-.56,0-1.04-.576-1.04-2.24s.48-2.192,1.04-2.192,1.04.528,1.04,2.192S-3.864-6.128-4.424-6.128ZM-4.008.224h1.616L4.04-12.128H2.408Zm8.448,0C6.168.224,7.448-1.2,7.448-3.584S6.168-7.36,4.44-7.36,1.432-5.968,1.432-3.584,2.712.224,4.44.224Zm0-1.584c-.56,0-1.056-.56-1.056-2.224,0-1.68.5-2.192,1.056-2.192s1.024.512,1.024,2.192C5.464-1.92,5-1.36,4.44-1.36Z" transform="translate(1032.912 2022)" fill="#fff"/>
      <path id="Path_72975" data-name="Path 72975" d="M-13.359-10.488l1.055-10.84H-1.978v3.545H-8.906l-.381,4.57a4.39,4.39,0,0,1,2.476-.806,4.808,4.808,0,0,1,4.065,1.875,8.6,8.6,0,0,1,1.428,5.3,7.621,7.621,0,0,1-1.7,5.171A5.7,5.7,0,0,1-7.559.293a6.314,6.314,0,0,1-3.12-.8,5.882,5.882,0,0,1-2.263-2.219,6.39,6.39,0,0,1-.842-3.223h4.1a3.86,3.86,0,0,0,.659,2.065,1.725,1.725,0,0,0,1.436.732,1.735,1.735,0,0,0,1.582-.989A6.17,6.17,0,0,0-5.449-7.09a4.8,4.8,0,0,0-.667-2.783,2.16,2.16,0,0,0-1.868-.937A2.193,2.193,0,0,0-9.8-10l-.264.366ZM5.083-12.554H7.09a1.875,1.875,0,0,0,1.677-.8A3.775,3.775,0,0,0,9.3-15.483a3.177,3.177,0,0,0-.549-1.985,1.766,1.766,0,0,0-1.472-.71,1.741,1.741,0,0,0-1.414.674,2.6,2.6,0,0,0-.549,1.7H1.172a5.86,5.86,0,0,1,.769-3,5.4,5.4,0,0,1,2.153-2.073,6.357,6.357,0,0,1,3.069-.747A6.334,6.334,0,0,1,11.777-20a5.928,5.928,0,0,1,1.67,4.453,5.071,5.071,0,0,1-.754,2.688,5.137,5.137,0,0,1-1.985,1.9,4.562,4.562,0,0,1,2.249,1.934,6.018,6.018,0,0,1,.74,3.047,5.981,5.981,0,0,1-1.809,4.556A6.628,6.628,0,0,1,7.134.293,6.042,6.042,0,0,1,2.688-1.4,5.983,5.983,0,0,1,.981-5.845H5.127a3.042,3.042,0,0,0,.6,1.919,1.848,1.848,0,0,0,1.523.776A2.038,2.038,0,0,0,8.943-3.94,3.317,3.317,0,0,0,9.565-6.05q0-3.149-2.446-3.164H5.083Z" transform="translate(1007.784 2025)" fill="#fff"/>
    </g>
  </g>
</svg>
