<svg id="Group_41708" data-name="Group 41708" xmlns="http://www.w3.org/2000/svg" xmlns:xlink="http://www.w3.org/1999/xlink" width="77.022" height="101.071" viewBox="0 0 77.022 101.071">
  <defs>
    <clipPath id="clip-path">
      <rect id="Rectangle_29408" data-name="Rectangle 29408" width="77.022" height="101.071" fill="none"/>
    </clipPath>
    <clipPath id="clip-path-2">
      <rect id="Rectangle_29407" data-name="Rectangle 29407" width="77.021" height="101.071" fill="none"/>
    </clipPath>
    <clipPath id="clip-path-3">
      <rect id="Rectangle_29404" data-name="Rectangle 29404" width="28.513" height="16.516" fill="none"/>
    </clipPath>
  </defs>
  <g id="Group_41707" data-name="Group 41707" clip-path="url(#clip-path)">
    <g id="Group_41706" data-name="Group 41706">
      <g id="Group_41705" data-name="Group 41705" clip-path="url(#clip-path-2)">
        <path id="Path_46982" data-name="Path 46982" d="M65.772,20.8c-1.628.495-3.258,5.8-4.516,9.7s-1.566,4.4-1.631,5.449,1.781,4.1,3.139,4.03l.525-.951s3.781-.942,4.246-2.741,1.543-8.093,1.943-10.1-.241-6.439-3.705-5.386" transform="translate(-11.364 -3.934)" fill="#52b6c5"/>
        <path id="Path_46983" data-name="Path 46983" d="M61.772,40.2c1.425-1.514-.286-6.8-1.48-10.728s.164-1.259-.448-2.124-1.166-.89-1.166-.89l-.937-1.308a9.606,9.606,0,0,0-3.9,1.215l.056,1.108a4.46,4.46,0,0,0,.227,2.952c.674,1.732.847,3.911,1.73,5.763s2.884,7.235,5.918,4.011" transform="translate(-10.245 -4.794)" fill="#52b6c5"/>
        <path id="Path_46984" data-name="Path 46984" d="M30.505,44.268c-1.415-1.267-1.246-2.287.173-5.345s5.895-4.216,5.895-4.216l.844-.55s3.427.633,4.75,1.738Z" transform="translate(-5.627 -6.51)" fill="#d1edff"/>
        <g id="Group_41698" data-name="Group 41698" transform="translate(2.458 84.555)" opacity="0.3" style="mix-blend-mode: multiply;isolation: isolate">
          <g id="Group_41697" data-name="Group 41697">
            <g id="Group_41696" data-name="Group 41696" clip-path="url(#clip-path-3)">
              <g id="Group_41695" data-name="Group 41695" opacity="0.2" style="mix-blend-mode: multiply;isolation: isolate">
                <g id="Group_41694" data-name="Group 41694">
                  <g id="Group_41693" data-name="Group 41693" clip-path="url(#clip-path-3)">
                    <path id="Path_46985" data-name="Path 46985" d="M27.343,106.891c5.582,3.223,5.612,8.438.066,11.661-5.571,3.238-14.573,3.238-20.157.015s-5.637-8.453-.066-11.69c5.546-3.223,14.573-3.208,20.157.015" transform="translate(-3.037 -104.466)" fill="#00275e"/>
                  </g>
                </g>
              </g>
            </g>
          </g>
        </g>
        <path id="Path_46986" data-name="Path 46986" d="M41.388,32.794s1.051.155,1.253.162a13.413,13.413,0,0,1,2.021-.36,1.464,1.464,0,0,1,.781.508,8.313,8.313,0,0,1,1.17.313c.193.112.019.779.064.864s.38.6.2.861a8.086,8.086,0,0,1-.712,1.094,27.863,27.863,0,0,1-5.879-1.319c-2.466-.85,1.1-2.124,1.1-2.124" transform="translate(-7.513 -6.211)" fill="#ffc49a"/>
        <path id="Path_46987" data-name="Path 46987" d="M10.019,110.526s-.8.1-.955.411a22.018,22.018,0,0,0-.218,3.332,20.7,20.7,0,0,0,4.1,3.1c1.982,1.017,3.7,1.46,4.461.792s.293-1.438-1.339-2.764-3.206-4.875-3.206-4.872-2.847,0-2.847,0" transform="translate(-1.686 -21.066)" fill="#003452"/>
        <path id="Path_46988" data-name="Path 46988" d="M22.9,105.345s-.8.1-.955.411a22.123,22.123,0,0,0-.218,3.332,20.723,20.723,0,0,0,4.1,3.1c1.982,1.017,3.7,1.46,4.461.792s.293-1.439-1.339-2.764-3.205-4.875-3.206-4.872-2.847,0-2.847,0" transform="translate(-4.141 -20.078)" fill="#003452"/>
        <path id="Path_46989" data-name="Path 46989" d="M27.787,20.195c1.9.055,2.544,2.58,3.432,5.833a53.574,53.574,0,0,0,3.2,7.84l-.29.965a9.2,9.2,0,0,1-3.911,1.429l-3.084-5.037Z" transform="translate(-5.173 -3.849)" fill="#d1edff"/>
        <path id="Path_46990" data-name="Path 46990" d="M8.758,59.523l-.147,41.539a5.1,5.1,0,0,0,4.962-.108s4.7-35.884,4.782-36.736c.074-.786.664,32.761.664,32.761s2.913,1.67,5.131-.6l2.616-39.742Z" transform="translate(-1.641 -10.795)" fill="#0088d6"/>
        <path id="Path_46991" data-name="Path 46991" d="M12.529,21.476a23.038,23.038,0,0,0-5.849,3.4L8.39,52.515s3.577,2.616,10.886.7c5.955-1.557,7.519-4.065,7.519-4.065s.544-13.584-.015-19.329a25.659,25.659,0,0,0-2.892-9.691,17.056,17.056,0,0,0-4.165-.229Z" transform="translate(-1.273 -3.787)" fill="#eaf7ff"/>
        <path id="Path_46992" data-name="Path 46992" d="M21.283.946A7.749,7.749,0,0,0,17.555.64c-2.611.278-4.809,1.547-5.247,4.347-.329,2.108.459,4.266,1.293,6.166,1.1,2.52,1.873,1.6,1.873,1.6l6.4-2.581a7.11,7.11,0,0,0,1.971-.843c.782-.686.525-1.858.668-2.777a4.646,4.646,0,0,0-.3-3.411,5.118,5.118,0,0,0-2.392-1.981c-.186-.082-.367-.155-.544-.218" transform="translate(-2.331 -0.105)" fill="#42210b"/>
        <path id="Path_46993" data-name="Path 46993" d="M15.074,17.1l-.164-5.535a1.293,1.293,0,0,1-1.154-1.631c.24-1.525,1.667-.522,1.918-.074,0,0,.321-5.251,3.1-5.756s5.479.092,5.55,1.447.161,6.09,0,7.85-1.539,2.481-4.08,2.41l.173,2.847s-1.275.936-4.835.066Z" transform="translate(-2.616 -0.748)" fill="#ffc49a"/>
        <path id="Path_46994" data-name="Path 46994" d="M19.315,23.642l1.193.828S20,36.669,19.251,44.2c-.085.859,2.408,2.474,2.408,2.474s2.147-2.522,2.1-3.553c-.268-6.208-2.593-18.811-2.593-18.811l.707-1.112-1.369-.872Z" transform="translate(-3.669 -4.255)" fill="#0088d6"/>
        <path id="Path_46995" data-name="Path 46995" d="M20.316,19.335a1.93,1.93,0,0,1,.677.1,3.4,3.4,0,0,1,1.231,2.248,8.032,8.032,0,0,1-.43,2.406L19.488,22.01l-1.45,2.8A5.912,5.912,0,0,1,15.894,23.7a8.071,8.071,0,0,1-1.988-2.323c.4-1.013.669-1.615.669-1.615.094-.232.533-.341.533-.341s2.455,2.227,4.38,2.336c0,0,.687-.321.827-2.419" transform="translate(-2.65 -3.685)" fill="#fff"/>
        <path id="Path_46996" data-name="Path 46996" d="M18.122,40.758s1.043-.187,1.238-.252a12.858,12.858,0,0,1,1.858-1.2,1.176,1.176,0,0,1,.863.363,6.107,6.107,0,0,1,1.192-.03c.211.072.193.987.255,1.078s.5.625.383,1.026a14.122,14.122,0,0,1-.439,1.654,20.7,20.7,0,0,1-5.934.469c-2.555-.181.584-3.11.584-3.11" transform="translate(-3.152 -7.49)" fill="#ffc49a"/>
        <path id="Path_46997" data-name="Path 46997" d="M6.194,24.88c-1.628.495-3.258,5.8-4.516,9.7S.112,38.985.047,40.031,0,44.064,0,44.064l.208-1.082a5.847,5.847,0,0,0,2.975,1.079l.525-.951s3.781-.942,4.246-2.741S9.5,32.276,9.9,30.266s-.241-6.439-3.705-5.386" transform="translate(0 -4.712)" fill="#d1edff"/>
        <path id="Path_46998" data-name="Path 46998" d="M25.236,5.87a1.962,1.962,0,0,0-.151-1.941,3.7,3.7,0,0,0-1.56-1.276c-1.521-.736-5.782-1.54-5.9,1.1-.058,1.32,1.079,3.51,2.654,3.237.677-.117,1.075-.75,1.819-.541.373.105,1.38,1.054,1.426.041a1.385,1.385,0,0,0,1.711-.623" transform="translate(-3.359 -0.369)" fill="#42210b"/>
        <path id="Path_46999" data-name="Path 46999" d="M15.024,8.783a4.042,4.042,0,0,1,1.422,2.632l.529.012c-.026-.7.025-1.324,0-2.025A4.835,4.835,0,0,0,18.1,5.252c-.128-.6-.484-1.255-1.091-1.31s-1.077.539-1.337,1.1a6.985,6.985,0,0,0-.65,3.743" transform="translate(-2.855 -0.751)" fill="#42210b"/>
        <g id="Group_41704" data-name="Group 41704" transform="translate(45.403 84.555)" opacity="0.3" style="mix-blend-mode: multiply;isolation: isolate">
          <g id="Group_41703" data-name="Group 41703">
            <g id="Group_41702" data-name="Group 41702" clip-path="url(#clip-path-3)">
              <g id="Group_41701" data-name="Group 41701" opacity="0.2" style="mix-blend-mode: multiply;isolation: isolate">
                <g id="Group_41700" data-name="Group 41700">
                  <g id="Group_41699" data-name="Group 41699" clip-path="url(#clip-path-3)">
                    <path id="Path_47000" data-name="Path 47000" d="M60.3,106.891c-5.582,3.223-5.612,8.438-.066,11.661,5.571,3.238,14.573,3.238,20.157.015s5.637-8.453.066-11.69c-5.546-3.223-14.573-3.208-20.157.015" transform="translate(-56.095 -104.466)" fill="#00275e"/>
                  </g>
                </g>
              </g>
            </g>
          </g>
        </g>
        <path id="Path_47001" data-name="Path 47001" d="M82.238,110.526s.8.1.955.411a22.018,22.018,0,0,1,.218,3.332,20.7,20.7,0,0,1-4.1,3.1c-1.982,1.017-3.7,1.46-4.461.792s-.293-1.438,1.339-2.764,3.206-4.875,3.206-4.872,2.847,0,2.847,0" transform="translate(-14.197 -21.066)" fill="#003452"/>
        <path id="Path_47002" data-name="Path 47002" d="M69.358,105.345s.8.1.955.411a22.123,22.123,0,0,1,.218,3.332,20.723,20.723,0,0,1-4.1,3.1c-1.982,1.017-3.7,1.46-4.461.792s-.293-1.439,1.339-2.764,3.205-4.875,3.206-4.872,2.847,0,2.847,0" transform="translate(-11.742 -20.078)" fill="#003452"/>
        <path id="Path_47003" data-name="Path 47003" d="M81.326,59.523l.147,41.539a5.1,5.1,0,0,1-4.962-.108s-4.7-35.884-4.782-36.736c-.074-.786-.664,32.761-.664,32.761s-2.913,1.67-5.131-.6L63.318,56.638Z" transform="translate(-12.068 -10.795)" fill="#52b6c5"/>
        <path id="Path_47004" data-name="Path 47004" d="M77.038,21.476a23.038,23.038,0,0,1,5.849,3.4l-1.71,27.644s-3.577,2.616-10.886.7c-5.955-1.557-7.519-4.065-7.519-4.065s-.544-13.584.015-19.329a25.65,25.65,0,0,1,2.893-9.691,17.048,17.048,0,0,1,4.164-.229Z" transform="translate(-11.919 -3.787)" fill="#5ed3e5"/>
        <path id="Path_47005" data-name="Path 47005" d="M70.142.946A7.749,7.749,0,0,1,73.87.64c2.611.278,4.809,1.547,5.247,4.347.329,2.108-.459,4.266-1.293,6.166-1.1,2.52-1.873,1.6-1.873,1.6l-6.4-2.581a7.11,7.11,0,0,1-1.971-.843c-.782-.686-.525-1.858-.668-2.777a4.646,4.646,0,0,1,.3-3.411A5.117,5.117,0,0,1,69.6,1.164c.186-.082.367-.155.544-.218" transform="translate(-12.719 -0.105)" fill="#003452"/>
        <path id="Path_47006" data-name="Path 47006" d="M76.768,17.1l.164-5.535a1.293,1.293,0,0,0,1.154-1.631c-.24-1.525-1.667-.522-1.918-.074,0,0-.321-5.251-3.1-5.756s-5.479.092-5.55,1.447-.161,6.09,0,7.85,1.539,2.481,4.08,2.41l-.173,2.847s1.275.936,4.835.066Z" transform="translate(-12.851 -0.748)" fill="#ffc49a"/>
        <path id="Path_47007" data-name="Path 47007" d="M74.141,23.642l-.6,1.276s0,22.516-.316,28.1c-.049.862-2.958.2-2.854-.825.444-4.376,1.268-27.906,1.268-27.906L71.579,23.2l1.369-.872Z" transform="translate(-13.412 -4.255)" fill="#52b6c5"/>
        <path id="Path_47008" data-name="Path 47008" d="M72.084,19.335a1.93,1.93,0,0,0-.677.1,3.4,3.4,0,0,0-1.231,2.248,8.032,8.032,0,0,0,.43,2.406l2.306-2.078,1.45,2.8A5.912,5.912,0,0,0,76.506,23.7a8.071,8.071,0,0,0,1.988-2.323c-.4-1.013-.669-1.615-.669-1.615-.094-.232-.533-.341-.533-.341s-2.455,2.227-4.381,2.336c0,0-.687-.321-.827-2.419" transform="translate(-13.375 -3.685)" fill="#52b6c5"/>
        <path id="Path_47009" data-name="Path 47009" d="M67.286,5.87a1.962,1.962,0,0,1,.151-1.941A3.7,3.7,0,0,1,69,2.654c1.521-.736,5.782-1.54,5.9,1.1.058,1.32-1.079,3.51-2.654,3.237-.677-.117-1.075-.75-1.819-.541-.373.105-1.38,1.054-1.426.041a1.385,1.385,0,0,1-1.711-.623" transform="translate(-12.788 -0.369)" fill="#003452"/>
        <path id="Path_47010" data-name="Path 47010" d="M78.577,8.783a4.042,4.042,0,0,0-1.422,2.632l-.529.012c.026-.7-.025-1.324,0-2.025A4.835,4.835,0,0,1,75.5,5.252c.128-.6.484-1.255,1.091-1.31s1.077.539,1.337,1.1a6.985,6.985,0,0,1,.65,3.743" transform="translate(-14.371 -0.751)" fill="#003452"/>
        <path id="Path_47011" data-name="Path 47011" d="M66.512,5.073S66.975,2,67.017,1.79A49.009,49.009,0,0,1,71.9.021L73.5,0s4.924,1.39,5.262,1.979a12.8,12.8,0,0,1,.926,5.093,4.508,4.508,0,0,1-.505,1.852l-5.6-2.946" transform="translate(-12.677)" fill="#5ed3e5"/>
        <path id="Path_47012" data-name="Path 47012" d="M64.328,8.21s5.767-1.221,8.461.337l1.347-1.178L71.4,5.643l-5.009.189Z" transform="translate(-12.261 -1.076)" fill="#52b6c5"/>
        <path id="Path_47013" data-name="Path 47013" d="M.752,48.09c1.284,1.116,6.644-.321,10.619-1.328s1.2.114,2.122-.387,1.018-.941,1.018-.941l1.395-.766a5.842,5.842,0,0,0-.667-3.093l-1.084.06a5.3,5.3,0,0,0-2.9.221c-1.771.562-3.912.73-5.827,1.459s-7.41,2.4-4.678,4.775" transform="translate(-0.001 -7.916)" fill="#d1edff"/>
        <path id="Path_47014" data-name="Path 47014" d="M76.755,55.319s-.671.82-.822.958a12.846,12.846,0,0,0-1.951,1.039,1.174,1.174,0,0,0-.1.93,6.135,6.135,0,0,0-.607,1.028c-.04.219.768.648.818.747s.3.739.709.834a14.255,14.255,0,0,0,1.659.423,20.73,20.73,0,0,0,3.3-4.955c1.087-2.32-3-1-3-1" transform="translate(-13.965 -10.473)" fill="#ffc49a"/>
        <path id="Path_47015" data-name="Path 47015" d="M86.664,25.755c1.628.495,3.258,5.8,4.516,9.7s1.566,4.4,1.631,5.449-1.782,4.1-3.139,4.03l-.525-.951s-3.781-.942-4.246-2.741-1.543-8.093-1.943-10.1.241-6.439,3.705-5.386" transform="translate(-15.791 -4.878)" fill="#52b6c5"/>
        <path id="Path_47016" data-name="Path 47016" d="M91.575,45.09c.428,2.035-3.786,5.655-6.852,8.386s-.515,1.161-1.488,1.579a1.76,1.76,0,0,1-1.458.152l-1.482.629A9.6,9.6,0,0,1,77.6,52.769l.625-.916a4.464,4.464,0,0,1,1.731-2.4c1.477-1.127,2.761-2.9,4.478-4.019s6.231-4.674,7.141-.342" transform="translate(-14.79 -8.195)" fill="#52b6c5"/>
        <path id="Path_47017" data-name="Path 47017" d="M56.316,23.97s-.193-1.029-.206-1.228a13.011,13.011,0,0,0,.321-2.034,10.456,10.456,0,0,0-.33-1.114s-.468-.569-.591-.752a4.393,4.393,0,0,0-1.014-.613,5.724,5.724,0,0,0-1.153.728c-.271.2-.711.423-.788.57a25.384,25.384,0,0,0,1.56,5.715c.966,2.373,2.2-1.273,2.2-1.273" transform="translate(-10.015 -3.474)" fill="#ffc49a"/>
        <path id="Path_47018" data-name="Path 47018" d="M56.736,23.92l1.855-2.62a1.771,1.771,0,0,0-.8-.1c-.543.028-1.55,1.344-1.55,1.344Z" transform="translate(-10.719 -4.04)" fill="#ffc49a"/>
        <path id="Path_47019" data-name="Path 47019" d="M41.269,32.741l2.257-1.629a.559.559,0,0,1,.33.679c-.166.462-1.55,1.344-1.55,1.344Z" transform="translate(-7.866 -5.93)" fill="#ffc49a"/>
      </g>
    </g>
  </g>
</svg>
