<svg id="Group_18001" data-name="Group 18001" xmlns="http://www.w3.org/2000/svg" xmlns:xlink="http://www.w3.org/1999/xlink" width="326.307" height="312.273" viewBox="0 0 326.307 312.273">
  <defs>
    <clipPath id="clip-path">
      <rect id="Rectangle_17689" data-name="Rectangle 17689" width="326.307" height="312.273" fill="none"/>
    </clipPath>
  </defs>
  <g id="Group_17992" data-name="Group 17992" transform="translate(0 0)">
    <g id="Group_17992-2" data-name="Group 17992" clip-path="url(#clip-path)">
      <path id="Path_19132" data-name="Path 19132" d="M163.167,156.136,134.837,309.9C46.107,294.927-13.141,213.946,2.506,129.023,16.274,54.292,83.879,0,163.167,0Z" transform="translate(0)" fill="#56aee0"/>
      <path id="Path_19133" data-name="Path 19133" d="M87.834,156.136V0c90.1,0,163.14,69.905,163.14,156.136S177.933,312.273,87.834,312.273A149.57,149.57,0,0,1,59.5,309.9Z" transform="translate(75.333)" fill="#0088d6"/>
    </g>
  </g>
  <path id="Path_72993" data-name="Path 72993" d="M14.586-8.892v-5.59h5.876v5.59Zm-9.126,0v-5.59h5.85v5.59Zm9.126-8.632v-4.5H11.31v4.5H2.34v13.1H5.46V-5.85h5.85V2.262h3.276V-5.85h5.876v1.3h3.25V-17.524ZM39.7-15.756a18.833,18.833,0,0,0,3.718-3.562,19.946,19.946,0,0,0,3.874,3.562Zm-.91,2.5h3.3v1.43H35.8v2.548h6.292v4.446c0,.286-.1.39-.442.39-.26,0-1.274,0-2.158-.052A10.383,10.383,0,0,1,40.3-1.9a9.015,9.015,0,0,0,3.666-.442c.884-.416,1.092-1.118,1.092-2.444v-4.5h6.6V-11.83h-6.6v-1.43h3.354v-1.716a22.154,22.154,0,0,0,2.366,1.326,19.458,19.458,0,0,1,1.794-2.86A18.218,18.218,0,0,1,44.824-22H41.782a17.7,17.7,0,0,1-7.306,5.72,13.754,13.754,0,0,1,1.612,2.7,25.609,25.609,0,0,0,2.7-1.534ZM46.02-7.67a26.927,26.927,0,0,1,3.12,4.758l2.6-1.274a28.255,28.255,0,0,0-3.276-4.628ZM37.986-8.684a10.4,10.4,0,0,1-3.12,4.264,15.957,15.957,0,0,1,2.288,1.534,15.169,15.169,0,0,0,3.51-5.148Zm-2.912-8.762a20.919,20.919,0,0,0-4.238-3.978l-2.314,1.846a19.735,19.735,0,0,1,4.082,4.16ZM34.4-11.934H28.522V-9.1h2.86v5.486A34.559,34.559,0,0,1,27.95-1.222L29.458,2C30.836.91,31.954-.1,33.072-1.118,34.762.91,36.92,1.638,40.144,1.768c3.12.13,8.346.078,11.492-.078A13.227,13.227,0,0,1,52.6-1.43c-3.458.26-9.36.338-12.4.208-2.73-.1-4.706-.806-5.8-2.548Z" transform="translate(56.584 108.048)" fill="#fff"/>
  <path id="Path_72992" data-name="Path 72992" d="M9.126-16.926a19.434,19.434,0,0,1-.962,2.86L9.88-13.7h-5.1l1.3-.364a10.252,10.252,0,0,0-.884-2.86ZM8.788-6.552h4.29v-2.6H8.788v-2h4.524V-13.7H10.686c.364-.78.78-1.82,1.248-2.938l-1.508-.286H13.1v-2.522H8.788v-2.366H5.8v2.366H1.43v2.522H4.342l-1.586.364a11.722,11.722,0,0,1,.78,2.86H1.144v2.548H5.8v2H1.222v2.6H5.174A17.058,17.058,0,0,1,.494-1.534,11.427,11.427,0,0,1,2.5.65,18.365,18.365,0,0,0,5.8-3.016V2.21h2.99V-3.328a24.332,24.332,0,0,1,1.9,2.028L12.48-3.51c-.6-.468-2.756-2.184-3.692-2.834Zm16.328-6.916H17v-3.64A42.133,42.133,0,0,0,24.986-19.5l-2.47-2.262a30.335,30.335,0,0,1-6.6,2.288l-1.82-.52v9.022c0,3.588-.312,8.008-3.3,11.18A7.125,7.125,0,0,1,13,2.314c3.432-3.562,3.978-9.048,4-12.922h2.652V2.106h2.99V-10.608h2.47ZM52-6.4H41.782V-7.852a15.3,15.3,0,0,0,2.912-2.756,37.614,37.614,0,0,1,4.5,3.588l2.184-2.34a40.665,40.665,0,0,0-5.1-3.666,17.942,17.942,0,0,0,1.04-2.5l-2.756-.572h6.682v-2.938H41.782V-22h-3.2v2.964h-9.23v2.938h4.862A12.9,12.9,0,0,1,28.73-8.97,21.018,21.018,0,0,1,31.3-6.864,16.913,16.913,0,0,0,35.178-11a21.094,21.094,0,0,1,2.47,2.028l1.846-2.158a25.707,25.707,0,0,0-2.99-2.184,16.441,16.441,0,0,0,.91-2.21l-2.47-.572h9.23a11.077,11.077,0,0,1-5.538,6.6,14.781,14.781,0,0,1,1.82,1.456H38.584V-6.4H28.652v2.964h9.932V2.236h3.2V-3.432H52Z" transform="translate(219.584 108.048)" fill="#fff"/>
  <g id="Group_58453" data-name="Group 58453">
    <path id="Path_72997" data-name="Path 72997" d="M-9.954-10.26c3.924,0,6.8-3.2,6.8-8.568s-2.88-8.46-6.8-8.46-6.768,3.1-6.768,8.46S-13.878-10.26-9.954-10.26Zm0-3.528c-1.26,0-2.34-1.3-2.34-5.04s1.08-4.932,2.34-4.932,2.34,1.188,2.34,4.932S-8.694-13.788-9.954-13.788ZM-9.018.5h3.636L9.09-27.288H5.418ZM9.99.5c3.888,0,6.768-3.2,6.768-8.568s-2.88-8.5-6.768-8.5-6.768,3.132-6.768,8.5S6.1.5,9.99.5Zm0-3.564c-1.26,0-2.376-1.26-2.376-5C7.614-11.844,8.73-13,9.99-13s2.3,1.152,2.3,4.932C12.294-4.32,11.25-3.06,9.99-3.06Z" transform="translate(113.369 174.049)" fill="#fff"/>
    <path id="Path_72996" data-name="Path 72996" d="M-6.094-17.187h3.875v7.344H-6.094V0h-8.844V-9.844H-30l-.406-5.719L-14.969-45.5h8.875Zm-15.719,0h6.875V-32.406l-.187.344ZM29.656-40.406,15.281,0H5.938L20.375-38.156H2.125V-45.5H29.656Z" transform="translate(61.99 180.049)" fill="#fff"/>
  </g>
  <g id="Group_58452" data-name="Group 58452">
    <path id="Path_72994" data-name="Path 72994" d="M-9.954-10.26c3.924,0,6.8-3.2,6.8-8.568s-2.88-8.46-6.8-8.46-6.768,3.1-6.768,8.46S-13.878-10.26-9.954-10.26Zm0-3.528c-1.26,0-2.34-1.3-2.34-5.04s1.08-4.932,2.34-4.932,2.34,1.188,2.34,4.932S-8.694-13.788-9.954-13.788ZM-9.018.5h3.636L9.09-27.288H5.418ZM9.99.5c3.888,0,6.768-3.2,6.768-8.568s-2.88-8.5-6.768-8.5-6.768,3.132-6.768,8.5S6.1.5,9.99.5Zm0-3.564c-1.26,0-2.376-1.26-2.376-5C7.614-11.844,8.73-13,9.99-13s2.3,1.152,2.3,4.932C12.294-4.32,11.25-3.06,9.99-3.06Z" transform="translate(276.931 174.049)" fill="#fff"/>
    <path id="Path_72995" data-name="Path 72995" d="M-28.5-22.375-26.25-45.5H-4.219v7.563H-19l-.812,9.75a9.365,9.365,0,0,1,5.281-1.719,10.256,10.256,0,0,1,8.672,4q3.047,4,3.047,11.313,0,6.844-3.625,11.031A12.17,12.17,0,0,1-16.125.625a13.47,13.47,0,0,1-6.656-1.7,12.548,12.548,0,0,1-4.828-4.734,13.632,13.632,0,0,1-1.8-6.875h8.75A8.236,8.236,0,0,0-19.25-8.281a3.68,3.68,0,0,0,3.063,1.563,3.7,3.7,0,0,0,3.375-2.109,13.162,13.162,0,0,0,1.188-6.3,10.235,10.235,0,0,0-1.422-5.937,4.609,4.609,0,0,0-3.984-2,4.679,4.679,0,0,0-3.875,1.719l-.562.781Zm39.344-4.406h4.281a4,4,0,0,0,3.578-1.7,8.053,8.053,0,0,0,1.141-4.547,6.778,6.778,0,0,0-1.172-4.234,3.767,3.767,0,0,0-3.141-1.516,3.715,3.715,0,0,0-3.016,1.438,5.55,5.55,0,0,0-1.172,3.625H2.5a12.5,12.5,0,0,1,1.641-6.391,11.521,11.521,0,0,1,4.594-4.422,13.561,13.561,0,0,1,6.547-1.594q6.281,0,9.844,3.469t3.563,9.5a10.817,10.817,0,0,1-1.609,5.734,10.959,10.959,0,0,1-4.234,4.047,9.732,9.732,0,0,1,4.8,4.125,12.839,12.839,0,0,1,1.578,6.5,12.76,12.76,0,0,1-3.859,9.719A14.139,14.139,0,0,1,15.219.625,12.89,12.89,0,0,1,5.734-2.984a12.764,12.764,0,0,1-3.641-9.484h8.844a6.49,6.49,0,0,0,1.281,4.094,3.943,3.943,0,0,0,3.25,1.656,4.348,4.348,0,0,0,3.609-1.687,7.075,7.075,0,0,0,1.328-4.5q0-6.719-5.219-6.75H10.844Z" transform="translate(224.99 180.049)" fill="#fff"/>
  </g>
</svg>
