<svg id="Group_18105" data-name="Group 18105" xmlns="http://www.w3.org/2000/svg" xmlns:xlink="http://www.w3.org/1999/xlink" width="80.709" height="99.047" viewBox="0 0 80.709 99.047">
  <defs>
    <clipPath id="clip-path">
      <rect id="Rectangle_17740" data-name="Rectangle 17740" width="80.709" height="99.047" fill="none"/>
    </clipPath>
    <clipPath id="clip-path-3">
      <rect id="Rectangle_17736" data-name="Rectangle 17736" width="7.134" height="4.015" fill="none"/>
    </clipPath>
    <clipPath id="clip-path-5">
      <rect id="Rectangle_17738" data-name="Rectangle 17738" width="10.909" height="11.277" fill="none"/>
    </clipPath>
  </defs>
  <g id="Group_18104" data-name="Group 18104" clip-path="url(#clip-path)">
    <g id="Group_18103" data-name="Group 18103">
      <g id="Group_18102" data-name="Group 18102" clip-path="url(#clip-path)">
        <path id="Path_19594" data-name="Path 19594" d="M2.682,72.327C2.682,72.6,0,89.5,0,89.5c0,.254.366.46.818.46s.818-.206.818-.46L4.6,73.524Z" transform="translate(0 -27.505)" fill="#6d362f"/>
        <path id="Path_19595" data-name="Path 19595" d="M28.6,86.152c0,.273-.384,18.669-.384,18.669,0,.254.366.46.818.46s.818-.206.818-.46l.662-17.473Z" transform="translate(-10.731 -32.763)" fill="#6d362f"/>
        <path id="Path_19596" data-name="Path 19596" d="M50.155,74c0,.273-.384,18.669-.384,18.669,0,.255.366.46.818.46s.818-.206.818-.46L52.069,75.2Z" transform="translate(-18.928 -28.142)" fill="#6d362f"/>
        <path id="Path_19597" data-name="Path 19597" d="M24.684,60.149c0,.273-2.682,17.173-2.682,17.173,0,.254.366.46.818.46s.818-.206.818-.46L26.6,61.346Z" transform="translate(-8.367 -22.874)" fill="#6d362f"/>
        <path id="Path_19598" data-name="Path 19598" d="M18.541,44.729,3.708,53.293V33.515l14.833-8.564Z" transform="translate(-1.41 -9.489)" fill="#cebcbc"/>
        <path id="Path_19599" data-name="Path 19599" d="M1.56,37.651V59.139l1.331.694V38.345Z" transform="translate(-0.593 -14.318)" fill="#af9595"/>
        <path id="Path_19600" data-name="Path 19600" d="M17.725,24.525l-1.331-.694L1.561,32.4l1.331.694Z" transform="translate(-0.594 -9.063)" fill="#dcc"/>
        <path id="Path_19601" data-name="Path 19601" d="M35.573,66.7,20.74,75.263,3.708,65.43l14.833-8.564Z" transform="translate(-1.41 -21.626)" fill="#bca2a2"/>
        <path id="Path_19602" data-name="Path 19602" d="M19.923,80.039v1.787L1.56,71.222v-1.8Z" transform="translate(-0.593 -26.401)" fill="#af9595"/>
        <path id="Path_19603" data-name="Path 19603" d="M31.192,81.3v1.787l14.833-8.552v-1.8Z" transform="translate(-11.862 -27.66)" fill="#997a7a"/>
        <path id="Path_19604" data-name="Path 19604" d="M59.47,104.4c1.148,1.12,1.5,1.442,2.569,2.482.623.607.11,1.166-1.076,1.12a21.323,21.323,0,0,1-4.725-1.022,23.96,23.96,0,0,1-3.537-1.844,2.341,2.341,0,0,1-1.05-1.327v-1.868l5.649.24s.929,1.01,2.17,2.22" transform="translate(-19.643 -38.767)" fill="#82413c"/>
        <path id="Path_19605" data-name="Path 19605" d="M43.432,113.04c1.148,1.12,1.5,1.441,2.569,2.482.623.607.11,1.166-1.076,1.12A21.335,21.335,0,0,1,40.2,115.62a24.038,24.038,0,0,1-3.537-1.844,2.347,2.347,0,0,1-1.05-1.328v-3.3l5.649,1.668s.929,1.01,2.17,2.22" transform="translate(-13.543 -41.51)" fill="#82413c"/>
        <path id="Path_19606" data-name="Path 19606" d="M15.453,56.6l11.286-4.34a32.046,32.046,0,0,0,5.25,3.833c1.986,1.2,7.454,4.414,9.206,5.651,1.079.762,1.564,2.408,1.984,6.112.693,6.119,1.2,14.621,1.2,14.621a4.916,4.916,0,0,1-3.988,1.7,10.756,10.756,0,0,1-3.712-.669l-.43-15.6-8.719-5.5S32.252,65.819,33,68.7a28.375,28.375,0,0,1,.9,6.975c.2,6.22.263,12.9.263,12.9s-.409,2.062-3.177,2.052a6.36,6.36,0,0,1-3.874-1.736l-.56-16.862s-7.981-5.689-10.071-8.095c-2.342-2.694-1.031-7.327-1.031-7.327" transform="translate(-5.737 -19.875)" fill="#003452"/>
        <path id="Path_19607" data-name="Path 19607" d="M30.723,17.453s1.373-1.9,3.514.141a23.369,23.369,0,0,1,4.317,6.943c.26.866,1.112-.693,1.112.8,0,.979.392.882.638,1.27.644,1.015-.24,4.677-2.313,5.192-1.093-.009-4.1-1.81-5.284-4.2-2.026-4.083-1.984-10.148-1.984-10.148" transform="translate(-11.684 -6.332)" fill="#0088d6"/>
        <path id="Path_19608" data-name="Path 19608" d="M24.948,18.906a1.6,1.6,0,0,0-.733.688L18.4,19.7s-4.725.975-5.838,4.635c-.082,1.149,1.513,4.956,1.594,5.192,1.478,4.3.493,10.768.183,15.093,5.3,3.816,12.842.439,15.238-2.506-1.239-8.466,2.094-17.089-4.63-23.209" transform="translate(-4.777 -7.19)" fill="#0088d6"/>
        <path id="Path_19609" data-name="Path 19609" d="M27.032,16.712l-4.415-3.207-.934,5.188A8.191,8.191,0,0,0,23.9,20.46c1.106.58,2.243.429,3.451.806a2.474,2.474,0,0,0,0-2.012Z" transform="translate(-8.246 -5.136)" fill="#f9b4af"/>
        <path id="Path_19610" data-name="Path 19610" d="M31.433,18.554A18.252,18.252,0,0,1,32.875,20c.465.567.446,1.24.762,1.784s.418.715.418.715-.749.1-.987-.2-.442-.477-.715-.34-.477.858-.613,1.229A2.665,2.665,0,0,1,31.06,24l-.818-1.066s.6-.775.366-1.319a12.166,12.166,0,0,1-.3-2.451Z" transform="translate(-11.501 -7.056)" fill="#fff"/>
        <path id="Path_19611" data-name="Path 19611" d="M21.84,3.289c-.976,1.244-1.279,4.363.066,6.558A8.421,8.421,0,0,0,27.036,13.1c2.162.349,4.494-5.623,2.026-9.276a4.393,4.393,0,0,0-7.223-.532" transform="translate(-7.986 -0.622)" fill="#ffd0ca"/>
        <path id="Path_19612" data-name="Path 19612" d="M22.857.023a4.38,4.38,0,0,0-2.843,1.888c-2.2.469-1.979,3.642-1.432,4.841,1.055,2.315,2.263,2.474,2.263,2.474a3.648,3.648,0,0,1-.037-1.813c.238-.47.988-.551,1.241.284a1.929,1.929,0,0,0,.612.06l-.253-1.669A2.988,2.988,0,0,0,25.122,5.9a2.734,2.734,0,0,1,3.1.116,3.284,3.284,0,0,0,.219-1.7c.857-.6,1.671-1.139,1.547-1.547a2.485,2.485,0,0,1-2.049-.193A4.9,4.9,0,0,0,29.062,1.3c-1.506.193-4.755-1.511-6.205-1.274" transform="translate(-6.926 0)" fill="#6d362f"/>
        <path id="Path_19613" data-name="Path 19613" d="M21.618,17.6s-.383.754.736,1.916c.671.7,2.765,1.357,3.345,1.7a5.59,5.59,0,0,1,1.1,1.02,3.1,3.1,0,0,1,.338.868l.127.535a3.766,3.766,0,0,0-1.133-.674c-.635-.222-.549.384-.771,1.055-.184.555-.92.569-.92.569a6.087,6.087,0,0,0-.222-1.172c-.359-.594-2.1-.889-2.792-1.459a2.766,2.766,0,0,1-1.065-2.789c.325-.725.85-1.581,1.257-1.57" transform="translate(-7.704 -6.693)" fill="#fff"/>
        <path id="Path_19614" data-name="Path 19614" d="M13.573,24.226a8.066,8.066,0,0,1,2.835,4.184,28.634,28.634,0,0,1,.284,3.864,7.521,7.521,0,0,1,.22,3.415,2.932,2.932,0,0,0-.045,1.438c.512,1.567.987,1.9.754,2.824a2.374,2.374,0,0,1,.86.532c.331.29.229,1.883.229,1.883s-3.813,3.278-4.651,2.856c-3.56-1.792-3.646-9.389-3.791-11a20.624,20.624,0,0,1,.433-7.454c.365-1.175,2.157-2.916,2.872-2.541" transform="translate(-3.854 -9.193)" fill="#0088d6"/>
        <path id="Path_19615" data-name="Path 19615" d="M20.433,53.333c1.113.891,4.689,5.652,5.659,6.688s2.443,1.192,3.668,2.785c.917,1.192,2.312,3.079,2.111,4.143s-1.756.724-3.146,0a12.062,12.062,0,0,1-4.075-3.88c-.4-.658-3.193-2.823-5.006-4.271a10.43,10.43,0,0,1-2.6-2.616,3.82,3.82,0,0,1,3.387-2.848" transform="translate(-6.482 -20.282)" fill="#ffd0ca"/>
        <path id="Path_19616" data-name="Path 19616" d="M21.8,54.617a3.543,3.543,0,0,0-.685-1.428c-.507-.568-.815-.556-.815-.556a3.286,3.286,0,0,0-2.486,1.08,4.793,4.793,0,0,0-1.351,2.332,3.355,3.355,0,0,0,.97,1.3,1.281,1.281,0,0,0,.875.275s-.493-.695.912-2.111,2.58-.9,2.58-.9" transform="translate(-6.262 -20.014)" fill="#fff"/>
        <path id="Path_19617" data-name="Path 19617" d="M44.8,26.292c1.088-1.359,2.7-3.146,3.988-4.87s1.893-2.073,2.649-3.552c1-1.95,1.61-2.763,1.759-2.057s-.136,1.019-.333,1.662a9.865,9.865,0,0,1-.6,1.419,5.394,5.394,0,0,1,1.483,1.57c.374.785-.208,1.546-.9,2.091s-1.717.263-2.118.721c-.784.895-1.485,3.767-3.051,5.817A6.925,6.925,0,0,1,44.5,31.775a1.359,1.359,0,0,1-1.971-.522c-.223-.322,0-.812.038-1.311.1-1.332,1.8-3.1,2.233-3.649" transform="translate(-16.138 -5.918)" fill="#ffd0ca"/>
        <path id="Path_19618" data-name="Path 19618" d="M43.782,32.763l.623.185a3.839,3.839,0,0,0-.955,2.6,7.973,7.973,0,0,0,.955,2.669s-.744.91-1.559.729-1.238-.921-1.208-2.348a4.615,4.615,0,0,1,2.144-3.832" transform="translate(-15.834 -12.46)" fill="#fff"/>
        <path id="Path_19619" data-name="Path 19619" d="M70.21,118.819c0,2.6-3.751,4.715-8.378,4.715s-8.378-2.111-8.378-4.715,3.751-4.715,8.378-4.715,8.378,2.111,8.378,4.715" transform="translate(-20.328 -43.393)" fill="#6d362f"/>
        <rect id="Rectangle_17734" data-name="Rectangle 17734" width="16.756" height="1.399" transform="translate(33.126 74.026)" fill="#6d362f"/>
        <path id="Path_19620" data-name="Path 19620" d="M70.21,116.915c0,2.6-3.751,4.715-8.378,4.715s-8.378-2.111-8.378-4.715,3.751-4.715,8.378-4.715,8.378,2.111,8.378,4.715" transform="translate(-20.328 -42.669)" fill="#934a47"/>
        <path id="Path_19621" data-name="Path 19621" d="M69.4,117.419c0,1.974-2.843,3.574-6.35,3.574s-6.35-1.6-6.35-3.574,2.843-3.574,6.35-3.574,6.35,1.6,6.35,3.574" transform="translate(-21.563 -43.294)" fill="#aa5757"/>
        <rect id="Rectangle_17735" data-name="Rectangle 17735" width="1.792" height="42.06" transform="translate(40.593 31.58)" fill="#6d362f"/>
        <path id="Path_19622" data-name="Path 19622" d="M67.294,118.686c0,.278-.4.5-.9.5s-.9-.226-.9-.5.4-.5.9-.5.9.226.9.5" transform="translate(-24.91 -44.944)" fill="#6d362f"/>
        <path id="Path_19623" data-name="Path 19623" d="M74.078,53.64V51.811h-.384C71.91,47.12,64.508,43.6,55.639,43.6s-16.27,3.519-18.055,8.21h-.416V54c0,5.741,8.269,10.4,18.47,10.4S74.11,59.738,74.11,54c0-.12-.025-.237-.032-.356" transform="translate(-14.135 -16.581)" fill="#af9595"/>
        <path id="Path_19624" data-name="Path 19624" d="M74.109,51.228c0,5.741-8.269,10.4-18.47,10.4s-18.471-4.655-18.471-10.4,8.27-10.4,18.471-10.4,18.47,4.655,18.47,10.4" transform="translate(-14.135 -15.528)" fill="#cebcbc"/>
        <path id="Path_19625" data-name="Path 19625" d="M82.768,59.38c0,2.076-2.735,3.759-6.11,3.759s-6.11-1.683-6.11-3.759,2.735-3.759,6.11-3.759,6.11,1.683,6.11,3.759" transform="translate(-26.829 -21.152)" fill="#eadfdf"/>
        <path id="Path_19626" data-name="Path 19626" d="M82.775,59.189c0,1.99-2.737,3.6-6.113,3.6s-6.113-1.614-6.113-3.6,2.737-3.6,6.113-3.6,6.113,1.614,6.113,3.6" transform="translate(-26.829 -21.139)" fill="#f7f1ed"/>
        <path id="Path_19627" data-name="Path 19627" d="M82.627,59.42c0,1.782-2.566,3.226-5.732,3.226S71.163,61.2,71.163,59.42s2.566-3.226,5.732-3.226,5.732,1.445,5.732,3.226" transform="translate(-27.063 -21.37)" fill="#eadfdf"/>
        <g id="Group_18095" data-name="Group 18095" transform="translate(46.265 36.219)" opacity="0.5">
          <g id="Group_18094" data-name="Group 18094">
            <g id="Group_18093" data-name="Group 18093" clip-path="url(#clip-path-3)">
              <path id="Path_19628" data-name="Path 19628" d="M81.791,60.454c0,1.109-1.6,2.008-3.567,2.008s-3.567-.9-3.567-2.008,1.6-2.008,3.567-2.008,3.567.9,3.567,2.008" transform="translate(-74.657 -58.446)" fill="#d3c2b6"/>
            </g>
          </g>
        </g>
        <path id="Path_19629" data-name="Path 19629" d="M83.252,53.8a1.617,1.617,0,0,1,2.3.015c.975.893-.2,2.855-.61,3.328s-.379.988-.977.979-.71-4.322-.71-4.322" transform="translate(-31.66 -20.277)" fill="#e5dada"/>
        <path id="Path_19630" data-name="Path 19630" d="M85.466,55.5s.2-.4.358-.436.538.1.4.807a2.68,2.68,0,0,1-1.05,1.78c-.573.377.293-2.151.293-2.151" transform="translate(-32.316 -20.939)" fill="#dcc"/>
        <path id="Path_19631" data-name="Path 19631" d="M81.383,61.249c0,.706-1.017,1.278-2.271,1.278s-2.271-.572-2.271-1.278,1.017-1.278,2.271-1.278,2.271.572,2.271,1.278" transform="translate(-29.222 -22.807)" fill="#dcc"/>
        <path id="Path_19632" data-name="Path 19632" d="M81.741,55.771l-2.77,1.917a4.372,4.372,0,0,0-.68-.054,4.323,4.323,0,0,0-.689.055L74.83,55.771a5.8,5.8,0,0,0,1.084,3.8,1.584,1.584,0,0,0,.34.3,3.4,3.4,0,0,0,2.037.588,3.308,3.308,0,0,0,2.1-.644,1.658,1.658,0,0,0,.262-.249,5.8,5.8,0,0,0,1.084-3.8" transform="translate(-28.453 -21.209)" fill="#efe6e6"/>
        <path id="Path_19633" data-name="Path 19633" d="M81.759,54.576c0,1.076-1.549,1.948-3.462,1.948s-3.461-.872-3.461-1.948,1.55-1.948,3.461-1.948,3.462.872,3.462,1.948" transform="translate(-28.46 -20.014)" fill="#f7f1ed"/>
        <path id="Path_19634" data-name="Path 19634" d="M78.5,53.95a3.45,3.45,0,0,1,2.985,1.237,1.073,1.073,0,0,0,.139-.521c0-.971-1.4-1.759-3.125-1.759s-3.125.788-3.125,1.759a1.073,1.073,0,0,0,.139.521A3.45,3.45,0,0,1,78.5,53.95" transform="translate(-28.666 -20.12)" fill="#dcc"/>
        <path id="Path_19635" data-name="Path 19635" d="M78.59,57.064a3.45,3.45,0,0,0,2.985-1.237,4.219,4.219,0,0,0-5.97,0,3.45,3.45,0,0,0,2.985,1.237" transform="translate(-28.752 -20.76)" fill="#542322"/>
        <path id="Path_19636" data-name="Path 19636" d="M80.652,49.62c.242-.2.57-.371.693-.679a.814.814,0,0,0-.1-.765,4.876,4.876,0,0,1-.556-.692.741.741,0,0,0,.1-.557.938.938,0,0,0-.516-.682.49.49,0,0,0-.638.087.414.414,0,0,1,.469.25.346.346,0,0,1-.009.385,1.442,1.442,0,0,1-.472.486,2.133,2.133,0,0,0-.739.588.857.857,0,0,0-.078.633,3.338,3.338,0,0,0-.255.324.969.969,0,0,0-.09.892,1.178,1.178,0,0,0,.734.684c-.087.05-.174.1-.256.152a1.01,1.01,0,0,0-.561.714.679.679,0,0,0,.415.622,4.061,4.061,0,0,0,.537.183c.429.152.464.314.436.5.257-.069.389-.146.356-.46.2-.157.558-.291.777-.468a.748.748,0,0,0,.312-.581.95.95,0,0,0-.347-.654c-.189-.17-.592-.391-.483-.653a.854.854,0,0,1,.265-.3m-1.342.509c-.268.081-.752-.453-.377-1.183a.579.579,0,0,0,.141.153,1.088,1.088,0,0,0,.235,1.03m.755,1.974a.906.906,0,0,0-.416-.253c-.237-.1-.486-.307-.238-.559a3.227,3.227,0,0,1,.351-.252l.028-.023a.451.451,0,0,0,.083.2c.08.112.191.2.271.309a.444.444,0,0,1-.079.579m.336-4.267c.026.043.053.085.081.128a.735.735,0,0,1,.155.434.769.769,0,0,1-.281.486c-.131.12-.319.229-.459.365a1.334,1.334,0,0,1-.081-.425,1.115,1.115,0,0,1,.211-.633,2.88,2.88,0,0,1,.374-.356" transform="translate(-29.808 -17.558)" fill="#efe6e6"/>
        <path id="Path_19637" data-name="Path 19637" d="M86.577,60.566a.277.277,0,0,1-.148.275,19.535,19.535,0,0,1-2.645.759,3.519,3.519,0,0,0-1.472.676c-.275.235-.434.457-.849.8a2.456,2.456,0,0,1-1.93.356.753.753,0,0,1-.56-.383.615.615,0,0,0,.061.159,1.218,1.218,0,0,0,1.081.462,2.195,2.195,0,0,0,1.744-.792c.162-.166.486-.487.6-.586a3.477,3.477,0,0,1,1.059-.486c.937-.283,2.181-.586,2.705-.716.267-.066.415-.252.4-.408a.21.21,0,0,0-.044-.109" transform="translate(-30.033 -23.033)" fill="#542322"/>
        <path id="Path_19638" data-name="Path 19638" d="M79.525,63.347a2.453,2.453,0,0,0,1.93-.356c.415-.338.574-.56.85-.8a3.519,3.519,0,0,1,1.472-.677,19.615,19.615,0,0,0,2.645-.758.276.276,0,0,0,.148-.275c-.081-.105-.272-.167-.6-.11a9.71,9.71,0,0,0-3.785,1.466,1.439,1.439,0,0,1-1.074.285,4.289,4.289,0,0,0-1.668.127c-.435.181-.534.468-.478.71a.754.754,0,0,0,.56.383" transform="translate(-30.024 -22.952)" fill="#6d362f"/>
        <path id="Path_19639" data-name="Path 19639" d="M80.013,63.364a1.14,1.14,0,0,0-.752.363c-.14.216.023.488.381.56a2.6,2.6,0,0,0,1.559-.191c.559-.284.491-.568.11-.662a3.071,3.071,0,0,0-1.3-.069" transform="translate(-30.123 -24.082)" fill="#4c2409"/>
        <path id="Path_19640" data-name="Path 19640" d="M72.678,62.221l-.826-.477v-.989l.826.477Z" transform="translate(-27.325 -23.104)" fill="#f9f8f7"/>
        <path id="Path_19641" data-name="Path 19641" d="M73.185,62.221l.826-.477v-.989l-.826.477Z" transform="translate(-27.832 -23.104)" fill="#f2ede9"/>
        <path id="Path_19642" data-name="Path 19642" d="M73.5,60.462l-.826-.477-.826.477.826.477Z" transform="translate(-27.325 -22.812)" fill="#fff"/>
        <path id="Path_19643" data-name="Path 19643" d="M74.515,63.592l-.826-.477v-.989l.826.477Z" transform="translate(-28.023 -23.626)" fill="#f9f8f7"/>
        <path id="Path_19644" data-name="Path 19644" d="M75.022,63.592l.826-.477v-.989l-.826.477Z" transform="translate(-28.53 -23.626)" fill="#f2ede9"/>
        <path id="Path_19645" data-name="Path 19645" d="M75.341,61.834l-.826-.477-.826.477.826.477Z" transform="translate(-28.023 -23.333)" fill="#fff"/>
        <path id="Path_19646" data-name="Path 19646" d="M44.227,51.517c0,2.077,2.735,3.759,6.11,3.759s6.11-1.683,6.11-3.759-2.735-3.759-6.11-3.759-6.11,1.683-6.11,3.759" transform="translate(-16.819 -18.162)" fill="#eadfdf"/>
        <path id="Path_19647" data-name="Path 19647" d="M44.216,51.327c0,1.99,2.737,3.6,6.113,3.6s6.113-1.614,6.113-3.6-2.737-3.6-6.113-3.6-6.113,1.614-6.113,3.6" transform="translate(-16.815 -18.149)" fill="#f7f1ed"/>
        <path id="Path_19648" data-name="Path 19648" d="M44.832,51.558c0,1.782,2.566,3.226,5.732,3.226S56.3,53.34,56.3,51.558s-2.566-3.226-5.732-3.226-5.732,1.445-5.732,3.226" transform="translate(-17.049 -18.38)" fill="#eadfdf"/>
        <g id="Group_18098" data-name="Group 18098" transform="translate(29.947 31.347)" opacity="0.5">
          <g id="Group_18097" data-name="Group 18097">
            <g id="Group_18096" data-name="Group 18096" clip-path="url(#clip-path-3)">
              <path id="Path_19649" data-name="Path 19649" d="M48.325,52.591c0,1.109,1.6,2.008,3.567,2.008s3.567-.9,3.567-2.008-1.6-2.008-3.567-2.008-3.567.9-3.567,2.008" transform="translate(-48.325 -50.584)" fill="#d3c2b6"/>
            </g>
          </g>
        </g>
        <path id="Path_19650" data-name="Path 19650" d="M49.6,45.94a1.617,1.617,0,0,0-2.3.015c-.975.893.2,2.855.61,3.327s.379.988.977.979.71-4.321.71-4.321" transform="translate(-17.846 -17.288)" fill="#e5dada"/>
        <path id="Path_19651" data-name="Path 19651" d="M48.245,47.638s-.2-.4-.358-.436-.538.1-.4.807a2.68,2.68,0,0,0,1.05,1.78c.573.377-.293-2.151-.293-2.151" transform="translate(-18.048 -17.949)" fill="#dcc"/>
        <path id="Path_19652" data-name="Path 19652" d="M50.324,53.386c0,.706,1.016,1.278,2.271,1.278s2.271-.572,2.271-1.278-1.017-1.278-2.271-1.278-2.271.572-2.271,1.278" transform="translate(-19.138 -19.816)" fill="#dcc"/>
        <path id="Path_19653" data-name="Path 19653" d="M48.5,47.908l2.77,1.917a4.323,4.323,0,0,1,1.369,0l2.772-1.919a5.8,5.8,0,0,1-1.084,3.8,1.585,1.585,0,0,1-.341.3,3.4,3.4,0,0,1-2.036.588,3.312,3.312,0,0,1-2.105-.643,1.717,1.717,0,0,1-.261-.25,5.8,5.8,0,0,1-1.084-3.8" transform="translate(-18.439 -18.219)" fill="#efe6e6"/>
        <path id="Path_19654" data-name="Path 19654" d="M48.487,46.713c0,1.076,1.549,1.948,3.461,1.948s3.461-.872,3.461-1.948-1.55-1.948-3.461-1.948-3.461.872-3.461,1.948" transform="translate(-18.439 -17.024)" fill="#f7f1ed"/>
        <path id="Path_19655" data-name="Path 19655" d="M52.155,46.088a3.45,3.45,0,0,0-2.985,1.237,1.073,1.073,0,0,1-.139-.521c0-.971,1.4-1.759,3.125-1.759s3.125.788,3.125,1.759a1.073,1.073,0,0,1-.139.521,3.45,3.45,0,0,0-2.985-1.237" transform="translate(-18.646 -17.13)" fill="#dcc"/>
        <path id="Path_19656" data-name="Path 19656" d="M52.24,49.2a3.45,3.45,0,0,1-2.985-1.237,3.448,3.448,0,0,1,2.985-1.238,3.448,3.448,0,0,1,2.985,1.238A3.45,3.45,0,0,1,52.24,49.2" transform="translate(-18.731 -17.77)" fill="#542322"/>
        <path id="Path_19657" data-name="Path 19657" d="M51.989,41.757c-.242-.2-.57-.371-.693-.679a.814.814,0,0,1,.1-.765,4.832,4.832,0,0,0,.556-.692.741.741,0,0,1-.1-.557.938.938,0,0,1,.516-.682A.49.49,0,0,1,53,38.47a.415.415,0,0,0-.469.25.346.346,0,0,0,.009.385,1.442,1.442,0,0,0,.472.486,2.134,2.134,0,0,1,.739.589.852.852,0,0,1,.078.631,3.42,3.42,0,0,1,.255.325.968.968,0,0,1,.09.891,1.177,1.177,0,0,1-.733.684c.086.05.173.1.255.152a1.008,1.008,0,0,1,.561.714.678.678,0,0,1-.415.622,4.059,4.059,0,0,1-.537.182c-.429.152-.464.314-.436.5-.257-.069-.388-.146-.356-.46-.2-.157-.558-.291-.776-.468a.747.747,0,0,1-.314-.582.95.95,0,0,1,.347-.654c.189-.17.592-.39.483-.653a.853.853,0,0,0-.265-.3m1.342.509c.268.081.752-.452.377-1.182a.579.579,0,0,1-.141.153,1.087,1.087,0,0,1-.235,1.029m-.755,1.975a.892.892,0,0,1,.415-.253c.237-.1.486-.307.238-.559a3.225,3.225,0,0,0-.351-.252l-.028-.023a.448.448,0,0,1-.083.2c-.08.112-.191.2-.271.309a.444.444,0,0,0,.08.58m-.336-4.267-.081.128a.732.732,0,0,0-.155.433.77.77,0,0,0,.281.487c.132.12.319.229.459.364a1.33,1.33,0,0,0,.081-.424,1.111,1.111,0,0,0-.211-.634,2.955,2.955,0,0,0-.373-.355" transform="translate(-19.487 -14.568)" fill="#efe6e6"/>
        <path id="Path_19658" data-name="Path 19658" d="M43.221,52.7a.277.277,0,0,0,.148.275,19.536,19.536,0,0,0,2.645.759,3.512,3.512,0,0,1,1.472.676c.275.235.434.457.849.8a2.456,2.456,0,0,0,1.93.356.753.753,0,0,0,.56-.383.616.616,0,0,1-.061.159,1.218,1.218,0,0,1-1.081.462,2.195,2.195,0,0,1-1.744-.792c-.162-.166-.486-.487-.6-.586a3.476,3.476,0,0,0-1.059-.486c-.936-.283-2.181-.586-2.705-.716-.267-.066-.415-.252-.4-.408a.21.21,0,0,1,.044-.109" transform="translate(-16.42 -20.043)" fill="#542322"/>
        <path id="Path_19659" data-name="Path 19659" d="M50.293,55.484a2.453,2.453,0,0,1-1.93-.356c-.415-.338-.574-.56-.85-.8a3.515,3.515,0,0,0-1.472-.677A19.509,19.509,0,0,1,43.4,52.9a.275.275,0,0,1-.148-.274c.081-.105.272-.167.6-.11a9.71,9.71,0,0,1,3.785,1.466,1.439,1.439,0,0,0,1.074.285,4.288,4.288,0,0,1,1.668.127c.435.181.534.468.478.71a.754.754,0,0,1-.56.383" transform="translate(-16.447 -19.962)" fill="#6d362f"/>
        <path id="Path_19660" data-name="Path 19660" d="M53.01,55.5a1.14,1.14,0,0,1,.752.363c.14.216-.024.488-.381.56a2.6,2.6,0,0,1-1.559-.191c-.559-.284-.49-.568-.11-.662a3.071,3.071,0,0,1,1.3-.069" transform="translate(-19.553 -21.092)" fill="#4c2409"/>
        <path id="Path_19661" data-name="Path 19661" d="M61.309,54.358l.826-.477v-.989l-.826.477Z" transform="translate(-23.315 -20.115)" fill="#f9f8f7"/>
        <path id="Path_19662" data-name="Path 19662" d="M60.8,54.358l-.826-.477v-.989l.826.477Z" transform="translate(-22.808 -20.115)" fill="#f2ede9"/>
        <path id="Path_19663" data-name="Path 19663" d="M59.976,52.6l.826-.477.826.477-.826.477Z" transform="translate(-22.808 -19.822)" fill="#fff"/>
        <path id="Path_19664" data-name="Path 19664" d="M59.472,55.73l.826-.477v-.989l-.826.477Z" transform="translate(-22.617 -20.636)" fill="#f9f8f7"/>
        <path id="Path_19665" data-name="Path 19665" d="M58.965,55.73l-.826-.477v-.989l.826.477Z" transform="translate(-22.11 -20.636)" fill="#f2ede9"/>
        <path id="Path_19666" data-name="Path 19666" d="M58.139,53.971l.826-.477.826.477-.826.477Z" transform="translate(-22.11 -20.343)" fill="#fff"/>
        <path id="Path_19667" data-name="Path 19667" d="M88.353,105.227s-4.96.038-4.775,1.076a103.592,103.592,0,0,1,.7,10.741s-.653-.293-1.961-.724a1.437,1.437,0,0,0-1.083.6c-.431.809.917,1.677,2.335,2.386a3.935,3.935,0,0,0,3.289.387c.519-.236,1.216-.54,1.554-.687a11.376,11.376,0,0,1-.055-2.784,75.265,75.265,0,0,0,0-11" transform="translate(-30.86 -40.017)" fill="#ffd0ca"/>
        <path id="Path_19668" data-name="Path 19668" d="M84.978,126.164a3.936,3.936,0,0,1-3.289-.387c-1.419-.71-2.766-1.577-2.335-2.386a1.436,1.436,0,0,1,1.083-.6c-.2-.067-.418-.136-.653-.209-2.371-.736-3.8-.189-3.539.788.185.7.2.835,1.593,1.867a19.01,19.01,0,0,0,4.974,2.536c2.21.8,3.3.9,3.777-.229.285-.678.086-1.118-.058-2.066-.338.146-1.035.45-1.554.686" transform="translate(-28.984 -46.488)" fill="#006837"/>
        <path id="Path_19669" data-name="Path 19669" d="M78.838,105.474s-5.315-1.916-5.131-.878c.559,3.147,1.262,15.42,1.262,15.42s-.653-.292-1.961-.724a1.438,1.438,0,0,0-1.083.6c-.431.809.917,1.677,2.335,2.386a3.936,3.936,0,0,0,3.289.387c.519-.236,1.216-.54,1.554-.686a11.375,11.375,0,0,1-.055-2.785,108.979,108.979,0,0,0-.209-13.721" transform="translate(-27.321 -39.66)" fill="#ffd0ca"/>
        <path id="Path_19670" data-name="Path 19670" d="M75.673,131.536a3.936,3.936,0,0,1-3.289-.387c-1.419-.71-2.766-1.577-2.335-2.386a1.438,1.438,0,0,1,1.083-.6c-.2-.067-.418-.136-.652-.209-2.372-.737-3.8-.189-3.54.788.185.7.2.835,1.593,1.867a19.027,19.027,0,0,0,4.973,2.536c2.211.8,3.3.9,3.778-.229.285-.678.086-1.118-.058-2.066-.338.146-1.035.45-1.554.686" transform="translate(-25.446 -48.53)" fill="#006837"/>
        <path id="Path_19671" data-name="Path 19671" d="M75.78,132.642c0,.251.362.455.808.455s.807-.2.807-.455L80.32,116.86l-1.891-1.182c0,.27-2.649,16.964-2.649,16.964" transform="translate(-28.819 -43.992)" fill="#6d362f"/>
        <path id="Path_19672" data-name="Path 19672" d="M103.654,147.777c0,.251.362.455.808.455s.808-.2.808-.455l.654-17.26-1.891-1.182c0,.27-.379,18.442-.379,18.442" transform="translate(-39.419 -49.185)" fill="#6d362f"/>
        <path id="Path_19673" data-name="Path 19673" d="M124.945,135.775c0,.252.362.455.808.455s.808-.2.808-.455l.654-17.26-1.891-1.182c0,.27-.379,18.442-.379,18.442" transform="translate(-47.516 -44.621)" fill="#6d362f"/>
        <path id="Path_19674" data-name="Path 19674" d="M97.514,120.613c0,.251.362.455.808.455s.807-.2.807-.455l2.924-15.782-1.891-1.182c0,.27-2.649,16.964-2.649,16.964" transform="translate(-37.084 -39.417)" fill="#6d362f"/>
        <path id="Path_19675" data-name="Path 19675" d="M77.321,107.619l18.139,10.487,14.653-8.46L91.974,99.159Z" transform="translate(-29.405 -37.71)" fill="#bca2a2"/>
        <path id="Path_19676" data-name="Path 19676" d="M77.321,114.587l18.139,10.475V123.3L77.321,112.811Z" transform="translate(-29.405 -42.901)" fill="#af9595"/>
        <path id="Path_19677" data-name="Path 19677" d="M106.368,42.091a3.832,3.832,0,0,0-5.463-1.869c-.536.372-2.513.834-3.093,5.235-.39,2.957.592,4.278,1.433,5.048a4.262,4.262,0,0,0,1.72.377l-.06,3.3a5.594,5.594,0,0,0,3.785,0l1.854-.764a6.524,6.524,0,0,1-.6-3.408c.15-2.68,1.1-6.5.428-7.914" transform="translate(-37.164 -15.093)" fill="#ffd0ca"/>
        <path id="Path_19678" data-name="Path 19678" d="M106.634,76.631a25.577,25.577,0,0,0-.093-8.248,21.946,21.946,0,0,0-2.391-6.6l-5.636-.087a6.3,6.3,0,0,0-2.922,2.45c-.7,1.523-3.176,5.761-2.082,8.1a10.575,10.575,0,0,1,.442,8.933A47.181,47.181,0,0,0,91.43,91.383c2.653,2.269,5.391,4.184,9.141,4.394,3.944.22,7.482-1.665,8.048-5.767a21.3,21.3,0,0,0-.683-5.071c-1.824-4.676-1.436-7.227-1.3-8.308" transform="translate(-34.77 -23.462)" fill="#99cc39"/>
        <path id="Path_19679" data-name="Path 19679" d="M106.558,50.388c-.045-1.011,1.3-2.026,1.738-3.939,1.363-6.015-1.426-7.727-4.065-8.284-4.717-1-6.9,2.022-6.609,5.126.141,1.513,1.382,1.962,2.488,3.118a21.144,21.144,0,0,0,4.106,3.979c.881.629.659,5.507,2.342,8.971,1.793,3.693.75,4.366.75,4.366s5.111-1.649,3.026-7.355c-.762-2.085-3.678-3.786-3.776-5.983" transform="translate(-37.115 -14.44)" fill="#542322"/>
        <path id="Path_19680" data-name="Path 19680" d="M94.633,65.653c-2.033.194-6.87,9.842-7.088,10.434.025.029,1.671,2.282,3.166,1.278,2.348-1.577,5.955-5.606,6.033-7.353.112-2.479-1.021-4.463-2.112-4.359" transform="translate(-33.293 -24.966)" fill="#ffd0ca"/>
        <path id="Path_19681" data-name="Path 19681" d="M78.707,71.167c-.845-.386-.9-1.65-1.8-2.677-1.2-1.365-4.575-.395-4.081.8a9.7,9.7,0,0,0,4.215,3.76c1.21.509,3.447,3.9,6.116,5.017-.061-.171,1.283.115,1.253-.086a7.683,7.683,0,0,1,.5-3.5,63.929,63.929,0,0,0-6.209-3.312" transform="translate(-27.677 -25.793)" fill="#ffd0ca"/>
        <path id="Path_19682" data-name="Path 19682" d="M99.733,49.508l.511,2.461a2.014,2.014,0,0,0,1.143-2.461c-.5-1.982-1.655,0-1.655,0" transform="translate(-37.928 -18.493)" fill="#ffd0ca"/>
        <path id="Path_19683" data-name="Path 19683" d="M107.208,56.867A2.5,2.5,0,0,0,108.3,58.3a3.027,3.027,0,0,0,2.173-.623c.263-.283.195-1.542.195-1.542a16.481,16.481,0,0,1-3.455.736" transform="translate(-40.77 -21.346)" fill="#99cc39"/>
        <path id="Path_19684" data-name="Path 19684" d="M80.381,93.059c-4.549,1.481-5.89,3.718-5.69,7.91.118,2.478,5.69,4.12,13.968,5.975,9.04,2.026,11.049-1.374,11.049-1.374l-9.684-14.39a69.748,69.748,0,0,0-9.642,1.88" transform="translate(-28.397 -34.675)" fill="#99cc39"/>
        <g id="Group_18101" data-name="Group 18101" transform="translate(52.848 56.803)" opacity="0.1">
          <g id="Group_18100" data-name="Group 18100">
            <g id="Group_18099" data-name="Group 18099" clip-path="url(#clip-path-5)">
              <path id="Path_19685" data-name="Path 19685" d="M92.991,97.3a10.232,10.232,0,0,1-1.05-5.639L86.419,92.7s-2.006,6.064-.7,6.316,3.381-3.633,4.4-3.326.51,2.965,1.692,5.467,5.361,2.078,4.163.551a34.918,34.918,0,0,1-2.983-4.4" transform="translate(-85.279 -91.662)"/>
            </g>
          </g>
        </g>
        <path id="Path_19686" data-name="Path 19686" d="M106.592,112.552h0v1.766l14.653-8.448V84.555l-14.653,8.46Z" transform="translate(-40.536 -32.156)" fill="#cebcbc"/>
        <path id="Path_19687" data-name="Path 19687" d="M104.471,118.327l1.314.686V97.785l-1.314-.685Z" transform="translate(-39.73 -36.926)" fill="#af9595"/>
        <path id="Path_19688" data-name="Path 19688" d="M104.471,91.908l1.314.686,14.653-8.46-1.314-.686Z" transform="translate(-39.73 -31.735)" fill="#dcc"/>
      </g>
    </g>
  </g>
</svg>
