<svg xmlns="http://www.w3.org/2000/svg" width="369.875" height="45.828" viewBox="0 0 369.875 45.828">
  <path id="Path_72998" data-name="Path 72998" d="M-183.352,0V-42.656h13.184q6.68,0,10.151,2.974t3.472,8.716a10.506,10.506,0,0,1-1.436,5.6,8.473,8.473,0,0,1-3.926,3.428,7.459,7.459,0,0,1,4.424,3.3,11.283,11.283,0,0,1,1.553,6.108q0,6.211-3.413,9.375T-169.23,0Zm8.613-18.545v11.4h5.508a4.324,4.324,0,0,0,3.516-1.436,6.176,6.176,0,0,0,1.2-4.072q0-5.742-4.16-5.889Zm0-6.27h4.482q5.068,0,5.068-5.244a6.017,6.017,0,0,0-1.172-4.16,5,5,0,0,0-3.809-1.26h-4.57Zm70.793-17.842v29.531q-.059,6.65-3.662,10.181T-117.949.586q-6.855,0-10.474-3.574t-3.618-10.342V-42.656h8.672V-13.3q0,3.633,1.172,5.186t4.248,1.553q3.076,0,4.219-1.538t1.172-5.054v-29.5Zm42.551,31.465a5.344,5.344,0,0,0-1.333-3.94A15.349,15.349,0,0,0-67.576-17.9q-6.416-2.432-9.229-5.7a11.451,11.451,0,0,1-2.812-7.72,10.822,10.822,0,0,1,3.823-8.657,14.425,14.425,0,0,1,9.712-3.267,14.542,14.542,0,0,1,7,1.655,11.483,11.483,0,0,1,4.731,4.673,14.018,14.018,0,0,1,1.655,6.855h-8.584a7.074,7.074,0,0,0-1.274-4.556,4.464,4.464,0,0,0-3.677-1.567,4.6,4.6,0,0,0-3.516,1.333A5.012,5.012,0,0,0-71-31.26,4.419,4.419,0,0,0-69.6-28.081a16.17,16.17,0,0,0,4.98,2.944q6.24,2.256,9.067,5.537a12.336,12.336,0,0,1,2.827,8.35,11.011,11.011,0,0,1-3.545,8.7Q-59.813.586-65.906.586a16.6,16.6,0,0,1-7.529-1.7,12.745,12.745,0,0,1-5.317-4.863,14.127,14.127,0,0,1-1.919-7.471h8.643q0,3.691,1.436,5.361t4.688,1.67Q-61.395-6.416-61.395-11.191ZM-20.016,0h-8.613V-42.656h8.613ZM35.045,0H26.432l-12.6-27.979V0H5.221V-42.656h8.613L26.461-14.648V-42.656h8.584ZM81.99-18.457H68.572V-7.148H84.451V0H59.959V-42.656H84.393v7.178H68.572V-25.4H81.99Zm43.43,7.266a5.344,5.344,0,0,0-1.333-3.94,15.349,15.349,0,0,0-4.849-2.769q-6.416-2.432-9.229-5.7a11.451,11.451,0,0,1-2.812-7.72,10.822,10.822,0,0,1,3.823-8.657,14.425,14.425,0,0,1,9.712-3.267,14.542,14.542,0,0,1,7,1.655,11.483,11.483,0,0,1,4.731,4.673,14.018,14.018,0,0,1,1.655,6.855h-8.584a7.074,7.074,0,0,0-1.274-4.556,4.464,4.464,0,0,0-3.677-1.567,4.6,4.6,0,0,0-3.516,1.333,5.012,5.012,0,0,0-1.26,3.589,4.419,4.419,0,0,0,1.406,3.179,16.17,16.17,0,0,0,4.98,2.944q6.24,2.256,9.067,5.537a12.336,12.336,0,0,1,2.827,8.35,11.011,11.011,0,0,1-3.545,8.7Q127,.586,120.908.586a16.6,16.6,0,0,1-7.529-1.7,12.745,12.745,0,0,1-5.317-4.863,14.127,14.127,0,0,1-1.919-7.471h8.643q0,3.691,1.436,5.361t4.688,1.67Q125.42-6.416,125.42-11.191Zm50.4,0a5.344,5.344,0,0,0-1.333-3.94,15.349,15.349,0,0,0-4.849-2.769q-6.416-2.432-9.229-5.7a11.451,11.451,0,0,1-2.812-7.72,10.822,10.822,0,0,1,3.823-8.657,14.425,14.425,0,0,1,9.712-3.267,14.542,14.542,0,0,1,7,1.655,11.483,11.483,0,0,1,4.731,4.673,14.018,14.018,0,0,1,1.655,6.855h-8.584a7.074,7.074,0,0,0-1.274-4.556,4.464,4.464,0,0,0-3.677-1.567,4.6,4.6,0,0,0-3.516,1.333,5.012,5.012,0,0,0-1.26,3.589,4.419,4.419,0,0,0,1.406,3.179,16.17,16.17,0,0,0,4.98,2.944q6.24,2.256,9.067,5.537a12.336,12.336,0,0,1,2.827,8.35,11.011,11.011,0,0,1-3.545,8.7Q177.4.586,171.311.586a16.6,16.6,0,0,1-7.529-1.7,12.745,12.745,0,0,1-5.317-4.863,14.127,14.127,0,0,1-1.919-7.471h8.643q0,3.691,1.436,5.361t4.688,1.67Q175.822-6.416,175.822-11.191Z" transform="translate(184.352 44.242)" fill="none" stroke="#0288d1" stroke-linecap="round" stroke-width="2"/>
</svg>
