<svg xmlns="http://www.w3.org/2000/svg" width="419.417" height="48.75" viewBox="0 0 419.417 48.75">
  <path id="Path_72956" data-name="Path 72956" d="M-175.613-15.156q-.344,7.781-4.375,11.781t-11.375,4q-7.719,0-11.828-5.078T-207.3-18.937v-7.656q0-9.375,4.25-14.453t11.813-5.078q7.437,0,11.3,4.156t4.391,11.938h-9.219q-.125-4.812-1.484-6.641t-4.984-1.828q-3.687,0-5.219,2.578t-1.625,8.484v8.594q0,6.781,1.516,9.313t5.2,2.531q3.625,0,5-1.766t1.563-6.391Zm63.287-3.5q0,9.156-4.328,14.219T-128.669.625q-7.656,0-12.031-5.016t-4.437-14.047v-7.781q0-9.375,4.344-14.641t12.063-5.266q7.594,0,11.969,5.172t4.438,14.516Zm-9.219-7.625q0-6.156-1.75-9.156a5.856,5.856,0,0,0-5.437-3,5.878,5.878,0,0,0-5.406,2.891q-1.75,2.891-1.812,8.8v8.094q0,5.969,1.781,8.8a6.042,6.042,0,0,0,5.5,2.828A5.888,5.888,0,0,0-123.325-9.8q1.75-2.766,1.781-8.578ZM-68.131-45.5l8.594,32.906L-50.975-45.5h12V0h-9.219V-12.312l.844-18.969L-56.444,0h-6.25l-9.094-31.281.844,18.969V0h-9.187V-45.5ZM3.187-16V0H-6V-45.5H9.5q6.75,0,10.766,4.188a15.06,15.06,0,0,1,4.016,10.875q0,6.688-3.969,10.563T9.312-16Zm0-7.656H9.5a5,5,0,0,0,4.063-1.719,7.611,7.611,0,0,0,1.438-5A9.019,9.019,0,0,0,13.531-35.8a4.709,4.709,0,0,0-3.938-2.047H3.187ZM72.162-9.312H59.631L57.194,0H47.475L61.694-45.5H70.1L84.412,0H74.6ZM61.631-16.969h8.5l-4.25-16.219ZM146.075,0h-9.187L123.45-29.844V0h-9.187V-45.5h9.188l13.469,29.875V-45.5h9.156Zm46.694-25.062L199.613-45.5h10l-12.187,29V0h-9.312V-16.5l-12.219-29h10Z" transform="translate(208.3 47.125)" fill="none" stroke="#0288d1" stroke-linecap="round" stroke-width="2"/>
</svg>
