<svg xmlns="http://www.w3.org/2000/svg" width="588.751" height="48.75" viewBox="0 0 588.751 48.75">
  <path id="Path_72989" data-name="Path 72989" d="M-261.544-16.906l4.313-28.594h9.094L-256.231,0h-9.219l-5.312-26.812L-276.013,0h-9.25l-8.125-45.5h9.156l4.281,28.563,5.344-28.562h7.719Zm76.006-1.75q0,9.156-4.328,14.219T-201.881.625q-7.656,0-12.031-5.016t-4.437-14.047v-7.781q0-9.375,4.344-14.641t12.063-5.266q7.594,0,11.969,5.172t4.438,14.516Zm-9.219-7.625q0-6.156-1.75-9.156a5.856,5.856,0,0,0-5.437-3,5.878,5.878,0,0,0-5.406,2.891q-1.75,2.891-1.812,8.8v8.094q0,5.969,1.781,8.8a6.042,6.042,0,0,0,5.5,2.828A5.888,5.888,0,0,0-196.538-9.8q1.75-2.766,1.781-8.578Zm55.194,9.656h-4.562V0h-9.187V-45.5h14.656q6.906,0,10.672,3.578t3.766,10.172q0,9.063-6.594,12.688l7.969,18.625V0h-9.875Zm-4.562-7.656h5.219a4.833,4.833,0,0,0,4.125-1.828A7.944,7.944,0,0,0-133.406-31q0-6.844-5.344-6.844h-5.375Zm64.631,6.719L-83.119-13V0h-9.187V-45.5h9.188v19.844l2.906-4.906L-71.744-45.5h11.25l-13.031,20L-60.275,0H-71.181Zm46.788,5.313a11.773,11.773,0,0,1,1.453-5.828A22.554,22.554,0,0,1-25.8-23.969a34.023,34.023,0,0,1-2.719-5.141,13.021,13.021,0,0,1-1-5.016A12.538,12.538,0,0,1-26.55-42.8a10.111,10.111,0,0,1,7.938-3.328,9.655,9.655,0,0,1,7.359,3.078A10.612,10.612,0,0,1-8.363-35.5a12.2,12.2,0,0,1-4.969,9.906l-2.5,2.031,5.844,8.156a21.426,21.426,0,0,0,1.094-6.937h7.469q0,8.781-3.437,14.125L1.012,0H-9.019l-1.688-2.375a15.18,15.18,0,0,1-9.312,3,12.339,12.339,0,0,1-9.219-3.531A12.758,12.758,0,0,1-32.706-12.25ZM-19.55-6.656a7.659,7.659,0,0,0,4.656-1.629l-7.187-10.183-.187.157a9.975,9.975,0,0,0-1.562,5.546A7.366,7.366,0,0,0-22.6-8.4,3.641,3.641,0,0,0-19.55-6.656Zm-2.094-27.625a10.536,10.536,0,0,0,2.125,5.438l1.469-1.125a6.467,6.467,0,0,0,1.875-2.078,6.283,6.283,0,0,0,.562-2.891,4.229,4.229,0,0,0-.891-2.734,2.667,2.667,0,0,0-2.141-1.109,2.5,2.5,0,0,0-2.187,1.234A5.855,5.855,0,0,0-21.644-34.281ZM50.581-11.937a5.7,5.7,0,0,0-1.422-4.2,16.372,16.372,0,0,0-5.172-2.953q-6.844-2.594-9.844-6.078a12.214,12.214,0,0,1-3-8.234,11.544,11.544,0,0,1,4.078-9.234,15.387,15.387,0,0,1,10.359-3.484,15.511,15.511,0,0,1,7.469,1.766A12.248,12.248,0,0,1,58.1-39.375a14.952,14.952,0,0,1,1.766,7.313H50.706a7.545,7.545,0,0,0-1.359-4.859,4.762,4.762,0,0,0-3.922-1.672,4.911,4.911,0,0,0-3.75,1.422,5.346,5.346,0,0,0-1.344,3.828,4.714,4.714,0,0,0,1.5,3.391,17.248,17.248,0,0,0,5.313,3.141q6.656,2.406,9.672,5.906A13.158,13.158,0,0,1,59.831-12q0,5.938-3.781,9.281T45.769.625a17.7,17.7,0,0,1-8.031-1.812,13.6,13.6,0,0,1-5.672-5.187,15.069,15.069,0,0,1-2.047-7.969h9.219q0,3.938,1.531,5.719t5,1.781Q50.581-6.844,50.581-11.937Zm70.413-25.906h-11.25V0h-9.219V-37.844H89.462V-45.5h31.531Zm48.85,28.531H157.313L154.875,0h-9.719l14.219-45.5h8.406L182.094,0h-9.812Zm-10.531-7.656h8.5l-4.25-16.219Zm76.1-1.594H221.131V0h-9.187V-45.5h25.188v7.656h-16v11.656h14.281Zm56.038,0H277.169V0h-9.187V-45.5h25.188v7.656h-16v11.656H291.45Z" transform="translate(294.582 47.125)" fill="none" stroke="#0288d1" stroke-linecap="round" stroke-width="2"/>
</svg>
