<svg xmlns="http://www.w3.org/2000/svg" width="498.091" height="45.828" viewBox="0 0 498.091 45.828">
  <path id="Path_72989" data-name="Path 72989" d="M-218.2-15.85l4.043-26.807h8.525L-213.217,0h-8.643l-4.98-25.137L-231.762,0h-8.672l-7.617-42.656h8.584l4.014,26.777,5.01-26.777h7.236Zm65.256-1.641q0,8.584-4.058,13.33T-168.264.586q-7.178,0-11.279-4.7t-4.16-13.169V-24.58q0-8.789,4.072-13.726t11.309-4.937q7.119,0,11.221,4.849t4.16,13.608Zm-8.643-7.148q0-5.771-1.641-8.584a5.49,5.49,0,0,0-5.1-2.812,5.511,5.511,0,0,0-5.068,2.71q-1.641,2.71-1.7,8.247v7.588q0,5.6,1.67,8.247a5.665,5.665,0,0,0,5.156,2.651,5.52,5.52,0,0,0,5.01-2.593q1.641-2.593,1.67-8.042Zm45.744,9.053h-4.277V0h-8.613V-42.656h13.74q6.475,0,10,3.354t3.53,9.536q0,8.5-6.182,11.895L-100.166-.41V0h-9.258Zm-4.277-7.178h4.893a4.531,4.531,0,0,0,3.867-1.714,7.447,7.447,0,0,0,1.289-4.585q0-6.416-5.01-6.416h-5.039Zm54.592,6.3-3.4,4.277V0h-8.613V-42.656h8.613v18.6l2.725-4.6,7.939-14h10.547L-59.93-23.906-47.508,0H-57.732Zm37.863,4.98A11.037,11.037,0,0,1-26.3-16.948a21.145,21.145,0,0,1,5.112-5.522,31.9,31.9,0,0,1-2.549-4.819,12.207,12.207,0,0,1-.937-4.7,11.754,11.754,0,0,1,2.783-8.13,9.479,9.479,0,0,1,7.441-3.12,9.051,9.051,0,0,1,6.9,2.886,9.949,9.949,0,0,1,2.71,7.075A11.433,11.433,0,0,1-9.5-23.994l-2.344,1.9,5.479,7.646a20.087,20.087,0,0,0,1.025-6.5h7q0,8.232-3.223,13.242L3.949,0h-9.4L-7.037-2.227A14.231,14.231,0,0,1-15.768.586,11.568,11.568,0,0,1-24.41-2.725,11.96,11.96,0,0,1-27.662-11.484ZM-15.328-6.24a7.181,7.181,0,0,0,4.365-1.528L-17.7-17.314l-.176.147a9.352,9.352,0,0,0-1.465,5.2,6.905,6.905,0,0,0,1.157,4.1A3.414,3.414,0,0,0-15.328-6.24Zm-1.963-25.9a9.877,9.877,0,0,0,1.992,5.1l1.377-1.055a6.063,6.063,0,0,0,1.758-1.948,5.89,5.89,0,0,0,.527-2.71,3.964,3.964,0,0,0-.835-2.563,2.5,2.5,0,0,0-2.007-1.04A2.346,2.346,0,0,0-16.529-35.2,5.489,5.489,0,0,0-17.291-32.139ZM44.42-11.191a5.344,5.344,0,0,0-1.333-3.94A15.349,15.349,0,0,0,38.238-17.9q-6.416-2.432-9.229-5.7a11.451,11.451,0,0,1-2.812-7.72,10.822,10.822,0,0,1,3.823-8.657,14.425,14.425,0,0,1,9.712-3.267,14.542,14.542,0,0,1,7,1.655,11.483,11.483,0,0,1,4.731,4.673,14.018,14.018,0,0,1,1.655,6.855H44.537a7.074,7.074,0,0,0-1.274-4.556,4.464,4.464,0,0,0-3.677-1.567,4.6,4.6,0,0,0-3.516,1.333,5.012,5.012,0,0,0-1.26,3.589,4.419,4.419,0,0,0,1.406,3.179,16.17,16.17,0,0,0,4.98,2.944q6.24,2.256,9.067,5.537a12.336,12.336,0,0,1,2.827,8.35,11.011,11.011,0,0,1-3.545,8.7Q46,.586,39.908.586a16.6,16.6,0,0,1-7.529-1.7,12.745,12.745,0,0,1-5.317-4.863,14.127,14.127,0,0,1-1.919-7.471h8.643q0,3.691,1.436,5.361t4.688,1.67Q44.42-6.416,44.42-11.191Zm60.012-24.287H93.885V0H85.242V-35.479H74.871v-7.178h29.561Zm39.8,26.748H132.48L130.2,0h-9.111l13.33-42.656h7.881L155.713,0h-9.2Zm-9.873-7.178h7.969L138.34-31.113ZM199.7-17.4H186.311V0H177.7V-42.656h23.613v7.178h-15v10.928H199.7Zm46.535,0H232.846V0h-8.613V-42.656h23.613v7.178h-15v10.928h13.389Z" transform="translate(249.245 44.242)" fill="none" stroke="#0288d1" stroke-linecap="round" stroke-width="2"/>
</svg>
