<svg xmlns="http://www.w3.org/2000/svg" width="354.213" height="45.828" viewBox="0 0 354.213 45.828">
  <path id="Path_72989" data-name="Path 72989" d="M-162.249-15.586h-4.277V0h-8.613V-42.656h13.74q6.475,0,10,3.354t3.53,9.536q0,8.5-6.182,11.895L-146.575-.41V0h-9.258Zm-4.277-7.178h4.893a4.531,4.531,0,0,0,3.867-1.714,7.447,7.447,0,0,0,1.289-4.585q0-6.416-5.01-6.416h-5.039Zm70.611,4.307h-13.418V-7.148h15.879V0h-24.492V-42.656h24.434v7.178h-15.82V-25.4h13.418Zm60.328,4.248q-.322,7.295-4.1,11.045T-50.353.586q-7.236,0-11.089-4.761t-3.853-13.579v-7.178q0-8.789,3.984-13.55t11.074-4.761q6.973,0,10.591,3.9t4.116,11.191h-8.643q-.117-4.512-1.392-6.226t-4.673-1.714q-3.457,0-4.893,2.417t-1.523,7.954v8.057q0,6.357,1.421,8.73t4.878,2.373q3.4,0,4.688-1.655t1.465-5.991ZM6.636-15.586H2.358V0H-6.255V-42.656H7.485q6.475,0,10,3.354t3.53,9.536q0,8.5-6.182,11.895L22.31-.41V0H13.052ZM2.358-22.764H7.251a4.531,4.531,0,0,0,3.867-1.714,7.447,7.447,0,0,0,1.289-4.585q0-6.416-5.01-6.416H2.358ZM78.683-42.656v29.531q-.059,6.65-3.662,10.181T64.679.586q-6.855,0-10.474-3.574T50.587-13.33V-42.656h8.672V-13.3q0,3.633,1.172,5.186t4.248,1.553q3.076,0,4.219-1.538t1.172-5.054v-29.5ZM118.21,0H109.6V-42.656h8.613Zm58.863-35.479H166.526V0h-8.643V-35.479H147.513v-7.178h29.561Z" transform="translate(176.14 44.242)" fill="none" stroke="#0288d1" stroke-linecap="round" stroke-width="2"/>
</svg>
